<?xml version="1.0" encoding="utf-8"?>
<!-- Generator: Adobe Illustrator 19.2.0, SVG Export Plug-In . SVG Version: 6.00 Build 0)  -->
<svg version="1.1" id="Layer_1" xmlns="http://www.w3.org/2000/svg" xmlns:xlink="http://www.w3.org/1999/xlink" x="0px" y="0px"
	 viewBox="0 0 1920 1081" style="enable-background:new 0 0 1920 1081;" xml:space="preserve">
<style type="text/css">
	.st0{fill:#333333;}
	.st1{fill:#00A99D;}
	.st2{fill:#E6E6E6;}
	.st3{fill:#F2F2F2;}
	.st4{fill:#CCCCCC;}
	.st5{fill:#FFFFFF;}
	.st6{fill:#E53542;}
	.st7{fill:#CE2439;}
	.st8{clip-path:url(#SVGID_2_);fill:none;stroke:#E6E6E6;stroke-width:2;stroke-miterlimit:10;}
	.st9{fill:none;stroke:#E6E6E6;stroke-width:4;stroke-miterlimit:10;}
	.st10{fill:#42210B;}
	.st11{fill:#7C3E0B;}
	.st12{fill:#5E2E0A;}
	.st13{fill:#965422;}
	.st14{clip-path:url(#SVGID_4_);fill:none;stroke:#E6E6E6;stroke-width:2;stroke-miterlimit:10;}
	.st15{fill:#F8C09D;}
	.st16{fill:#44A0C1;}
	.st17{fill:#1A1A1A;}
	.st18{fill:#443833;}
	.st19{fill:none;stroke:#FFFFFF;stroke-width:2.4831;stroke-miterlimit:10;}
	.st20{fill:none;stroke:#1A1A1A;stroke-width:4.9663;stroke-miterlimit:10;}
	.st21{fill:none;stroke:#1A1A1A;stroke-width:5.6022;stroke-miterlimit:10;}
	.st22{fill:#F6AE8D;}
	.st23{fill:none;stroke:#808080;stroke-width:2.4076;stroke-linecap:round;stroke-miterlimit:10;}
	.st24{fill:#BBEAE4;}
	.st25{fill:#96E2D7;}
	.st26{fill:#75D3C3;}
	.st27{fill:#703B21;}
	.st28{fill:#EF937E;}
	.st29{fill:none;stroke:#91A89D;stroke-width:2.9104;stroke-miterlimit:10;}
	.st30{fill:none;stroke:#91A89D;stroke-width:2.9104;stroke-linecap:round;stroke-miterlimit:10;}
	.st31{fill:#E26C60;}
</style>
<g>
	<rect x="946" y="546.2" class="st0" width="41.2" height="56.1"/>
	<path class="st1" d="M1056.8,707.6H875.5c-10.9,0-19.7-8.8-19.7-19.7v-79.5c0-10.9,8.8-19.7,19.7-19.7h181.3
		c10.9,0,19.7,8.8,19.7,19.7V688C1076.4,698.8,1067.6,707.6,1056.8,707.6z"/>
	<path class="st1" d="M1056.8,561.3H875.5c-10.9,0-19.7-8.8-19.7-19.7v-79.5c0-10.9,8.8-19.7,19.7-19.7h181.3
		c10.9,0,19.7,8.8,19.7,19.7v79.5C1076.4,552.5,1067.6,561.3,1056.8,561.3z"/>
	<path class="st0" d="M978.1,735.6h-23.9c-6.5,0-11.8-5.3-11.8-11.8v-5.4h47.4v5.4C989.8,730.4,984.6,735.6,978.1,735.6z"/>
	<path class="st0" d="M1049,720.2H883.3c-3.5,0-6.3-2.8-6.3-6.3v0c0-3.5,2.8-6.3,6.3-6.3H1049c3.5,0,6.3,2.8,6.3,6.3v0
		C1055.2,717.4,1052.4,720.2,1049,720.2z"/>
	<rect x="954.5" y="735.6" class="st2" width="23.1" height="73.7"/>
	<path class="st0" d="M981.3,809.3H951c-4.7,0-8.6-3.8-8.6-8.6l0,0c0-4.7,3.8-8.6,8.6-8.6h30.3c4.7,0,8.6,3.8,8.6,8.6l0,0
		C989.8,805.5,986,809.3,981.3,809.3z"/>
	<path class="st2" d="M883.5,874h19.2l-0.2-18.1c2.5-4.6,6-8.6,10.2-11.7l57.9-34.8h-28.3l-46,29.4c-3.3,2.7-6.2,6-8.3,9.8
		L883.5,874z"/>
	<path class="st2" d="M1048.3,874h-19.2l0.2-18.1c-2.5-4.6-6-8.6-10.2-11.7l-57.9-34.8h28.3l46,29.4c3.3,2.7,6.2,6,8.3,9.8
		L1048.3,874z"/>
	<circle class="st0" cx="893.6" cy="874" r="15.2"/>
	<circle class="st0" cx="1039.1" cy="874" r="15.2"/>
	<rect x="956.1" y="809.3" class="st2" width="19.1" height="63"/>
	<circle class="st0" cx="966.1" cy="874" r="15.2"/>
</g>
<path class="st3" d="M782.2,564.2H581.7c-4.4,0-8.2-3-9.2-7.3l-26-113.9c-1.3-5.9,3.1-11.5,9.2-11.5h200.5c4.4,0,8.2,3,9.2,7.3
	l26,113.9C792.7,558.6,788.3,564.2,782.2,564.2z"/>
<path class="st4" d="M823.5,588.4h-49.3v-17.1h63.4v3C837.7,582.1,831.3,588.4,823.5,588.4z"/>
<path class="st2" d="M789.4,588.4H589.1c-8.2,0-14.9-6.7-14.9-14.9v-2.2h230.6v1.7C804.8,581.5,797.9,588.4,789.4,588.4z"/>
<polygon class="st4" points="783.1,571.4 589.2,571.4 586.5,564.2 780.4,564.2 "/>
<circle class="st5" cx="667.9" cy="502.5" r="22.6"/>
<g>
	<polygon class="st3" points="1232.6,588.8 1144.3,588.8 1162.1,511.8 1250.5,511.8 	"/>
	<polygon class="st4" points="1250.5,512 1267.4,589 1232.6,589 	"/>
	<polygon class="st6" points="1245.4,533.1 1157.1,533.1 1162.1,511.8 1250.5,511.8 	"/>
	<g>
		<path class="st0" d="M1178.9,549.2h-0.1l-6.7,3l-0.2-5.9l9.5-4.1h6.1l-6.4,34.1h-7.3L1178.9,549.2z"/>
		<path class="st0" d="M1190.2,576.3l0.9-4.9l7.3-5.7c6.8-5.6,11.2-9.6,11.2-13.7c0-2.4-1.7-4.1-4.7-4.1c-3,0-5.4,0.9-7.2,2
			l-1.5-5.4c2.7-1.7,6.7-2.9,10.6-2.9c6.9,0,10.7,4,10.7,9.3c0,7-5.6,11.8-11.6,16.4l-3.4,2.4v0.1h12.2l-1.2,6.5H1190.2z"/>
	</g>
</g>
<g>
	<path class="st6" d="M1317.1,588.3h39.8c1.8,0,3.3-1.5,3.3-3.3V521h-46.3v64.1C1313.8,586.9,1315.3,588.3,1317.1,588.3z"/>
	<path class="st7" d="M1321.4,521v64.1c0,1.8,1.5,3.3,3.3,3.3h-7.6c-1.8,0-3.3-1.5-3.3-3.3V521H1321.4z"/>
	<g>
		<defs>
			<path id="SVGID_1_" d="M1314.1,503.3h45.7c1.9,0,3.5,1.6,3.5,3.5v10.8c0,1.9-1.6,3.5-3.5,3.5h-45.7c-1.9,0-3.5-1.6-3.5-3.5v-10.8
				C1310.6,504.8,1312.2,503.3,1314.1,503.3z"/>
		</defs>
		<use xlink:href="#SVGID_1_"  style="overflow:visible;fill:#FFFFFF;"/>
		<clipPath id="SVGID_2_">
			<use xlink:href="#SVGID_1_"  style="overflow:visible;"/>
		</clipPath>
		<line class="st8" x1="1364.2" y1="506" x2="1364.2" y2="524.6"/>
		<line class="st8" x1="1359.3" y1="506" x2="1359.3" y2="524.6"/>
		<line class="st8" x1="1354.3" y1="506" x2="1354.3" y2="524.6"/>
		<line class="st8" x1="1349.4" y1="506" x2="1349.4" y2="524.6"/>
		<line class="st8" x1="1344.4" y1="506" x2="1344.4" y2="524.6"/>
		<line class="st8" x1="1339.4" y1="506" x2="1339.4" y2="524.6"/>
		<line class="st8" x1="1334.5" y1="506" x2="1334.5" y2="524.6"/>
		<line class="st8" x1="1329.5" y1="506" x2="1329.5" y2="524.6"/>
		<line class="st8" x1="1324.6" y1="506" x2="1324.6" y2="524.6"/>
		<line class="st8" x1="1319.6" y1="506" x2="1319.6" y2="524.6"/>
		<line class="st8" x1="1314.7" y1="506" x2="1314.7" y2="524.6"/>
		<line class="st8" x1="1309.7" y1="506" x2="1309.7" y2="524.6"/>
	</g>
	<path class="st5" d="M1332.2,572.9h28v-41h-28c-1.7,0-3.1,1.4-3.1,3.1v34.8C1329.1,571.5,1330.5,572.9,1332.2,572.9z"/>
	<line class="st9" x1="1360.1" y1="540.4" x2="1337" y2="540.4"/>
	<line class="st9" x1="1360.1" y1="548.6" x2="1337" y2="548.6"/>
	<line class="st9" x1="1360.1" y1="556.8" x2="1337" y2="556.8"/>
	<line class="st9" x1="1360.1" y1="565" x2="1337" y2="565"/>
</g>
<g>
	<rect x="1270.3" y="528" class="st10" width="43.8" height="54.3"/>
	<path class="st11" d="M1305.6,506.8l0-4.3H1278v4.3c0,0-16,9.6-16,22.9c0,13.3,0,53.7,0,53.7c0,2.7,2.2,4.9,4.9,4.9h49.9
		c2.7,0,4.9-2.2,4.9-4.9c0,0,0-41.3,0-53.7C1321.6,517.4,1305.6,506.8,1305.6,506.8z"/>
	<path class="st12" d="M1305.6,506.8l0-4.3h-10l0,4.3c0,0,16,10.6,16,22.9c0,12.4,0,53.7,0,53.7c0,2.7-2.2,4.9-4.9,4.9h10
		c2.7,0,4.9-2.2,4.9-4.9c0,0,0-41.3,0-53.7C1321.6,517.4,1305.6,506.8,1305.6,506.8z"/>
	<path class="st13" d="M1283.6,502.5L1283.6,502.5c0,2.6-1.2,5-3.2,6.5c-4.7,3.6-12.8,11.2-12.8,20.7v53.7c0,2.7,2.2,4.9,4.9,4.9
		h12.8c-2.7,0-4.9-2.2-4.9-4.9c0,0,0-40.3,0-53.7c0-9.5,8.1-17.1,12.8-20.7c2-1.6,3.2-4,3.2-6.5v0H1283.6z"/>
	<rect x="1262" y="538.7" class="st3" width="59.7" height="33.5"/>
	<path class="st6" d="M1314,566.6h-44.4c-1.1,0-2-0.9-2-2v-18.4c0-1.1,0.9-2,2-2h44.4c1.1,0,2,0.9,2,2v18.4
		C1316,565.7,1315.1,566.6,1314,566.6z"/>
	<g>
		<defs>
			<path id="SVGID_3_" d="M1306.2,502.5h-28.8c-2.2,0-4-1.8-4-4v-10.6c0-2.2,1.8-4,4-4h28.8c2.2,0,4,1.8,4,4v10.6
				C1310.2,500.7,1308.4,502.5,1306.2,502.5z"/>
		</defs>
		<use xlink:href="#SVGID_3_"  style="overflow:visible;fill:#FFFFFF;"/>
		<clipPath id="SVGID_4_">
			<use xlink:href="#SVGID_3_"  style="overflow:visible;"/>
		</clipPath>
		<line class="st14" x1="1274.5" y1="486" x2="1274.5" y2="504.5"/>
		<line class="st14" x1="1279.4" y1="486" x2="1279.4" y2="504.5"/>
		<line class="st14" x1="1284.4" y1="486" x2="1284.4" y2="504.5"/>
		<line class="st14" x1="1289.3" y1="486" x2="1289.3" y2="504.5"/>
		<line class="st14" x1="1294.3" y1="486" x2="1294.3" y2="504.5"/>
		<line class="st14" x1="1299.2" y1="486" x2="1299.2" y2="504.5"/>
		<line class="st14" x1="1304.2" y1="486" x2="1304.2" y2="504.5"/>
		<line class="st14" x1="1309.2" y1="486" x2="1309.2" y2="504.5"/>
	</g>
	<rect x="1278" y="502.5" class="st10" width="27.6" height="2.7"/>
</g>
<g>
	<path class="st15" d="M1015.8,629.5L905,615.8l-12.8,28.6c-3.3,10.9,2.7,22.4,13.6,25.7l98.4,7.7l41.7,156.1h26.5l-20-158.9
		c-1.6-22.7,1.1-34.8-25.9-43.4L1015.8,629.5z"/>
	<path class="st15" d="M957.1,632l-74.3-16.2l-5.1,28.6c-0.9,14.1,22.6,32.9,33.4,36.3l38.4-0.3l26.3,153.6h26.5l-4.5-156.4
		c-1.6-22.7,1.1-34.8-25.9-43.4L957.1,632z"/>
	<path class="st3" d="M867.4,417c0,0,12-8.1,40.4-8.7c18.1-0.3-20.5,27.7-20.5,27.7L867.4,417z"/>
	<path class="st3" d="M999,408.3c0,0,45.8-2.9,53.3,13c7.1,15.1-16.6,23.1-16.6,23.1L999,408.3z"/>
	<path class="st3" d="M1044.8,617.3h-172l24.5-66.9L881.4,440c0-17.5,10.8-31.7,24.2-31.7h103.5c13.4,0,24.2,14.2,24.2,31.7
		l-14.2,106.3L1044.8,617.3z"/>
	<polygon class="st15" points="941.6,408.3 946.3,451.8 989.5,451.8 992.8,408.3 	"/>
	<path class="st16" d="M946.3,442.3c0,0,12.9,9.5,27.8,9.5s17.7-9.5,17.7-9.5L980.3,506L946.3,442.3z"/>
	<polygon class="st5" points="992.8,408.3 980.3,506 1011.7,442.8 1003.7,435 1013.9,424.4 	"/>
	<polygon class="st5" points="941.6,408.3 980.3,506 922.6,442.8 930.7,435 920.5,424.4 	"/>
	<path class="st3" d="M943.1,499.5h-19.8c-3.7,0-6.7-3-6.7-6.7v-4.3h33.3v4.3C949.8,496.5,946.8,499.5,943.1,499.5z"/>
	<path class="st15" d="M1072.8,833.6l12.2,55.1c0,0-1.2,18.3-15.5,18.3c-14.3,0-17.1-13.9-19.5-26.3c-2.4-12.3-3-47.1-3-47.1H1072.8
		z"/>
	<path class="st17" d="M1041.3,846.5c0.2,1.5-3.9,43.4-1.6,43.4c3.6,0,7.3,0,7.3,0s-4.3-38.6-2.8-43.4
		C1045.6,841.7,1041.3,846.5,1041.3,846.5z"/>
	<path class="st18" d="M1082.5,877.2c-4.8-3.3-7-3.1-14.2-1.8s-12.7,5.3-16.5,7.7c-3.8,2.4-1.8-13.9-2.2-27.5
		c-0.4-13.5-2.6-22-2.6-22l-1.3-4.7c0,0-6,3.3-4.9,13.2s4,37.6,3.6,49.4c-0.4,11.9,17.1,17.8,32.2,18.2c15.1,0.4,14.4-3.9,13.6-11.7
		C1089.5,890.7,1087.2,880.5,1082.5,877.2z"/>
	<path class="st15" d="M1002.4,833.6l12.2,55.1c0,0-1.2,18.3-15.5,18.3s-17.1-13.9-19.5-26.3c-2.4-12.3-3-47.1-3-47.1H1002.4z"/>
	<path class="st17" d="M970.9,846.5c0.2,1.5-3.9,43.4-1.6,43.4c3.6,0,7.3,0,7.3,0s-4.3-38.6-2.8-43.4
		C975.2,841.7,970.9,846.5,970.9,846.5z"/>
	<path class="st18" d="M1012.1,877.2c-4.8-3.3-7-3.1-14.2-1.8c-7.2,1.3-12.7,5.3-16.5,7.7c-3.8,2.4-1.8-13.9-2.2-27.5
		c-0.4-13.5-2.6-22-2.6-22l-1.7-4.7c0,0-5.7,3.3-4.5,13.2c1.2,10,4,37.6,3.6,49.4c-0.4,11.9,17.1,17.8,32.2,18.2
		c15.1,0.4,14.4-3.9,13.6-11.7C1019.1,890.7,1016.8,880.5,1012.1,877.2z"/>
	<path class="st3" d="M1060.2,568.2L1060.2,568.2c-10.1,1.5-19.5-5.4-21-15.4L1020.7,432c-1.5-10.1-2.4-23.6,8.1-22.4
		c22.6,2.5,26.3,12.4,29.5,27.1l17.4,110.4C1077.2,557.2,1070.3,566.6,1060.2,568.2z"/>
	<g>
		<path class="st19" d="M1006.2,511.3l10.5,1.2c6.8-0.4,11-11.4,10.3-26.7l-2-30.8c-0.1-10.9-6.5-19.8-15.1-20.8l-0.5-0.1
			c-8.6-1-16.8,6.2-19.4,16.9l-9.4,31.2c-5.7,15.8,0.6,26.2,5.6,26.7l8.8,1"/>
		<path class="st20" d="M1026.3,473.8l-1.2-18.6c-1.1-11.7-6.5-19.6-15.1-20.6l-0.5-0.1c-8.6-1-15.5,6.4-19.3,16.7l-5.4,17.9"/>
		<path d="M992.9,506.2l-2.8-0.3c-2-0.2-3.8,1.2-4,3.2l-0.1,0.5c-0.2,2,1.2,3.8,3.2,4l2.8,0.3c2,0.2,3.8-1.2,4-3.2l0.1-0.5
			C996.3,508.3,994.9,506.5,992.9,506.2z"/>
		<path d="M1011.5,508.3l-2.8-0.3c-2-0.2-3.8,1.2-4,3.2l-0.1,0.5c-0.2,2,1.2,3.8,3.2,4l2.8,0.3c2,0.2,3.8-1.2,4-3.2l0.1-0.5
			C1014.9,510.4,1013.5,508.6,1011.5,508.3z"/>
		<path class="st21" d="M991.6,404.8L991.6,404.8c7.6-1.2,15.5,10.5,17.4,21.4l0.4,2.9l0.8,5.5"/>
		<path class="st21" d="M943.1,407L943.1,407c-7.7-2-24.3,12.7-22.6,41.2c1.3,22.2,6.3,36.3,6.3,36.3"/>
		
			<ellipse transform="matrix(0.2499 -0.9683 0.9683 0.2499 223.7401 1266.7313)" class="st5" cx="929.4" cy="489" rx="12.9" ry="12.9"/>
		<ellipse transform="matrix(0.2499 -0.9683 0.9683 0.2499 223.7401 1266.7313)" cx="929.4" cy="489" rx="8.1" ry="8.1"/>
		
			<ellipse transform="matrix(0.2499 -0.9683 0.9683 0.2499 223.7401 1266.7313)" class="st4" cx="929.4" cy="489" rx="5.1" ry="5.1"/>
	</g>
	<path class="st3" d="M1070.8,710l-7.1-62h-0.1c-0.9-15-8.3-31-34.3-31c-9,0-15,0-15,0H872.8c0,0-4.4,72,53.3,72
		c13.5,0.5,18.2,21,18.2,21H1070.8z"/>
	<path class="st3" d="M1064.6,535.5L1064.6,535.5c8.7,5.3,11.4,16.7,6.1,25.4l-27.7,51.5l-31.5-19.3l27.7-51.5
		C1044.6,532.9,1055.9,530.1,1064.6,535.5z"/>
	<polygon class="st16" points="1004.9,711 1006.9,667.7 1026.2,711 	"/>
	<polygon class="st16" points="1071.9,735.6 945.5,735.6 944.2,710 1070.8,710 	"/>
</g>
<g>
	<path class="st22" d="M976.8,568.4c0,0,9.2,0.3,11,6.3s-6.1,7.2-6.1,7.2L976.8,568.4z"/>
	<g>
		<path class="st0" d="M989.6,591.2c0,0-6.2-11-11.4-15.7c-5.3-4.8-11.5,2.6-6.5,7.1s16.7,9.9,16.7,9.9
			C989.6,593.2,990.4,592.3,989.6,591.2z"/>
		<path class="st2" d="M917.6,526.9L917.6,526.9c0.9-1,0.8-2.5-0.1-3.4l-5.8-5.3c-1-0.9-2.5-0.8-3.4,0.2l0,0c-0.9,1-0.8,2.5,0.2,3.4
			l5.8,5.3C915.2,527.9,916.7,527.8,917.6,526.9z"/>
		
			<rect x="939.3" y="509.3" transform="matrix(-0.673 0.7396 -0.7396 -0.673 1986.9968 223.5659)" class="st0" width="9.7" height="83.4"/>
		<polyline class="st23" points="922.1,524.4 913.5,533.8 938.3,556.4 		"/>
		<path class="st0" d="M989,590.2c0.4,0.7,0.6,1.1,0.6,1.1c0.8,1.1,0,2-1.2,1.3c0,0-0.4-0.2-1.1-0.5L989,590.2z"/>
	</g>
	<path class="st15" d="M946,554.2c0,0,13.5-1.6,19.9,5.6s9.7,10.9,9.7,10.9l-2.8,4.7l0,0c1.2,1.8,0.7,4.3-1.1,5.5l-0.1,0.1
		c-1.8,1.2-4.3,0.7-5.5-1.1l-0.1-0.1l0,0c0.1,2.3-1.4,4.3-3.7,4.9l-0.6,0.2c-2.1,0.5-4.2-0.5-5.1-2.5l0,0l0,0
		c0.7,1.2,0.3,5.5-4.6,5.1c-2.3-0.2-5.1-0.3-9.6-1.6l0,0l-10.3-4.5L946,554.2z"/>
	<path class="st15" d="M924.4,558.8c7.3-0.7,18.4-7.4,20.9-9.4c2.4-2,6.1-0.8,11.2,0.7c5.7,1.6,10,2.5,12.8,5.1
		c4,3.7,12.9,19,14.1,21c2.8,4.6-4.1,7.9-8.4,3.4c-3.7-3.9-11.6-16.9-11.6-16.9l-10.2-3c0,0-10.1,7.1-8.6,11.1c1.5,4,2.6,4,2.6,4
		l0.8,9.5c0,0-11.7,2.1-18.7,0.7c-8.4-1.7-23.4-0.5-23.4-0.5l6.2-21.9C912.1,562.5,918.8,559.4,924.4,558.8z"/>
</g>
<path class="st3" d="M805.3,535L805.3,535c3.4-9.6,13.9-14.7,23.5-11.4l98,34.1l-12.1,34.8l-98-34.1
	C807.1,555.1,802,544.6,805.3,535z"/>
<path class="st24" d="M1390.7,623.7h-824c-4,0-7.3-3.3-7.3-7.3v-20.7c0-4,3.3-7.3,7.3-7.3h824c4,0,7.3,3.3,7.3,7.3v20.7
	C1398,620.4,1394.7,623.7,1390.7,623.7z"/>
<path class="st24" d="M696.6,623H626h-26v286.1c0,2.7,2.3,4.9,5.1,4.9h15.6c2.7,0,5.3-2.2,5.3-4.9V694h71v215.1
	c0,2.7,1.8,4.9,4.5,4.9h15.6c2.7,0,4.9-2.2,4.9-4.9V623H696.6z"/>
<rect x="600.1" y="623.4" class="st25" width="121.9" height="16.7"/>
<path class="st25" d="M1315.1,623H1244h-25v286.1c0,2.7,1.8,4.9,4.6,4.9h15.6c2.7,0,4.8-2.2,4.8-4.9V694h71v215.1
	c0,2.7,2.3,4.9,5,4.9h15.6c2.7,0,5.4-2.2,5.4-4.9V623H1315.1z"/>
<rect x="1218.6" y="623.4" class="st26" width="121.9" height="16.7"/>
<path class="st3" d="M813.5,553.3L813.5,553.3c-9-4.9-12.3-16.1-7.4-25L864.3,421c4.9-9,16.1-12.3,25-7.4v0c9,4.9,12.3,16.1,7.4,25
	l-58.2,107.3C833.7,554.8,822.5,558.2,813.5,553.3z"/>
<path class="st15" d="M991.8,402.9c0,13.4-10.9,24.5-24.3,24.5h0h-0.2c-13.4,0-24.5-11.1-24.5-24.5v-24.6h49V402.9z"/>
<path class="st22" d="M942.8,397.6c8.4,4.3,16.6,8.2,23.9,8.2c7.6,0,16.4-1.4,25.1-5.8v-16h-49V397.6z"/>
<circle class="st27" cx="1022.3" cy="353.8" r="32.3"/>
<path class="st27" d="M1055.1,276.3c-0.3,27.9-3.1,46.4-29.3,81.7c-27.4,36.8-97,20.1-118.5-0.8s-37.1-98.2-9.4-140.1l136.7-4.6
	C1034.6,212.6,1055.5,236.9,1055.1,276.3z"/>
<path class="st15" d="M973.2,395.2c28,0,64-40,64-67v-91.8H902v91.8C902,356.6,926.4,395.2,973.2,395.2z"/>
<circle class="st15" cx="1039.9" cy="315.8" r="17.7"/>
<path class="st28" d="M1043.4,318.3c0-3.5-2.8-6.3-6.3-6.3c-1,0-1.9,0.2-2.7,0.6c1.1-1.8,3.1-3.1,5.4-3.1c3.5,0,6.3,2.8,6.3,6.3
	c0,2.5-1.5,4.7-3.6,5.7C1043.1,320.6,1043.4,319.5,1043.4,318.3z"/>
<path class="st27" d="M929.5,252.7c0,0,30.3,17.7,55.3,22.9c26.7,5.6,50.8,1.2,50.8,1.2s27.2-24,4.8-57.4
	C1006,168.2,930,181,903,210.4c-23.7,25.8-3.7,71.3-3.7,71.3s5.4-0.5,13.9-10.1C923.6,259.9,929.5,252.7,929.5,252.7z"/>
<circle class="st15" cx="894" cy="315.8" r="17.7"/>
<path class="st28" d="M890.4,318.3c0-3.5,2.8-6.3,6.3-6.3c1,0,1.9,0.2,2.7,0.6c-1.1-1.8-3.1-3.1-5.4-3.1c-3.5,0-6.3,2.8-6.3,6.3
	c0,2.5,1.5,4.7,3.6,5.7C890.8,320.6,890.4,319.5,890.4,318.3z"/>
<path class="st29" d="M985.1,321.5h30.5c4.6,0,8.3-3.7,8.3-8.3v-13.5c0-4.6-3.7-8.3-8.3-8.3h-30.5c-4.6,0-8.3,3.7-8.3,8.3v13.5
	C976.8,317.8,980.5,321.5,985.1,321.5z"/>
<path class="st29" d="M923.5,321.5H954c4.6,0,8.3-3.7,8.3-8.3v-13.5c0-4.6-3.7-8.3-8.3-8.3h-30.5c-4.6,0-8.3,3.7-8.3,8.3v13.5
	C915.1,317.8,918.9,321.5,923.5,321.5z"/>
<path class="st29" d="M976.8,306.4c0,0.4-3-3.2-7.5-3.2c-4.5,0-7,3.4-7,3.4"/>
<line class="st30" x1="1039.9" y1="298.1" x2="1024" y2="302.9"/>
<line class="st30" x1="914.9" y1="302.9" x2="899" y2="298.1"/>
<path class="st31" d="M986.9,350.9c0,9-7.3,15.3-16.3,15.3l0,0c-9,0-16.3-6.3-16.3-15.3"/>
<path class="st28" d="M964.6,337.7c0,0.6,0.7,1.1,1.4,1.1h7.9c2.2,0,3.3-2.5,2-4.2l-9.2-11c-0.7-0.8-2.1-0.3-2.1,0.7"/>
<ellipse class="st0" cx="999.7" cy="306.6" rx="4.7" ry="8.3"/>
<ellipse class="st0" cx="940.4" cy="306.6" rx="4.7" ry="8.3"/>
</svg>
