<svg width="1244" height="198" viewBox="0 0 1244 198" fill="none" xmlns="http://www.w3.org/2000/svg">
<path fill-rule="evenodd" clip-rule="evenodd" d="M0 56.5714H51.8333C103.667 56.5714 207.333 56.5714 311 70.7143C414.667 84.8571 518.333 113.143 622 132C725.667 150.857 829.333 160.286 933 136.714C1036.67 113.143 1140.33 56.5714 1192.17 28.2857L1244 0V198H1192.17C1140.33 198 1036.67 198 933 198C829.333 198 725.667 198 622 198C518.333 198 414.667 198 311 198C207.333 198 103.667 198 51.8333 198H0V56.5714Z" fill="url(#paint0_linear)"/>
<defs>
<linearGradient id="paint0_linear" x1="622" y1="0" x2="622" y2="198" gradientUnits="userSpaceOnUse">
<stop stop-color="#39CADE"/>
<stop offset="1" stop-color="#0EA8A8"/>
</linearGradient>
</defs>
</svg>
