<?xml version="1.0" encoding="utf-8"?>
<!-- Generator: Adobe Illustrator 23.0.2, SVG Export Plug-In . SVG Version: 6.00 Build 0)  -->
<svg version="1.1" id="Layer_1" xmlns="http://www.w3.org/2000/svg" xmlns:xlink="http://www.w3.org/1999/xlink" x="0px" y="0px"
	 viewBox="0 0 60 60" style="enable-background:new 0 0 60 60;" xml:space="preserve">
<style type="text/css">
	.st0{fill:rgb(115, 209, 122);stroke:rgb(115, 209, 122);stroke-miterlimit:10;}
</style>
<g>
	<path class="st0" d="M15.9,29c-0.2,0-0.4-0.1-0.6-0.2c-0.3-0.3-0.3-0.9,0-1.2c0.7-0.7,1.5-0.7,2-0.7c0.4,0,0.6,0,0.7-0.2
		c0.2-0.2,0.2-0.3,0.2-0.7c0-0.5,0-1.3,0.7-2c0.7-0.7,1.5-0.7,2-0.7c0.4,0,0.6,0,0.7-0.2c0.2-0.2,0.2-0.3,0.2-0.7c0-0.5,0-1.3,0.7-2
		c0.7-0.7,1.5-0.7,2-0.7c0.4,0,0.6,0,0.7-0.2c0.2-0.2,0.2-0.3,0.2-0.7c0-0.5,0-1.3,0.7-2c0.7-0.7,1.5-0.7,2-0.7c0.4,0,0.6,0,0.7-0.2
		c0.3-0.3,0.9-0.3,1.2,0c0.3,0.3,0.3,0.9,0,1.2c-0.7,0.7-1.5,0.7-2,0.7c-0.4,0-0.6,0-0.7,0.2c-0.2,0.2-0.2,0.3-0.2,0.7
		c0,0.5,0,1.3-0.7,2c-0.7,0.7-1.5,0.7-2,0.7c-0.4,0-0.6,0-0.7,0.2c-0.2,0.2-0.2,0.3-0.2,0.7c0,0.5,0,1.3-0.7,2
		c-0.7,0.7-1.5,0.7-2,0.7c-0.4,0-0.6,0-0.7,0.2s-0.2,0.3-0.2,0.7c0,0.5,0,1.3-0.7,2c-0.7,0.7-1.5,0.7-2,0.7c-0.4,0-0.6,0-0.7,0.2
		C16.4,28.9,16.1,29,15.9,29z"/>
</g>
<g>
	<path class="st0" d="M49.1,59.1c-2.6,0-5.1-1-7.1-2.9L7.6,21.7c-0.3-0.3-0.3-0.9,0-1.2l13-13c0.3-0.3,0.9-0.3,1.2,0L56.2,42
		c1.9,1.9,2.9,4.4,2.9,7.1s-1,5.2-2.9,7.1l0,0C54.2,58.1,51.7,59.1,49.1,59.1z M9.4,21.1L43.2,55c3.2,3.2,8.5,3.2,11.8,0
		c3.2-3.2,3.2-8.5,0-11.8L21.1,9.4L9.4,21.1z M55.6,55.6L55.6,55.6L55.6,55.6z"/>
</g>
<g>
	<path class="st0" d="M6.2,23.9L6.2,23.9c-0.2,0-0.4-0.1-0.6-0.2l-4.5-4.5c-0.3-0.3-0.3-0.9,0-1.2L18,1.1c0.3-0.3,0.9-0.3,1.2,0
		l4.5,4.5c0.2,0.2,0.2,0.4,0.2,0.6s-0.1,0.4-0.2,0.6L6.8,23.7C6.7,23.8,6.4,23.9,6.2,23.9z M2.9,18.6l3.3,3.3L21.9,6.2l-3.3-3.3
		L2.9,18.6z"/>
</g>
<g>
	<path class="st0" d="M11.2,52c-3.5,0-6.3-2.8-6.3-6.3c0-3.1,4.8-13.1,5.3-14.3c0.1-0.3,0.4-0.5,0.8-0.5c0.3,0,0.6,0.2,0.8,0.5
		c0.6,1.1,5.8,11.2,5.8,14.3C17.5,49.1,14.7,52,11.2,52z M11,33.7c-1.7,3.6-4.4,10-4.4,12c0,2.5,2.1,4.6,4.6,4.6s4.6-2.1,4.6-4.6
		C15.8,43.9,13.2,38,11,33.7z"/>
</g>
</svg>
