<?xml version="1.0" encoding="utf-8"?>
<!-- Generator: Adobe Illustrator 23.0.2, SVG Export Plug-In . SVG Version: 6.00 Build 0)  -->
<svg version="1.1" id="Layer_1" xmlns="http://www.w3.org/2000/svg" xmlns:xlink="http://www.w3.org/1999/xlink" x="0px" y="0px"
	 viewBox="0 0 60 60" style="enable-background:new 0 0 60 60;" xml:space="preserve">
<style type="text/css">
	.st0{fill:#0072BC;}
</style>
<g>
	<g>
		<path class="st0" d="M83.4,35.8c-6.4,0-11.7-5.2-11.7-11.7V8.6c0-3.6,2.9-6.4,6.5-6.4c0.5,0,0.9,0.4,0.9,0.9S78.7,4,78.2,4
			c-2.6,0-4.7,2.1-4.7,4.7v15.6c0,5.5,4.4,9.9,9.9,9.9s9.9-4.4,9.9-9.9V8.6c0-2.6-2.1-4.7-4.7-4.7c-0.5,0-0.9-0.4-0.9-0.9
			s0.4-0.9,0.9-0.9C92.2,2.1,95,5,95,8.5v15.6C95.1,30.6,89.8,35.8,83.4,35.8z"/>
	</g>
	<g>
		<path class="st0" d="M78.5,5.9c-0.5,0-0.9-0.4-0.9-0.9V1.4c0-0.5,0.4-0.9,0.9-0.9s0.9,0.4,0.9,0.9V5C79.4,5.5,79,5.9,78.5,5.9z"/>
	</g>
	<g>
		<path class="st0" d="M88.3,5.9c-0.5,0-0.9-0.4-0.9-0.9V1.4c0-0.5,0.4-0.9,0.9-0.9s0.9,0.4,0.9,0.9V5C89.2,5.5,88.8,5.9,88.3,5.9z"
			/>
	</g>
	<g>
		<path class="st0" d="M93.3,59.5c-6,0-10.8-4.8-10.8-10.8V34.9c0-0.5,0.4-0.9,0.9-0.9s0.9,0.4,0.9,0.9v13.8c0,5,4.1,9,9,9
			c5,0,9-4.1,9-9V12.6c0-6,4.8-10.8,10.8-10.8s10.8,4.8,10.8,10.8v21c0,0.5-0.4,0.9-0.9,0.9s-0.9-0.4-0.9-0.9v-21c0-5-4.1-9-9-9
			c-5,0-9,4.1-9,9v36.1C104.1,54.7,99.3,59.5,93.3,59.5z"/>
	</g>
	<g>
		<path class="st0" d="M123.1,50.9c-4.8,0-8.7-3.9-8.7-8.7s3.9-8.7,8.7-8.7c4.8,0,8.7,3.9,8.7,8.7S127.9,50.9,123.1,50.9z
			 M123.1,35.2c-3.8,0-6.9,3.1-6.9,6.9s3.1,6.9,6.9,6.9s6.9-3.1,6.9-6.9C130,38.4,126.9,35.2,123.1,35.2z"/>
	</g>
	<g>
		<path class="st0" d="M123.1,46.8c-2.6,0-4.6-2.1-4.6-4.6c0-0.5,0.4-0.9,0.9-0.9s0.9,0.4,0.9,0.9c0,1.6,1.3,2.9,2.9,2.9
			s2.9-1.3,2.9-2.9c0-1.6-1.3-2.9-2.9-2.9c-0.5,0-0.9-0.4-0.9-0.9s0.4-0.9,0.9-0.9c2.6,0,4.6,2.1,4.6,4.6
			C127.7,44.7,125.6,46.8,123.1,46.8z"/>
	</g>
</g>
<g>
	<g>
		<path class="st0" d="M22.7,46.3L22.7,46.3c-0.3,0.3-0.6,0.5-0.8,0.8c-0.7,0.6-1.3,1.3-1.9,2c-0.3,0.4-0.7,0.8-1,0.8
			c-0.2,0-0.5-0.2-0.7-0.6c-0.3-0.4-0.6-0.6-1-0.7c-0.4,0-0.8,0.1-1.2,0.5c-0.6,0.6-0.6,1.4,0.1,2.1c0.3,0.4,0.7,0.7,1.1,1.1
			c0.3,0.3,0.5,0.5,0.8,0.8c0.2,0.1,0.5,0.5,0.9,0.5h0.1c0.6,0,1-0.3,1.1-0.5c0.7-0.7,1.4-1.3,2-2c0.9-0.9,1.8-1.8,2.7-2.7
			c0.4-0.4,0.6-0.8,0.6-1.2s-0.2-0.7-0.5-1C24.2,45.5,23.5,45.6,22.7,46.3z"/>
		<path class="st0" d="M50.2,58.3V14.2V14c0-0.2,0-0.4,0.1-0.6l0.1-0.1v-0.1C50.1,12,49.1,12,48.5,12h-0.3c-0.9,0-1.8,0-2.7,0
			c-0.3,0-0.4,0-0.4,0s-0.1-0.1,0-0.4c0-0.9,0-1.8,0-2.7c0-0.4,0-0.8,0-1.2c0-0.6,0-1.6-1.2-1.9h-0.1h-0.1c-2.2,0.1-4.5,0.2-6.8,0
			c-0.7-2.5-2.1-4.2-4.4-5c-1.8-0.6-3.9-0.5-5.5,0.4c-1.2,0.6-2.7,2-3.4,4.6c-2.3,0.2-4.7,0.1-6.8,0h-0.1h-0.1
			c-1.3,0.4-1.2,1.5-1.2,2.2c0,0.2,0,0.4,0,0.6c-0.1,0.5,0,1,0,1.5c0.1,0.8,0.1,1.5-0.2,1.8s-1,0.2-1.8,0.1
			c-0.5-0.1-0.9-0.1-1.4-0.1c-0.1,0-0.2,0-0.3,0c-0.5,0-1.4,0-1.7,1.1v0.2l0.1,0.2c0.1,0.2,0.1,0.4,0.1,0.6v44v0.2
			c0,0.2,0,0.4,0,0.6v0.1V59c0.1,0.5,0.4,0.8,0.9,0.9h0.1h0.1c0.2-0.1,0.4-0.1,0.6-0.1h36.3h0.2c0.2,0,0.4,0,0.6,0.1h0.1h0.1
			c0.5-0.1,0.8-0.4,0.9-0.9v-0.1v-0.1C50.2,58.7,50.2,58.5,50.2,58.3z M42.1,8.6c0,0,0.1,0.1,0.1,0.6c-0.1,1.2-0.1,2.5,0,3.7
			c0,0.3,0,0.7,0,1c0,0-0.1,0-0.2,0c-0.1,0-0.2,0-0.2,0h-23c-0.1,0-0.2,0-0.2,0s-0.1,0-0.2,0c0-0.4,0-0.9,0-1.3c0-1.1,0-2.3,0-3.4
			c0-0.4,0.1-0.6,0.1-0.6s0.2-0.1,0.7-0.1l0,0c0.9,0,1.8,0,2.7,0c0.8,0,1.6,0,2.5,0c1.4,0,2.1-0.6,2.2-1.9c0.2-2,1.8-3.4,3.8-3.4
			s3.6,1.5,3.8,3.4c0.1,1.4,0.8,2,2.2,1.9c0.8,0,1.6,0,2.4,0c0.9,0,1.8,0,2.7,0C41.9,8.5,42,8.6,42.1,8.6z M13,15.6
			c0-0.6,0.1-0.7,0.1-0.8c0,0,0.1-0.1,0.3-0.1c0.1,0,0.2,0,0.3,0c0.4,0.1,0.7,0,1.1,0c0.2,0,0.4,0,0.5,0h0.1l0,0
			c0,0.5,0.1,1,0.4,1.3c0.5,0.5,1.2,0.5,1.9,0.5c8.3,0,16.7,0,25,0c0.7,0,1.3,0,1.8-0.5c0.3-0.3,0.4-0.7,0.4-1.3l0,0H45
			c1.1-0.1,1.9-0.2,2.1,0c0.2,0.2,0.2,1,0.2,2v24.2c0,5.2,0,10.3,0,15.5c0,0.5-0.1,0.6-0.1,0.7c-0.1,0.1-0.2,0.1-0.7,0.1
			c-10.9,0-22,0-32.9,0c-0.4,0-0.6,0-0.7-0.1c0,0-0.1-0.2-0.1-0.7C13,43,13,29.2,13,15.6z"/>
		<path class="st0" d="M23.9,38.4c-0.4-0.4-0.9-0.9-1.3-1.3C22.5,37,22.5,37,22.4,37c0,0,0.1-0.1,0.2-0.2c0.7-0.6,1.4-1.3,2-2
			l0.2-0.2c0.4-0.4,0.5-0.8,0.5-1.2s-0.2-0.7-0.5-1c-0.6-0.6-1.4-0.5-2,0.2l-0.6,0.5c-0.5,0.5-1.1,1.1-1.6,1.7
			c-0.1,0.1-0.2,0.2-0.2,0.2s-0.1-0.1-0.2-0.2c-0.6-0.6-1.2-1.2-1.8-1.8L18,32.6c-0.9-0.9-1.7-0.4-2-0.2c-0.3,0.3-0.5,0.6-0.5,1
			s0.2,0.8,0.5,1.2l0.2,0.2c0.6,0.7,1.3,1.3,2,2c0.1,0.1,0.2,0.2,0.2,0.2s-0.1,0.1-0.2,0.2c-0.6,0.5-1.1,1-1.6,1.6L16,39.4
			c-0.7,0.7-0.7,1.4-0.2,2c0.4,0.4,0.7,0.5,1,0.5c0.4,0,0.8-0.2,1.2-0.5c0.5-0.5,0.9-0.9,1.4-1.4l0.7-0.7c0.1-0.1,0.2-0.2,0.3-0.3
			c0.1,0.1,0.1,0.1,0.2,0.2l0.6,0.6c0.4,0.4,0.8,0.8,1.2,1.2c0.2,0.2,0.8,0.8,1.4,0.8c0.3,0,0.6-0.1,0.9-0.4c0.3-0.3,0.5-0.6,0.5-1
			c0-0.6-0.4-1-0.8-1.4C24.3,38.9,24.1,38.7,23.9,38.4z"/>
		<path class="st0" d="M29.9,25.5c4.6,0,9.2,0,13.7,0c1.1,0,1.5-0.7,1.6-1.1c0.1-0.5,0.1-0.9-0.2-1.2c-0.2-0.3-0.5-0.5-1-0.5
			c-5.2-0.1-10-0.1-14.7,0h-0.1c-0.8,0.2-1.1,0.9-0.9,1.7C28.4,24.9,28.8,25.5,29.9,25.5z"/>
		<path class="st0" d="M29,51.1l0.1,0.1h0.1c2.6,0.2,5.2,0.1,7.7,0.1c1.3,0,2.6,0,3.8,0c0.3,0,0.5,0,0.8,0s0.6,0,1,0
			c0.6,0,1.2,0,1.8-0.2l0.1-0.1c0.4-0.3,0.7-0.6,0.7-1s-0.1-0.8-0.5-1.1l-0.1-0.1c0,0-0.1,0-0.1-0.1c-0.1-0.1-0.3-0.3-0.6-0.3l0,0
			c-4.9,0-9.8,0-14.6,0.1h-0.1L29,48.6c-0.2,0.1-0.9,0.5-0.9,1.2C28.2,50.6,28.8,51,29,51.1z"/>
		<path class="st0" d="M15.5,29c0.3,0.3,0.8,0.5,1.3,0.5c2.4,0,4.8,0,7.2,0c1.2,0,1.8-0.7,1.8-1.9c0-2.4,0-4.8,0-7.2
			c0-1.1-0.6-1.8-1.7-1.8l0,0c-2.4,0-4.9,0-7.3,0c-0.6,0-1,0.2-1.3,0.5s-0.5,0.7-0.4,1.3c0,0.8,0,1.6,0,2.4V24v1.2
			c0,0.8,0,1.6,0,2.4C15,28.2,15.2,28.7,15.5,29z M23,26.2c0,0.2,0,0.3,0,0.3s-0.1,0-0.3,0l0,0c-0.9,0-1.7,0-2.6,0
			c-0.4,0-0.9,0-1.3,0H18v-5c1.7,0,3.4,0,5,0c0,0.5,0,0.9,0,1.4C22.9,24,22.9,25.1,23,26.2z"/>
		<path class="st0" d="M43.3,35.5H30.2c-0.5,0-1.9,0-1.9,1.4c0,0.4,0.1,0.8,0.4,1c0.4,0.4,1,0.5,1.5,0.5c2.2,0,4.4,0,6.7,0h1.6
			c1.6,0,3.3,0,4.9,0c0,0,0,0,0.1,0c1.2,0,1.8-0.5,1.9-1.4c0-0.4-0.1-0.8-0.4-1C44.4,35.5,43.8,35.5,43.3,35.5z"/>
	</g>
</g>
</svg>
