<?xml version="1.0" encoding="utf-8"?>
<!-- Generator: Adobe Illustrator 23.0.2, SVG Export Plug-In . SVG Version: 6.00 Build 0)  -->
<svg version="1.1" id="Layer_1" xmlns="http://www.w3.org/2000/svg" xmlns:xlink="http://www.w3.org/1999/xlink" x="0px" y="0px"
	 viewBox="0 0 60 60" style="enable-background:new 0 0 60 60;" xml:space="preserve">
<style type="text/css">
	.st0{fill:#FFFFFF;}
</style>
<g>
	<g>
		<path class="st0" d="M21.7,46.3L21.7,46.3c-0.3,0.3-0.6,0.5-0.8,0.8c-0.7,0.6-1.3,1.3-1.9,2c-0.3,0.4-0.7,0.8-1,0.8
			c-0.2,0-0.5-0.2-0.7-0.6c-0.3-0.4-0.6-0.6-1-0.7c-0.4,0-0.8,0.1-1.2,0.5c-0.6,0.6-0.6,1.4,0.1,2.1c0.3,0.4,0.7,0.7,1.1,1.1
			c0.3,0.3,0.5,0.5,0.8,0.8c0.2,0.1,0.5,0.5,0.9,0.5h0.1c0.6,0,1-0.3,1.1-0.5c0.7-0.7,1.4-1.3,2-2c0.9-0.9,1.8-1.8,2.7-2.7
			c0.4-0.4,0.6-0.8,0.6-1.2s-0.2-0.7-0.5-1C23.2,45.5,22.5,45.6,21.7,46.3z"/>
		<path class="st0" d="M49.2,58.3V14.2V14c0-0.2,0-0.4,0.1-0.6l0.1-0.1v-0.1C49.1,12,48.1,12,47.5,12h-0.3c-0.9,0-1.8,0-2.7,0
			c-0.3,0-0.4,0-0.4,0s-0.1-0.1,0-0.4c0-0.9,0-1.8,0-2.7c0-0.4,0-0.8,0-1.2c0-0.6,0-1.6-1.2-1.9h-0.1h-0.1c-2.2,0.1-4.5,0.2-6.8,0
			c-0.7-2.5-2.1-4.2-4.4-5c-1.8-0.6-3.9-0.5-5.5,0.4c-1.2,0.6-2.7,2-3.4,4.6c-2.3,0.2-4.7,0.1-6.8,0h-0.1h-0.1
			c-1.3,0.4-1.2,1.5-1.2,2.2c0,0.2,0,0.4,0,0.6c-0.1,0.5,0,1,0,1.5c0.1,0.8,0.1,1.5-0.2,1.8s-1,0.2-1.8,0.1
			c-0.5-0.1-0.9-0.1-1.4-0.1c-0.1,0-0.2,0-0.3,0c-0.5,0-1.4,0-1.7,1.1v0.2l0.1,0.2c0.1,0.2,0.1,0.4,0.1,0.6v44v0.2
			c0,0.2,0,0.4,0,0.6v0.1V59c0.1,0.5,0.4,0.8,0.9,0.9h0.1h0.1c0.2-0.1,0.4-0.1,0.6-0.1h36.3h0.2c0.2,0,0.4,0,0.6,0.1h0.1h0.1
			c0.5-0.1,0.8-0.4,0.9-0.9v-0.1v-0.1C49.2,58.7,49.2,58.5,49.2,58.3z M41.1,8.6c0,0,0.1,0.1,0.1,0.6c-0.1,1.2-0.1,2.5,0,3.7
			c0,0.3,0,0.7,0,1c0,0-0.1,0-0.2,0c-0.1,0-0.2,0-0.2,0h-23c-0.1,0-0.2,0-0.2,0s-0.1,0-0.2,0c0-0.4,0-0.9,0-1.3c0-1.1,0-2.3,0-3.4
			c0-0.4,0.1-0.6,0.1-0.6s0.2-0.1,0.7-0.1l0,0c0.9,0,1.8,0,2.7,0c0.8,0,1.6,0,2.5,0c1.4,0,2.1-0.6,2.2-1.9c0.2-2,1.8-3.4,3.8-3.4
			s3.6,1.5,3.8,3.4c0.1,1.4,0.8,2,2.2,1.9c0.8,0,1.6,0,2.4,0c0.9,0,1.8,0,2.7,0C40.9,8.5,41,8.6,41.1,8.6z M12,15.6
			c0-0.6,0.1-0.7,0.1-0.8c0,0,0.1-0.1,0.3-0.1c0.1,0,0.2,0,0.3,0c0.4,0.1,0.7,0,1.1,0c0.2,0,0.4,0,0.5,0h0.1l0,0
			c0,0.5,0.1,1,0.4,1.3c0.5,0.5,1.2,0.5,1.9,0.5c8.3,0,16.7,0,25,0c0.7,0,1.3,0,1.8-0.5c0.3-0.3,0.4-0.7,0.4-1.3l0,0H44
			c1.1-0.1,1.9-0.2,2.1,0c0.2,0.2,0.2,1,0.2,2v24.2c0,5.2,0,10.3,0,15.5c0,0.5-0.1,0.6-0.1,0.7c-0.1,0.1-0.2,0.1-0.7,0.1
			c-10.9,0-22,0-32.9,0c-0.4,0-0.6,0-0.7-0.1c0,0-0.1-0.2-0.1-0.7C12,43,12,29.2,12,15.6z"/>
		<path class="st0" d="M22.9,38.4c-0.4-0.4-0.9-0.9-1.3-1.3C21.5,37,21.5,37,21.4,37c0,0,0.1-0.1,0.2-0.2c0.7-0.6,1.4-1.3,2-2
			l0.2-0.2c0.4-0.4,0.5-0.8,0.5-1.2s-0.2-0.7-0.5-1c-0.6-0.6-1.4-0.5-2,0.2l-0.6,0.5c-0.5,0.5-1.1,1.1-1.6,1.7
			c-0.1,0.1-0.2,0.2-0.2,0.2s-0.1-0.1-0.2-0.2c-0.6-0.6-1.2-1.2-1.8-1.8L17,32.6c-0.9-0.9-1.7-0.4-2-0.2c-0.3,0.3-0.5,0.6-0.5,1
			s0.2,0.8,0.5,1.2l0.2,0.2c0.6,0.7,1.3,1.3,2,2c0.1,0.1,0.2,0.2,0.2,0.2s-0.1,0.1-0.2,0.2c-0.6,0.5-1.1,1-1.6,1.6L15,39.4
			c-0.7,0.7-0.7,1.4-0.2,2c0.4,0.4,0.7,0.5,1,0.5c0.4,0,0.8-0.2,1.2-0.5c0.5-0.5,0.9-0.9,1.4-1.4l0.7-0.7c0.1-0.1,0.2-0.2,0.3-0.3
			c0.1,0.1,0.1,0.1,0.2,0.2l0.6,0.6c0.4,0.4,0.8,0.8,1.2,1.2c0.2,0.2,0.8,0.8,1.4,0.8c0.3,0,0.6-0.1,0.9-0.4c0.3-0.3,0.5-0.6,0.5-1
			c0-0.6-0.4-1-0.8-1.4C23.3,38.9,23.1,38.7,22.9,38.4z"/>
		<path class="st0" d="M28.9,25.5c4.6,0,9.2,0,13.7,0c1.1,0,1.5-0.7,1.6-1.1c0.1-0.5,0.1-0.9-0.2-1.2c-0.2-0.3-0.5-0.5-1-0.5
			c-5.2-0.1-10-0.1-14.7,0h-0.1c-0.8,0.2-1.1,0.9-0.9,1.7C27.4,24.9,27.8,25.5,28.9,25.5z"/>
		<path class="st0" d="M28,51.1l0.1,0.1h0.1c2.6,0.2,5.2,0.1,7.7,0.1c1.3,0,2.6,0,3.8,0c0.3,0,0.5,0,0.8,0s0.6,0,1,0
			c0.6,0,1.2,0,1.8-0.2l0.1-0.1c0.4-0.3,0.7-0.6,0.7-1s-0.1-0.8-0.5-1.1l-0.1-0.1c0,0-0.1,0-0.1-0.1c-0.1-0.1-0.3-0.3-0.6-0.3l0,0
			c-4.9,0-9.8,0-14.6,0.1h-0.1L28,48.6c-0.2,0.1-0.9,0.5-0.9,1.2C27.2,50.6,27.8,51,28,51.1z"/>
		<path class="st0" d="M14.5,29c0.3,0.3,0.8,0.5,1.3,0.5c2.4,0,4.8,0,7.2,0c1.2,0,1.8-0.7,1.8-1.9c0-2.4,0-4.8,0-7.2
			c0-1.1-0.6-1.8-1.7-1.8l0,0c-2.4,0-4.9,0-7.3,0c-0.6,0-1,0.2-1.3,0.5s-0.5,0.7-0.4,1.3c0,0.8,0,1.6,0,2.4V24v1.2
			c0,0.8,0,1.6,0,2.4C14,28.2,14.2,28.7,14.5,29z M22,26.2c0,0.2,0,0.3,0,0.3s-0.1,0-0.3,0l0,0c-0.9,0-1.7,0-2.6,0
			c-0.4,0-0.9,0-1.3,0H17v-5c1.7,0,3.4,0,5,0c0,0.5,0,0.9,0,1.4C21.9,24,21.9,25.1,22,26.2z"/>
		<path class="st0" d="M42.3,35.5H29.2c-0.5,0-1.9,0-1.9,1.4c0,0.4,0.1,0.8,0.4,1c0.4,0.4,1,0.5,1.5,0.5c2.2,0,4.4,0,6.7,0h1.6
			c1.6,0,3.3,0,4.9,0c0,0,0,0,0.1,0c1.2,0,1.8-0.5,1.9-1.4c0-0.4-0.1-0.8-0.4-1C43.4,35.5,42.8,35.5,42.3,35.5z"/>
	</g>
</g>
</svg>
