<?xml version="1.0" encoding="utf-8"?>
<!-- Generator: Adobe Illustrator 23.0.2, SVG Export Plug-In . SVG Version: 6.00 Build 0)  -->
<svg version="1.1" id="Layer_1" xmlns="http://www.w3.org/2000/svg" xmlns:xlink="http://www.w3.org/1999/xlink" x="0px" y="0px"
	 viewBox="0 0 1280 600" style="enable-background:new 0 0 1280 600;" xml:space="preserve">
<style type="text/css">
	.st0{fill:#AF6650;}
	.st1{fill:#F0F0F0;}
	.st2{fill:#4496C3;}
	.st3{fill:#FFFFFF;}
	.st4{fill:#55367D;}
	.st5{opacity:0.12;}
	.st6{fill:#633F86;}
	.st7{fill:#F5CEB0;}
	.st8{fill:#D2B5A1;}
	.st9{fill:#534741;}
	.st10{fill:#333333;}
	.st11{fill:#4D4D4D;}
	.st12{fill:#CF225A;}
	.st13{fill:#F4CDAF;}
	.st14{fill:#3B2C24;}
	.st15{fill:#59595B;}
	.st16{fill:#FCD25A;}
	.st17{fill:#899499;}
	.st18{fill:#A1CCDD;}
	.st19{fill:#0EA79B;}
	.st20{opacity:7.000000e-02;}
	.st21{fill:#184462;}
	.st22{fill:#CE2747;}
	.st23{fill:#EDF8F4;}
	.st24{fill:#C2D69F;}
	.st25{fill:#B7C98C;}
	.st26{fill:#FD9025;}
	.st27{opacity:0.1;}
	.st28{font-family:'Poppins-Bold';}
	.st29{font-size:56.274px;}
	.st30{letter-spacing:-5;}
	.st31{fill:#666666;}
	.st32{fill:#E6E6E6;}
	.st33{fill:#6A9FE2;}
	.st34{font-family:'Poppins-Medium';}
	.st35{font-size:36px;}
	.st36{letter-spacing:-3;}
</style>
<g>
	<g>
		<path class="st0" d="M703.9,204.7c5.4,1.5,9.7,6.5,10.2,12c3-2.7,4.5-7,3.9-11s-3.1-7.7-6.7-9.5c-3.3,1.8-5.9,4.9-7.1,8.5
			L703.9,204.7z"/>
	</g>
	<g>
		<g>
			<path class="st1" d="M809.7,187.7l-64.3-0.2c-23.8-0.1-43-20.5-42.9-45.7v0c0.1-25.2,19.4-45.5,43.2-45.4l64.2,0.2L809.7,187.7z"
				/>
		</g>
		<g>
			<path class="st2" d="M811.9,187.7l125,0.5c19.1,0.1,34.7-15.4,34.7-34.5l0.1-21.9c0.1-19.1-15.4-34.7-34.5-34.7l-125-0.5
				L811.9,187.7z"/>
		</g>
		<g>
			<path class="st3" d="M829.6,142.4h-6.7v7.3h-4.3v-17.7h4.3v6.9h6.7v-6.9h4.3v17.7h-4.3V142.4z"/>
			<path class="st3" d="M845.3,135.5h-6.5v3.6h5.8v3.3h-5.8v3.9h6.5v3.4h-10.8v-17.7h10.8V135.5z"/>
			<path class="st3" d="M856.5,146.6h-6.6l-1.1,3.1h-4.5l6.4-17.7h5l6.4,17.7h-4.6L856.5,146.6z M853.2,136.8l-2.2,6.5h4.4
				L853.2,136.8z"/>
			<path class="st3" d="M865.9,132.1v14.3h5.6v3.3h-9.9v-17.7H865.9z"/>
			<path class="st3" d="M870.1,132.1h13.7v3.4h-4.7v14.2h-4.3v-14.2h-4.7V132.1z"/>
			<path class="st3" d="M894.4,142.4h-6.7v7.3h-4.3v-17.7h4.3v6.9h6.7v-6.9h4.3v17.7h-4.3V142.4z"/>
			<path class="st3" d="M907.4,131.9c4.2,0,7.4,2.4,8.4,6.2H911c-0.7-1.5-2.1-2.3-3.7-2.3c-2.6,0-4.5,2-4.5,5.1s1.8,5.1,4.5,5.1
				c1.6,0,3-0.8,3.7-2.3h4.7c-1,3.8-4.2,6.2-8.4,6.2c-5.2,0-8.9-3.7-8.9-9S902.2,131.9,907.4,131.9z"/>
			<path class="st3" d="M923.1,132.1c4.3,0,6.5,2.5,6.5,5.6c0,2.2-1.2,4.3-3.9,5.1l4.1,7h-4.9l-3.7-6.7h-1v6.7h-4.3v-17.7H923.1z
				 M922.9,135.6h-2.7v4.4h2.7c1.6,0,2.4-0.8,2.4-2.2C925.2,136.5,924.5,135.6,922.9,135.6z"/>
			<path class="st3" d="M929.7,132.1h4.3v10.6c0,2.1,1,3.3,3.1,3.3c2,0,3.1-1.2,3.1-3.3v-10.6h4.3v10.5c0,4.9-3.4,7.3-7.5,7.3
				c-4.1,0-7.3-2.4-7.3-7.3V132.1z"/>
			<path class="st3" d="M945,132.1h5.1l5,12.2l4.9-12.2h5.1v17.7h-4.3v-10.6l-3.9,10.6h-3.5l-4-10.6v10.6H945V132.1z"/>
		</g>
		<g>
			<g>
				<path class="st2" d="M786.2,134.6c-5.4,0-10.9,0-16.3-0.1c-0.5,0-1,0-1.5,0c0-4.2,0-8.4,0-12.6c0-2.1,0-4.2,0-6.3
					c0-0.7-0.6-1.3-1.2-1.3c-3.4,0-6.8,0-10.2,0c-0.7,0-1.2,0.6-1.2,1.3c0,5.8,0,11.5-0.1,17.3c0,0.5,0,1.1,0,1.6c-4,0-7.9,0-11.9,0
					c-2,0-4,0-6,0c-0.7,0-1.2,0.6-1.2,1.3c0,3.6,0,7.2,0,10.7c0,0.4,0.1,0.7,0.3,0.9c0.2,0.2,0.5,0.4,0.9,0.4c5.4,0,10.9,0,16.3,0.1
					c0.5,0,1,0,1.5,0c0,4.2,0,8.4,0,12.6c0,2.1,0,4.2,0,6.3c0,0.7,0.6,1.3,1.2,1.3c3.4,0,6.8,0,10.2,0c0.4,0,0.7-0.1,0.9-0.4
					c0.2-0.2,0.4-0.5,0.4-0.9c0-5.8,0-11.5,0.1-17.3c0-0.5,0-1.1,0-1.6c4,0,7.9,0,11.9,0c2,0,4,0,6,0c0.7,0,1.2-0.6,1.2-1.3
					c0-3.6,0-7.2,0-10.7C787.4,135.2,786.9,134.6,786.2,134.6z"/>
			</g>
		</g>
	</g>
	<g>
		<g>
			<path class="st4" d="M1110.3,145.8l-19.3,4.4c-0.8-0.9-2-1.4-3.2-1.1l-50.9,11.6c-1.2,0.3-2.1,1.2-2.4,2.4l-19.3,4.4l4.7,20.6
				l19.1-4.4c0.8,1.2,2.1,1.8,3.5,1.5l50.9-11.6c1.4-0.3,2.3-1.5,2.5-2.9l19.1-4.4L1110.3,145.8z"/>
		</g>
		<g class="st5">
			<polygon points="1021.8,166.7 1026.4,186.7 1033.7,185 1023.9,166.1 			"/>
		</g>
		<g>
			<g>
				<path class="st6" d="M1024.7,214.4l-4.6,1c-4,0.9-8-1.6-8.9-5.6L998,152.3c-0.9-4,1.6-8,5.6-8.9l4.6-1c4-0.9,8,1.6,8.9,5.6
					l13.2,57.5C1031.2,209.5,1028.7,213.5,1024.7,214.4z"/>
			</g>
			<g>
				<path class="st6" d="M1005.7,218.8l-4.6,1c-4,0.9-8-1.6-8.9-5.6L979,156.7c-0.9-4,1.6-8,5.6-8.9l4.6-1c4-0.9,8,1.6,8.9,5.6
					l13.2,57.5C1012.2,213.8,1009.7,217.8,1005.7,218.8z"/>
			</g>
			<g>
				<path class="st6" d="M987.1,196.1L985,196c-1.5-0.1-3-1.7-3.4-3.7l-2.5-11.1c-0.5-2.1,0.1-4.1,1.5-4.9l1.8-1.1
					c1.8-1.1,4.2,0.6,4.8,3.4L990,191C990.6,193.8,989.2,196.3,987.1,196.1z"/>
			</g>
		</g>
		<g>
			<g>
				<path class="st6" d="M1119.6,192.7l4.6-1c4-0.9,6.5-4.9,5.6-8.9l-13.2-57.5c-0.9-4-4.9-6.5-8.9-5.6l-4.6,1
					c-4,0.9-6.5,4.9-5.6,8.9l13.2,57.5C1111.6,191.1,1115.6,193.6,1119.6,192.7z"/>
			</g>
			<g>
				<path class="st6" d="M1138.6,188.4l4.6-1c4-0.9,6.5-4.9,5.6-8.9l-13.2-57.5c-0.9-4-4.9-6.5-8.9-5.6l-4.6,1
					c-4,0.9-6.5,4.9-5.6,8.9l13.2,57.5C1130.6,186.8,1134.6,189.3,1138.6,188.4z"/>
			</g>
			<g>
				<path class="st6" d="M1145.5,159.9l1.8-1.1c1.3-0.8,1.9-2.8,1.5-4.9l-2.5-11.1c-0.5-2.1-1.9-3.6-3.4-3.7l-2.1-0.2
					c-2.1-0.2-3.5,2.3-2.9,5.2l2.8,12.4C1141.3,159.3,1143.7,161,1145.5,159.9z"/>
			</g>
		</g>
	</g>
	<g>
		<g>
			<g>
				<polygon class="st7" points="633.6,206.4 634.9,197.3 631,196.6 628.8,202.7 627.1,201.5 627,209.4 630.9,210.7 				"/>
			</g>
			<g>
				<polygon class="st8" points="575.6,254.6 610.4,245.1 626.1,206.7 633.8,209.6 625.3,259 585.4,280.3 				"/>
			</g>
		</g>
		<g>
			<g>
				<g>
					<polygon class="st9" points="582.3,347.7 582.3,359.9 598.6,413 594.5,468.2 604.8,470.3 621.1,402.8 620.5,383 612.9,342.5 
											"/>
				</g>
				<g>
					<polygon class="st9" points="595.2,362.2 578.8,474.6 571.3,474.6 566.6,413.3 556.4,352 					"/>
				</g>
				<g>
					<polygon class="st10" points="603.1,471.7 610.9,479.9 608.6,484.1 592.5,476.4 595.5,470.3 					"/>
				</g>
				<g>
					<polygon class="st10" points="578.7,477.2 588.3,483.2 587.2,487.8 569.6,484.4 571,477.7 					"/>
				</g>
			</g>
			<g>
				<g>
					<path class="st7" d="M604.8,224.8c-6.6,0.5-12.8-5-19.3-3.6c-4.2,0.9-7.6,4.6-8.9,8.9c-0.6,2-0.8,4.1-0.2,6.1
						c0.4,1.3,1.1,2.4,1.9,3.4c1.1,1.4,2.5,2.5,4,3.4c-0.8,1.3-1.8,2.6-2.8,3.8c3.1,1.2,6.1,2.3,9.2,3.5c0.7-1.8,1.3-3.5,2-5.3
						c0.9-0.1,1.8-0.2,2.7-0.4c5.4-1.4,9.9-6.2,11.1-11.8C605,230.2,604.9,227.4,604.8,224.8z"/>
				</g>
				<g>
					<polygon class="st11" points="603.1,226.8 582.7,224.3 578.7,240 572.9,235.4 575.9,209.8 604.8,209.2 617.3,216.5 
						616.8,223.9 605.6,231.4 					"/>
				</g>
			</g>
			<g>
				<path class="st8" d="M595.2,252.6l-24.3-9.6c0,0-11.4,24-21.2,58.4c-9.8,34.4,3.2,82.2,3.2,82.2s67.8-13.8,78.9-16l-22-68.8
					L595.2,252.6z"/>
			</g>
		</g>
		<g>
			<g>
				<path class="st12" d="M660.2,131c-9.4-0.7-21.2,4.4-24,12.4c-2.9-8-17.3-12.9-26.8-12.1c-24.8,2.2-33.1,29.9-22.5,48.5
					c5.7,10,13.9,18.7,22.9,26.5c7.5,6.6,26.8,20.4,26.8,20.4c0.1,0,19.2-14,26.6-20.7c8.8-7.9,16.9-16.7,22.6-26.8
					C696.3,160.6,685.1,132.9,660.2,131z"/>
			</g>
			<g class="st5">
				<path d="M681,181.7c-6.2,7.5-13.3,14.6-21,20.7c-7.5,5.9-16.3,11-26,12.8c-4.7,0.8-9.2,0.8-13.6-0.2c8,6.1,16.6,12.3,16.6,12.2
					c0.1,0,19.2-14,26.6-20.7c8.8-7.9,16.9-16.7,22.6-26.8c1.8-3.3,3-6.8,3.5-10.4C687.2,173.6,684.2,177.8,681,181.7z"/>
			</g>
			<g>
				<path class="st3" d="M680.6,173.8c-6.5,0.2-13,0.4-19.5,0.6c-2.4-8.5-4.8-17.1-7.2-25.6c-0.3-1.2-2.2-1.1-2.6,0
					c-5,14.9-9.9,29.8-14.9,44.7c-0.3,0.9-0.6,1.7-0.9,2.6c-3.5-9.8-7-19.5-10.4-29.3c-0.6-1.6-1.1-3.1-1.7-4.7
					c-0.3-0.9-1.9-1.3-2.4-0.3c-2.5,4.8-4.9,9.5-7.4,14.3c-7.3,0-14.6,0.1-21.8,0.1c-1.7,0-1.7,2.5,0,2.5c7.6,0,15.1-0.1,22.7-0.1
					c0.4,0,0.9-0.2,1.1-0.6c2.1-4.1,4.2-8.2,6.3-12.3c3.6,10,7.1,20,10.7,30.1c0.6,1.6,1.1,3.1,1.7,4.7c0.4,1.2,2.2,1.2,2.6,0
					c5-14.9,9.9-29.8,14.9-44.7c0.2-0.7,0.5-1.4,0.7-2.1c2.1,7.5,4.2,14.9,6.3,22.4c0.1,0.5,0.7,0.9,1.3,0.9
					c6.8-0.2,13.7-0.4,20.5-0.6C682.3,176.3,682.3,173.8,680.6,173.8z"/>
			</g>
		</g>
		<g>
			<g>
				<polygon class="st7" points="642.5,212.5 643.6,203.4 639.7,202.7 637.6,208.8 635.9,207.7 635.9,215.6 639.9,216.9 				"/>
			</g>
			<g>
				<polygon class="st8" points="585.3,261.6 619.9,251.5 635,213 642.7,215.8 635,265.2 595.4,287.1 				"/>
			</g>
		</g>
	</g>
	<g>
		<g>
			<g>
				<path class="st13" d="M1097.3,247.7c3-0.1,6-0.3,8.9-0.4c0.2-2.4,0.1-4.8-0.1-7.1c0,0.3,4.8-2.2,5.2-2.8
					c1.2-1.6,1.4-4.4,1.9-6.4c1.1-4.2,2.1-8.8-0.1-12.5c-2.3-3.8-7.2-5.1-11.7-5.2c-5.6-0.1-11.8,1.5-14.7,6.3
					c-2.6,4.3,0.7,10.7,1.6,15.3c0.5,2.3,1.2,4.8,3.3,5.8c1.1,0.5,2.5,0.5,3.5,1.2C1096.8,243,1096.4,245.7,1097.3,247.7z"/>
			</g>
			<g>
				<path class="st14" d="M1077.9,211.2c-0.3-3.1-0.7-6.2-1-9.3c-0.1-1.1-0.2-2.3,0.1-3.4c0.6-1.8,2.5-3,4.3-3.5
					c1.9-0.5,3.8-0.5,5.7-0.9c2-0.4,3.9-1.3,6-1.2c3.9,0.2,6.9,3.8,10.7,4.4c5.3,0.9,10.2-1.6,13.4,4.7c0.6,1.2,0.8,2.5,1.3,3.7
					c0.7,1.5,1.9,2.7,2.9,4.1c4.2,6,2.8,15.2-2.3,20.3c-2.5,2.5-3.5,4.7-6.9,5.5c1.6-3.2-0.5-15.8-4.8-17.2c-1.1-0.4-4.5,1-5.8,1.2
					c-2.8,0.4-5.5,0.9-8.1,1.9c-3.9,1.6-8.1,2.7-12.3,3.1c-0.5,0-1.1,0.1-1.5-0.3c-0.4-0.3-0.5-0.9-0.5-1.4
					C1078.8,219,1078.4,215.1,1077.9,211.2z"/>
			</g>
		</g>
		<g>
			<g>
				<g>
					<polygon class="st14" points="1144.6,475.5 1145.8,480.5 1137,487.9 1130.7,484.1 1134.6,477.9 1143.4,470.4 					"/>
				</g>
				<g>
					<polygon class="st15" points="1124.3,319.8 1127.9,335.1 1123.3,406.2 1144.8,473.7 1135.3,478.1 1092.2,400.1 1087.1,375.2 
						1084.5,322.5 					"/>
				</g>
			</g>
			<g>
				<g>
					<polygon class="st15" points="1064.7,325.8 1063.9,391.9 1076.4,477 1085.9,477 1092,398.5 1105.1,319.9 					"/>
				</g>
				<g>
					<polygon class="st14" points="1085.9,475.9 1085.9,481.1 1075.5,486.2 1070.3,481.1 1075.5,475.9 					"/>
				</g>
			</g>
			<g>
				<path class="st16" d="M1135.7,338.5c0.1,6-0.1,14.1-2.4,14.4c-0.4,0.1-0.8-0.2-1.2-0.4c-4-2.2-6.8-5.3-10.8-7.4
					c-4.1-2.2-8.9-3.4-13.5-4.2c-6.9-1.3-14-2.1-21.1-2.2c-5.6-0.1-11.1,0.4-16.7,0.8c-4.6,0.4-8.9,1.7-13.6,1.4
					c-4.8-0.3-9.5-1.8-13.7-4.3c-0.2-0.1-0.3-0.2-0.4-0.4c-0.1-0.2,0-0.4,0.1-0.6c1-2.7,1.7-5.4,3.5-7.6c2-2.5,3.4-5.6,4.8-8.5
					c3-5.9,5.8-12.1,7.9-18.4c3.2-8.5,6.8-16.9,9.8-25.4c2.1-5.9,4.1-12,6.9-17.6c2.3-4.4,6.3-10.9,11.1-12.8
					c1.6-0.7,3.4-0.7,5.2-0.8c5.4-0.2,10.7-0.3,16.1-0.5c2-0.1,4-0.1,5.8,0.7c2.7,1.2,4.2,4,5.5,6.6c5.9,11.7,9.7,24.3,11.8,37.4
					c1.1,6.8,2.1,13.6,2.9,20.5c0.9,7.6,1.5,15.3,1.6,23C1135.5,333.2,1135.6,335.6,1135.7,338.5z"/>
			</g>
			<g>
				<path class="st3" d="M1099.9,273.9c-0.2,3,0.2,6.1,0.7,9.1c2.6,18.3,5.3,36.7,7.9,55c-14.4-0.1-28.8-0.3-43.1-0.4
					c0.5-6.9,1-13.7,1.6-20.6c0.3-4.4,0.7-8.8,1.6-13.1c1.5-7,4.5-13.5,7.5-20c5.5-12,11-24,16.6-36c0.3-0.6,0.6-1.3,1.2-1.8
					c0.7-0.6,1.5-0.7,2.4-0.9c4.1-0.7,8.7-1.3,12.9-0.7c1,3.8-2.8,10.3-4.2,13.8C1102.7,263.3,1100.3,268.3,1099.9,273.9z"/>
			</g>
		</g>
		<g>
			<polygon class="st16" points="1073.1,266.6 1052.9,236.5 1047.7,188.9 1056.2,187.1 1067.5,230.4 1087.2,247.8 			"/>
		</g>
		<g>
			<polygon class="st13" points="1056.2,187.1 1056.2,184 1057.6,180.9 1057.1,178.6 1054.8,178.6 1053.8,183.8 1046.8,185.4 
				1047.7,188.9 			"/>
		</g>
		<g>
			<g>
				<polygon class="st13" points="1083.6,302.8 1079.2,304.5 1075.5,302.8 1074.7,303.4 1075.4,304.4 1071.9,303.9 1069.4,305.4 
					1069.1,309.3 1071.3,312.6 1075.2,312.5 1079.1,310 1085.2,307.9 				"/>
			</g>
			<g>
				<polygon class="st16" points="1078.6,301.6 1103.7,291.1 1106.5,261 1123.9,268.5 1119.9,302 1081.9,310.2 				"/>
			</g>
		</g>
	</g>
	<g>
		<g>
			<g>
				<g>
					<polygon class="st17" points="806.2,351 809.5,396.5 820.5,471.9 829,471.9 834.4,402.3 836.7,346 					"/>
				</g>
				<g>
					<polygon class="st14" points="829,470.9 829,475.5 819.8,480.1 815.2,475.5 819.8,470.9 					"/>
				</g>
			</g>
		</g>
		<g>
			<g>
				<g>
					<polygon class="st17" points="866.2,340.2 863,404.1 855.6,477.4 846.9,477.4 839.9,407.9 829.6,334.8 					"/>
				</g>
				<g>
					<polygon class="st14" points="847,476.3 847,481 856.4,485.7 861.1,481 856.4,476.3 					"/>
				</g>
			</g>
		</g>
		<g>
			<g>
				<path class="st13" d="M836.6,237.8c3-0.3,5.9-0.6,8.9-0.9c0-2.4-0.1-4.7-0.5-7.1c2.5-0.9,5.3-2.2,5.8-4.7c0.1-0.8,0-1.6-0.1-2.5
					c-0.6-3.4-1.2-6.7-1.7-10.1c-0.2-1.2-0.4-2.4-1-3.4c-1.1-1.7-3.3-2.5-5.3-2.9c-5.2-0.9-10.9,0.2-14.9,3.6c-1.1,0.9-2,2-2.5,3.3
					c-0.7,2-0.2,4.3,0.4,6.4c0.5,1.9,1,3.9,1.5,5.8c0.6,2.2,1.4,4.8,3.6,5.6c1.1,0.4,2.5,0.3,3.5,1
					C835.9,233.2,835.7,235.9,836.6,237.8z"/>
			</g>
			<g>
				<path class="st14" d="M807.7,204.3c-0.1-2.3,0.3-4.6,0.7-6.7c0.8-3.6,5-5.2,8.7-5.5c8-0.6,15.6-4.2,23.4-1.4
					c4.4,1.6,10.4,2,14.4,4.2c1.7,0.9,3,2.4,4.1,4c3.6,5.6,3.6,13.3,0,18.9c-0.8,1.3-1.8,2.4-2.8,3.5c-2.1,2.3-4.6,5.1-7.5,5.9
					c-0.1-2.6,2.3-10.7,0.3-12.8c-3.1-3.4-10.2-2.2-14.1-1.4c-4.3,0.9-8,3.9-12.3,4.5c-3,0.5-6.9-1-9.5-2.6
					C809.2,212.5,807.8,208.5,807.7,204.3z"/>
			</g>
		</g>
		<g>
			<g>
				<g>
					<polygon class="st13" points="888,195.2 889.7,189.8 887.4,185.5 888.1,184.5 889.3,185.3 888.4,181.1 890,178 894.6,177.4 
						898.7,179.8 898.9,184.4 896.3,189.2 894.3,196.6 					"/>
				</g>
			</g>
			<g>
				<polygon class="st18" points="887.8,191.2 896.2,191.7 887.8,233.6 863.6,258.5 854.7,231.9 875.1,220.9 				"/>
			</g>
		</g>
		<g>
			<g>
				<g>
					<polygon class="st13" points="794.2,201.9 792.5,196.5 794.8,192.1 794.2,191.2 792.9,192 793.8,187.8 792.2,184.7 787.7,184 
						783.5,186.4 783.4,191 785.9,195.9 788,203.3 					"/>
				</g>
			</g>
			<g>
				<polygon class="st18" points="794.5,197.9 786,198.4 794.5,240.3 820.1,266.3 831.2,237.2 807.2,227.6 				"/>
			</g>
		</g>
		<g>
			<polygon class="st18" points="829.6,235.6 857.7,236.8 871.8,290.7 883.5,365.4 793.2,367.6 814.4,262 			"/>
		</g>
	</g>
	<g>
		<g>
			<g>
				<polygon class="st13" points="757.9,248.6 761.4,245.4 761.4,241.2 762.3,240.8 762.9,241.8 763.9,238.4 766.3,236.8 
					769.9,238.2 772,241.6 770.3,245 766.4,247.5 761.9,252.2 				"/>
			</g>
			<g>
				<polygon class="st19" points="759,243.5 739.9,266.2 714.9,242 711,271 741.4,286 765.4,250.1 				"/>
			</g>
		</g>
		<g>
			<g>
				<polygon class="st9" points="683.4,470.8 683,474.9 690.4,480 694.8,476.4 691.2,471.8 683.8,466.7 				"/>
			</g>
			<g>
				<polygon class="st8" points="683.6,345.6 682.3,358.1 693.5,400.8 683.1,469.4 690.7,472 710.8,405 714,385.5 713.9,344.3 				
					"/>
			</g>
		</g>
		<g>
			<g>
				<polygon class="st8" points="742.2,359.5 726.2,474.5 718.9,474.5 717.6,400.8 704.3,349 				"/>
			</g>
			<g>
				<polygon class="st9" points="718.9,473.6 718.9,477.7 726.8,481.8 730.7,477.7 726.8,473.6 				"/>
			</g>
		</g>
		<g>
			<path class="st19" d="M724.3,241.5c-0.6-0.9-1.3-1.7-2.4-2.3c-7.2-4.1-19.2-0.5-27.1-0.5c-2.3,24.4-8.7,47.7-12.9,71.7
				c-4.4,25.5-9.4,50.9-14.9,76.2c-0.3,1.4,21.9,0.7,24,0.7c21.3,0.4,49.3,0.3,69.8-6.2c-13.1-35.3-17.9-73.2-28.3-109.4
				c-1.8-6.4-4-12.6-5.6-19C726,249,726.2,244.5,724.3,241.5z"/>
		</g>
		<g>
			<path class="st13" d="M725.6,212.6c-2.8-14.7-21.2-12.2-26.5-0.3c-3,6.8,0.1,16.4,6.1,21.1c0.1,1.3,0.3,4.9,1.3,5.8
				c1.1,0.9,4.5,0,5.8-0.3c0.4-0.1,0.8-0.2,1-0.5c0.3-0.3,0.4-1.2,0.4-2.2c1-0.1,2-0.3,3-0.6c4.3-1.4,7.4-5.4,8.7-9.7
				C726.8,221.7,726.4,217,725.6,212.6z"/>
		</g>
		<g>
			<path class="st0" d="M698.4,271.1c0.2,0,0.3,0,0.4,0c3.2-0.6,8.5-1.6,10-5c1.5-3.5-1.2-9.9-1.7-13.5c-0.7-5.5-0.9-11.1-1.2-16.7
				c-0.2-5,1.6-10,4.2-14.3c2.6-4.3,6.1-8,9.4-11.7c1.4-1.5,2.9-3.2,3.3-5.2c0.5-2.3-0.4-4.7-1.9-6.4c-2.3-2.7-5-4.1-8.5-4.2
				c-12.2-0.3-21.3,6.9-24.8,18.8c-4.9,17,1.2,33.3,0.3,50.2c-0.2,2.9-1.1,5.7-2.7,8.1C685.7,270.6,695.8,271.2,698.4,271.1z"/>
		</g>
		<g>
			<g>
				
					<ellipse transform="matrix(0.1602 -0.9871 0.9871 0.1602 306.2229 954.0108)" class="st18" cx="713.8" cy="297" rx="57.1" ry="57.1"/>
			</g>
			<g>
				
					<ellipse transform="matrix(0.7071 -0.7071 0.7071 0.7071 -0.9855 591.7098)" class="st3" cx="713.8" cy="297" rx="49.5" ry="49.5"/>
			</g>
			<g class="st20">
				<g>
					<path class="st21" d="M747.7,261.4c7.3,8.6,11.7,19.8,11.7,32c0,27.3-22.1,49.5-49.5,49.5c-13.1,0-25.1-5.1-33.9-13.5
						c9.1,10.7,22.6,17.5,37.7,17.5c27.3,0,49.5-22.1,49.5-49.5C763.2,283.2,757.3,270.4,747.7,261.4z"/>
				</g>
			</g>
			<g>
				<g>
					<path class="st22" d="M710.2,297.5l0,0.9c0,0.8,0.6,1.5,1.4,1.5l46.3,1.9c0.8,0,1.5-0.6,1.5-1.4l0-0.9c0-0.8-0.6-1.5-1.4-1.5
						l-46.3-1.9C711,296.1,710.3,296.7,710.2,297.5z"/>
				</g>
				<g>
					<path class="st21" d="M715.7,293.8v-24.3c0-1.1-0.9-1.9-1.9-1.9l0,0c-1.1,0-1.9,0.9-1.9,1.9v24.3c-1.1,0.7-1.9,1.9-1.9,3.3
						c0,2.1,1.7,3.8,3.8,3.8s3.8-1.7,3.8-3.8C717.6,295.6,716.8,294.4,715.7,293.8z"/>
				</g>
			</g>
		</g>
		<g>
			<g>
				<path class="st19" d="M673.8,336c-1,1.2-2.7,1.6-4.3,1.3s-2.9-1.2-4.1-2.2c-1.5-1.2-2.9-2.5-4.1-3.9c-0.7-0.8-1.4-1.7-1.8-2.7
					c-0.3-1-0.3-2.3,0.5-3.1c0.5-0.6,1.2-0.9,1.9-1.2c0.5-0.2,1-0.4,1.5-0.3c0.4,0.1,0.8,0.4,1.1,0.6
					C666.9,326.5,676.9,332.1,673.8,336z"/>
			</g>
			<g>
				<g>
					<path class="st13" d="M669,336c0.2,0.1,0.4,0.1,0.6,0.1c0.6,0.1,1.6,0.1,2.2-0.2c0,0,1.7-1.2,1-1.2l-1.6,0l3.2-3.4l0.3-3.7
						l-3.9-3.2l-5.2-0.1c-1.5,2.3-3.8,4.5-1.9,7.4c0.5,0.9,1.3,1.5,2.1,2.2C666.7,334.7,667.8,335.6,669,336z"/>
				</g>
			</g>
		</g>
	</g>
	<g>
		<g>
			<g>
				<path class="st17" d="M951.8,240.8c-0.1,0.1-0.3,0.1-0.4,0.2c-6.9,2.7-12.2,14.6-15.3,21.7c-8,18.2-11.5,37.1-12.1,57.2
					c-0.3,10.8-0.2,21.6,0.1,32.5c0.1,3,2.7,29.7,1.4,30.4c13.6-6.6,27.4-12.7,41.9-16.5c14.5-3.7,29.7-5,44.3-1.6
					c-4.4-34-10.9-68.5-20.2-101.3c-1.1-3.9-1.9-8.1-3.5-11.8c-1.9-4.3-4.7-5.5-8.3-8.1c-1.2-0.9-2.5-1.7-3.8-2.3
					C968.6,237.8,959,238.1,951.8,240.8z"/>
			</g>
			<g>
				<g>
					<g>
						<polygon class="st7" points="930.9,347.7 946.5,410.9 946.8,457.5 954.4,459.1 957.3,415.8 964.8,336.4 						"/>
					</g>
				</g>
				<g>
					<polygon class="st9" points="954.5,460.4 955.7,465.1 954.6,474.4 948.5,474.4 946.2,461 946.9,458.8 					"/>
				</g>
			</g>
			<g>
				<g>
					<polygon class="st7" points="990.4,340.7 991.7,395.3 984.4,472.5 977,473 974.3,402.3 959.1,338.2 					"/>
				</g>
				<g>
					<polygon class="st9" points="984.2,471.2 994.3,476.5 993.5,481.2 975.7,479 976.6,472.3 					"/>
				</g>
			</g>
			<g>
				<polygon class="st0" points="992.5,347.7 997.6,410.8 992.5,454.1 972.2,453 968.6,403.8 959.9,350.1 961.2,341.8 990.4,342.2 
									"/>
			</g>
			<g>
				<polygon class="st0" points="961.9,406.3 959.5,451.5 941.9,450.6 942.3,407.7 931.2,353.8 933.7,338.7 963.3,340.6 				"/>
			</g>
			<g>
				<path class="st23" d="M1002.9,348.9c-18.1,2.8-48.2,4.9-66.3,7.6c-1-32.7,2.2-70.5,10.1-102.1c1.4-5.7,3.5-11.9,8.6-14.9
					c5.4-3.1,16.8-2.7,20.1,3.4c4.8,8.9,5.7,23.1,7.9,33C988.1,298.3,999.9,326.1,1002.9,348.9z"/>
			</g>
			<g>
				<g>
					<path class="st13" d="M952.2,216.3c2.7-13.3,19.4-10.8,24,0.1c3.1,7.2-1.4,17.7-8.6,20.7c0.4,1.8,0.8,3.7,1.1,5.5
						c-2,0.1-4.1,0.2-6.1,0.3c-0.6,0-1.4,0-1.8-0.5c-0.2-0.3-0.3-0.7-0.3-1.1c-0.1-1.3-0.1-2.6-0.2-3.9c-0.2,0-0.3-0.1-0.5-0.1
						c-3.9-1.3-6.6-5-7.8-8.9C951,224.5,951.3,220.3,952.2,216.3z"/>
				</g>
				<g>
					<g>
						<g>
							<path class="st9" d="M953.8,220c-2.1,4-0.8,8.9,0.4,13.1c1,3.7,1.2,6-3,6.3c-2.4,0.1-6.6,0.5-8.3-1.6c-1.3-1.6,0.2-5.5,1.2-7
								c0.8-1.1,2.4-1.5,3.1-2.7c0.3-0.5,0.4-1.1,0.5-1.6c0.4-2.3,0.5-4.6,0.2-6.9c-0.2-1.6-0.6-3.1-0.4-4.7
								c0.2-2.3,2.2-4.6,3.4-6.6c2.2-3.6,8.4-7.9,12.5-4.1c0.9,0.9,1.3,2.1,1.6,3.3c0.2,0.7,0.4,1.5,0.2,2.2c-0.4,3-3.2,3-5.3,4.1
								C957.3,215.1,955.2,217.4,953.8,220z"/>
						</g>
						<g>
							<path class="st9" d="M975.1,224.2c-0.2,2.1-1.6,4.3-0.8,6.2c0.4,0.9,1.2,1.5,1.8,2.2c1.7,1.9,2.3,4.8,1.5,7.3
								c4.2,0.5,8.4,1,12.6,1.6c0.6,0.1,1.3,0.2,1.9-0.1c1.3-0.5,1.6-2.1,1.7-3.5c0.3-2.7,0.5-5.6-0.8-7.9c-0.6-1.1-1.5-2-2.1-3.1
								c-2.9-5.3,2-12.8-1.8-17.5c-1.7-2.1-4.6-2.7-6.9-4.1c-4-2.5-6-7.3-10.2-9.5c-7.8-4.2-17.4,4.6-13.7,12.7
								C961.4,215.1,975.8,215.6,975.1,224.2z"/>
						</g>
					</g>
				</g>
			</g>
			<g>
				<path class="st17" d="M952.3,241.8c0,0-5.8,81.2,6.9,97.2c12.6,16,18,22,18,22l-51.7,21.6C925.5,382.6,926.6,264.2,952.3,241.8z
					"/>
			</g>
		</g>
		<g>
			<g>
				<g>
					<path class="st24" d="M1000.4,218.2c2.1,0.5,4.3,0.5,6.3-0.2c-1.5,0.5-1.2,17.1-1.2,19.2c0,3.2,1.9,17.5-4.6,11.7
						c-2.9-2.6-0.9-7.5-0.4-10.8C1001.2,231.5,1000.7,224.8,1000.4,218.2z"/>
				</g>
				<g>
					<g>
						<path class="st25" d="M1001.9,252.5l11-49.5c0,0,4.1-3.1,6.1,2.7c2,5.8-11.2,43.9-11.2,43.9L1001.9,252.5z"/>
					</g>
					<g>
						<path class="st24" d="M1001.7,251.7l19.1-38.3c0,0,3.8-1.5,4.2,3.9c0.3,5.4-18,33.5-18,33.5L1001.7,251.7z"/>
					</g>
				</g>
			</g>
			<g>
				<path class="st26" d="M902.8,367.5c8.8-2.5,17.2-5.8,19.6-6.8c30.1-11.7,58-31.4,76.4-59c7.6-11.3,17.6-26.6,15.8-41.2
					c-2.4-19.4-20.9-22.6-34.5-12c-8.6,6.8-14,18-19.7,27.2c-7.5,12.2-15,24.5-24,35.6c-14.8,18.4-32.9,36.8-53.4,48.2
					c-1.8,1-5.5,4.6-5.2,7C878.9,372.8,891.3,370.8,902.8,367.5z"/>
			</g>
			<g class="st27">
				<path d="M977.9,302.7c0.4,0.2,1.1,0.2,1.2-0.3c0.1-0.2,0-0.5-0.1-0.7c-0.7-1.3-1.7-2.3-2.7-3.4c-3.5-3.4-7.2-6.7-10.4-10.4
					c-1.2-1.4-7-9.4-5.8-11c-5,6.5-4.8,7.8,1.4,14c2.4,2.4,5.2,4.4,8.1,6.2C972.3,298.8,975.1,301.4,977.9,302.7
					C977.9,302.7,977.9,302.7,977.9,302.7z"/>
			</g>
			<g class="st27">
				<path d="M967.8,311.9c-0.2-0.5-0.5-1-0.4-1.6s0.4-1.1,1-1.2c0.5,0,0.9,0.4,1.3,0.9c3.1,4,6.3,8.5,11.1,10
					c0.5,0.1,0.9,0.3,1.3,0.6c0.4,0.3,0.6,0.9,0.3,1.3c-0.2,0.3-0.5,0.4-0.8,0.6c-1.9,0.9-1.8,1.7-3.7,0.9c-1.4-0.6-2.9-2.1-4-3.2
					C971.4,317.8,969.3,315,967.8,311.9z"/>
			</g>
			<g class="st27">
				<path d="M968.9,281.1c1.2,1.5,2.6,3,4.4,3.3c0.5-1.1-0.4-2.3-1.2-3.2c-3.2-3.7-5.3-7.8-7.7-12
					C959.8,271.6,967.1,278.9,968.9,281.1z"/>
			</g>
			<g class="st27">
				<path d="M919.8,347.7c-0.1-0.5,0.3-2.2,0.9-1.1c1.4,2.9,2.6,6.5,5.3,8.3c1.5,1,3.2,1.6,4.8,2.3c-1.7,1-3.2,1.5-3.8,1.4
					c-1.8-0.4-3.2-2.8-4.2-4.2c-0.9-1.2-1.6-2.5-2.1-3.9C920.5,350,919.9,348.7,919.8,347.7z"/>
			</g>
		</g>
		<g>
			<g>
				<path class="st17" d="M938,310.3c-1.4-0.8-2-2.4-2-4c0-1.6,0.7-3,1.4-4.4c0.9-1.7,1.9-3.2,3.1-4.7c0.7-0.8,1.4-1.7,2.4-2.2
					c1-0.5,2.2-0.6,3.1-0.1c0.6,0.4,1.1,1,1.5,1.7c0.3,0.4,0.6,0.9,0.6,1.4c0,0.4-0.2,0.8-0.4,1.2
					C946.1,301.9,942.4,312.6,938,310.3z"/>
			</g>
			<g>
				<g>
					<path class="st13" d="M937.2,305.5c0,0.2,0,0.4,0,0.6c0,0.6,0.2,1.6,0.6,2.1c0,0,1.5,1.5,1.3,0.8l-0.3-1.5l3.8,2.6l3.7-0.4
						l2.5-4.3l-0.7-5.1c-2.6-1.1-5.1-2.9-7.6-0.6c-0.7,0.7-1.3,1.6-1.8,2.4C938,303.1,937.3,304.3,937.2,305.5z"/>
				</g>
			</g>
		</g>
		<g>
			<g>
				<path class="st17" d="M1006,291.5c1.2,1,1.6,2.7,1.3,4.3c-0.3,1.5-1.2,2.9-2.2,4.1c-1.2,1.5-2.5,2.9-3.9,4.1
					c-0.8,0.7-1.7,1.4-2.7,1.7c-1,0.3-2.3,0.2-3.1-0.5c-0.6-0.5-0.9-1.2-1.1-1.9c-0.2-0.5-0.4-1-0.3-1.5c0.1-0.4,0.4-0.8,0.6-1.1
					C996.6,298.4,1002.1,288.4,1006,291.5z"/>
			</g>
			<g>
				<g>
					<path class="st13" d="M1006,296.3c0.1-0.2,0.1-0.4,0.1-0.6c0.1-0.6,0.1-1.6-0.2-2.2c0,0-1.2-1.7-1.2-1l0,1.6l-3.3-3.2l-3.7-0.3
						l-3.2,3.9l-0.1,5.2c2.3,1.6,4.5,3.8,7.4,1.9c0.9-0.5,1.5-1.3,2.2-2.1C1004.8,298.6,1005.7,297.5,1006,296.3z"/>
				</g>
			</g>
		</g>
	</g>
</g>
<text transform="matrix(1 0 0 1 356.0005 89.4736)" class="st2 st28 st29 st30">Healthcare </text>
<g>
	<g>
		<path class="st31" d="M745.5,47.3c-2.4,0-4.7,0-7.1,0c-0.2,0-0.4,0-0.7,0c0-1.8,0-3.7,0-5.5c0-0.9,0-1.8,0-2.7
			c0-0.3-0.2-0.6-0.5-0.6c-1.5,0-2.9,0-4.4,0c-0.3,0-0.5,0.3-0.5,0.6c0,2.5,0,5,0,7.5c0,0.2,0,0.5,0,0.7c-1.7,0-3.5,0-5.2,0
			c-0.9,0-1.7,0-2.6,0c-0.3,0-0.5,0.3-0.5,0.6c0,1.6,0,3.1,0,4.7c0,0.2,0.1,0.3,0.2,0.4c0.1,0.1,0.2,0.2,0.4,0.2c2.4,0,4.7,0,7.1,0
			c0.2,0,0.4,0,0.7,0c0,1.8,0,3.7,0,5.5c0,0.9,0,1.8,0,2.7c0,0.3,0.2,0.6,0.5,0.6c1.5,0,2.9,0,4.4,0c0.2,0,0.3-0.1,0.4-0.2
			c0.1-0.1,0.2-0.2,0.2-0.4c0-2.5,0-5,0-7.5c0-0.2,0-0.5,0-0.7c1.7,0,3.5,0,5.2,0c0.9,0,1.7,0,2.6,0c0.3,0,0.5-0.3,0.5-0.6
			c0-1.6,0-3.1,0-4.7C746.1,47.6,745.8,47.3,745.5,47.3z"/>
	</g>
</g>
<g>
	<g>
		<path class="st32" d="M475.7,238.6c-2.2,0-4.4,0-6.5,0c-0.2,0-0.4,0-0.6,0c0-1.7,0-3.4,0-5c0-0.8,0-1.7,0-2.5
			c0-0.3-0.2-0.5-0.5-0.5c-1.4,0-2.7,0-4.1,0c-0.3,0-0.5,0.2-0.5,0.5c0,2.3,0,4.6,0,6.9c0,0.2,0,0.4,0,0.6c-1.6,0-3.2,0-4.8,0
			c-0.8,0-1.6,0-2.4,0c-0.3,0-0.5,0.2-0.5,0.5c0,1.4,0,2.9,0,4.3c0,0.2,0.1,0.3,0.1,0.4c0.1,0.1,0.2,0.2,0.4,0.2c2.2,0,4.4,0,6.5,0
			c0.2,0,0.4,0,0.6,0c0,1.7,0,3.4,0,5c0,0.8,0,1.7,0,2.5c0,0.3,0.2,0.5,0.5,0.5c1.4,0,2.7,0,4.1,0c0.2,0,0.3-0.1,0.3-0.1
			c0.1-0.1,0.1-0.2,0.1-0.4c0-2.3,0-4.6,0-6.9c0-0.2,0-0.4,0-0.6c1.6,0,3.2,0,4.8,0c0.8,0,1.6,0,2.4,0c0.3,0,0.5-0.2,0.5-0.5
			c0-1.4,0-2.9,0-4.3C476.2,238.8,476,238.6,475.7,238.6z"/>
	</g>
</g>
<text transform="matrix(1 0 0 1 641.5596 89.6802)" class="st33 st34 st35 st36">for all</text>
<g>
	<path class="st26" d="M38.3,312.2c-0.7,0-1.4-0.1-2-0.5c-0.4-0.3-0.8-0.7-1.2-1c-0.2-0.1-0.3-0.3-0.5-0.3c-0.2,0.1-0.2,0.3-0.2,0.5
		c0,0.6,0,1.1,0,1.7c0,1-0.1,2.1-0.2,3.1c0,0.1,0,0.2,0,0.3c0,0.9-0.1,1.8-0.1,2.7c0,0.3-0.1,0.6-0.1,0.8c-0.1,0.5-0.4,0.9-0.9,1
		c-0.4,0.1-0.8,0.3-1.2,0.5c-0.5,0.2-1,0.3-1.6,0.2c-0.4-0.1-0.8-0.4-1-0.8c-0.1-0.3-0.3-0.5-0.4-0.8c-0.1,0-0.2-0.1-0.4-0.1
		c-0.4-0.1-0.7-0.4-0.9-0.8c-0.7-1.7-1.4-3.5-1.8-5.3c-0.1-0.7-0.2-1.4-0.3-2.1c-0.1-1.1-0.1-2.2-0.1-3.2c0-0.7,0.1-1.3,0.2-2
		c0.1-0.7,0-1.4-0.3-2.1c-0.8-1.8-1.6-3.5-2.4-5.3c-0.8-1.7-1.6-3.4-2.4-5.1c-0.7-1.5-1.3-3.1-1.6-4.7c-0.1-0.7-0.3-1.5-0.3-2.3
		c0-0.4-0.1-0.8-0.2-1.3c-0.1-0.6-0.3-1.2-0.3-1.9c-0.1-1.7-0.4-3.4-0.7-5.1c-0.1-0.7-0.2-1.4-0.3-2.2c0-0.3-0.1-0.7-0.2-1
		c0,0-0.1-0.1-0.1-0.1c0,0-0.1,0-0.1,0c0,0.1-0.1,0.2-0.1,0.4c-0.2,0.7-0.3,1.4-0.4,2.1c-0.1,0.8-0.1,1.7,0.1,2.5
		c0.2,0.6,0.3,1.3,0.3,1.9c0,0.9,0.1,1.8,0.2,2.7c0,0.6,0.1,1.2,0.1,1.8c0.1,0.7,0.1,1.4,0.2,2.1c0,0.5,0.1,1,0.1,1.4
		c0,0.6,0.1,1.3,0.1,1.9c0.1,0.7,0.1,1.4,0.2,2.1c0,0.5,0.1,1,0.1,1.6c0,0.7,0.1,1.4,0.1,2.2c0,0.7,0.1,1.4,0.2,2.1
		c0,0.5,0.1,1,0.1,1.6c0,0.7,0.1,1.4,0.1,2.1c0.1,0.8,0.1,1.6,0.2,2.4c0.1,1.7,0.2,3.4,0.2,5.1c0,2.8-0.5,5.6-1.2,8.3
		c-0.6,2.5-1.4,4.9-2.3,7.3c-0.3,0.7-0.6,1.3-0.9,1.9c-0.2,0.5-0.5,1-0.8,1.6c-0.4,0.9-0.6,1.9-0.8,2.9c-0.1,0.7-0.2,1.4-0.3,2.1
		c-0.2,1.2-0.2,2.5-0.1,3.7c0.1,0.5,0.1,0.9,0.1,1.4c0.1,1,0.3,2,0.4,3c0.2,1.1,0.3,2.2,0.5,3.3c0.1,0.6,0.2,1.3,0.3,1.9
		c0,0.4,0.1,0.9,0.1,1.3c0,1.4-0.3,2.8-0.7,4.1c-0.6,1.9-1.1,3.7-1.7,5.6c-0.6,2-1.1,3.9-1.7,5.9c-0.2,0.8-0.5,1.7-0.9,2.5
		c-0.1,0.3-0.2,0.5-0.3,0.8c-0.2,0.4-0.2,0.9-0.2,1.4c0,1.1-0.1,2.2-0.2,3.3c-0.1,1.2,0,2.4,0.4,3.5c0.1,0.2,0.1,0.4,0.2,0.5
		c0.2,0.6,0.6,1,1.1,1.3c0.5,0.3,0.9,0.7,1.3,1.2c0.1,0.2,0.2,0.3,0.3,0.5c0.1,0.2,0.1,0.4-0.1,0.6c-0.1,0.1-0.2,0.2-0.3,0.3
		c-0.7,0.5-1.5,0.8-2.3,1c-0.5,0.1-1,0.1-1.5,0c-0.6-0.1-1.2-0.2-1.8-0.3c-0.2,0-0.4,0-0.5,0.2c-0.1,0.1-0.2,0.2-0.3,0.3
		c-0.4,0.3-0.7,0.3-1.1,0.1c-0.3-0.2-0.6-0.4-0.8-0.8c-0.4-0.7-0.6-1.4-0.7-2.2c0-0.8,0.2-1.6,0.3-2.3c0.1-0.5,0.1-1.1,0.2-1.7
		c0-0.7-0.1-1.4-0.3-2.1c0-0.2-0.1-0.3-0.1-0.5c-0.2-0.6-0.1-1.3,0.2-1.8c0.4-0.6,0.6-1.2,0.7-1.9c0.2-0.7,0.2-1.4,0.3-2.1
		c0-1,0-2,0-3.1c0-0.8-0.1-1.6-0.2-2.4c0-0.6-0.1-1.1-0.1-1.7c0-0.6-0.1-1.1-0.2-1.7c0-0.5-0.1-1-0.1-1.4c-0.1-1.6-0.2-3.3-0.2-4.9
		c0-2,0.4-4,0.9-5.9c0.2-0.8,0.4-1.6,0.5-2.4c0.1-0.6,0.1-1.2,0.1-1.8c-0.1-0.8-0.1-1.6-0.2-2.4c-0.2-1.3-0.4-2.5-0.5-3.8
		c-0.1-1-0.2-2.1-0.2-3.1c-0.1-0.9-0.1-1.8-0.1-2.7c0-1,0.1-2,0.2-3.1c0.1-1,0.2-2,0.3-3.1c0.1-1.1,0.1-2.2,0-3.3c0-1,0-2-0.1-3
		c0-0.8-0.1-1.6-0.2-2.4c0-0.7-0.1-1.4-0.1-2.2c0-0.6-0.1-1.1-0.1-1.7c0,0,0-0.1,0-0.1c0-0.1-0.1-0.1-0.2-0.1c0,0-0.1,0.1-0.1,0.1
		c-0.1,0.3-0.1,0.7-0.1,1c-0.1,0.9-0.2,1.8-0.3,2.7c-0.2,1.4-0.4,2.7-0.6,4.1c-0.1,0.4-0.1,0.8-0.1,1.2c-0.1,1.7-0.1,3.5,0,5.2
		c0,0.1,0,0.2,0,0.3c0,1.2,0.2,2.3,0.1,3.5c0,0.6,0,1.2,0,1.8c0,0.7-0.1,1.4-0.2,2.1c-0.1,0.7-0.2,1.3-0.3,2
		c-0.2,1.3-0.5,2.6-0.9,3.9c-0.1,0.5-0.3,1-0.4,1.4c-0.2,0.7-0.3,1.4-0.2,2.1c0.1,1,0.2,2.1,0.4,3.1c0.1,1,0.3,2,0.5,3
		c0.1,0.8,0.3,1.5,0.4,2.3c0.1,0.9,0.1,1.8,0,2.7c-0.1,0.8-0.3,1.6-0.5,2.4c-0.2,0.7-0.3,1.5-0.4,2.2c-0.1,1.1-0.3,2.2-0.4,3.3
		c-0.1,1-0.2,2.1-0.1,3.1c0.2,1.4,0.3,2.8,0.5,4.2c0.1,1,0.3,2,0.4,3c0,0.3,0,0.6,0,0.9c0,0.2,0,0.4-0.1,0.6c-0.4,1-0.5,2-0.4,3
		c0.1,0.7,0.2,1.4,0.3,2c0.1,0.5,0.1,1,0,1.6c-0.2,1-0.9,1.7-1.8,2.2c-0.4,0.2-0.8,0.1-1.1-0.2c-0.1-0.1-0.2-0.3-0.3-0.4
		c-0.1-0.1-0.2-0.3-0.3-0.4c-0.1,0-0.2,0-0.3,0.1c-0.6,0.3-1.2,0.4-1.8,0.5c-0.1,0-0.1,0-0.2,0c-1.3-0.1-2.4-0.5-3.3-1.5
		c-0.2-0.3-0.3-0.6-0.3-0.9c0-0.2,0.1-0.3,0.3-0.5c0.2-0.3,0.5-0.5,0.8-0.8c0.4-0.4,0.8-0.7,1.2-1c0.3-0.3,0.6-0.6,0.8-1
		c0.4-0.6,0.5-1.3,0.4-2c0-0.2,0-0.4,0-0.7c0.3-0.9,0.3-1.9,0.3-2.9c0-0.8-0.2-1.6-0.4-2.4c-0.2-0.7-0.4-1.5-0.6-2.2
		c-0.5-1.5-0.9-3.1-1.3-4.6c-0.7-2.8-1.4-5.7-2.1-8.5c-0.3-1-0.4-2.1-0.4-3.1c0-1.7,0.2-3.3,0.5-5c0.2-1.1,0.5-2.1,0.8-3.1
		c0.2-0.9,0.4-1.8,0.5-2.7c0.2-1.5,0.1-3,0.1-4.5c0-1-0.2-2-0.3-2.9c0-0.4-0.2-0.7-0.3-1c-0.5-1.2-1-2.4-1.4-3.7
		c-0.5-1.7-0.9-3.3-1.2-5c-0.1-0.8-0.3-1.6-0.4-2.5c-0.1-0.8-0.2-1.5-0.3-2.3c-0.1-0.5-0.1-1-0.2-1.5c0-0.4-0.1-0.8-0.1-1.2
		c-0.1-1-0.2-2-0.3-3.1c-0.1-0.8-0.1-1.6-0.2-2.4c0-0.1,0-0.2,0-0.3c-0.1-2.1-0.1-4.2,0-6.3c0-0.8,0.1-1.6,0.2-2.3
		c0-0.5,0.1-1.1,0.1-1.6c0.1-0.9,0.2-1.7,0.3-2.5c0.2-1.2,0.4-2.3,0.6-3.5c0.1-0.8,0.3-1.5,0.5-2.3c0.1-0.6,0.3-1.2,0.3-1.8
		c0.1-0.8,0.2-1.6,0.3-2.3c0.1-0.9,0.2-1.7,0.3-2.6c0.1-0.6,0.1-1.2,0.2-1.8c0.1-1.2,0.1-2.3-0.1-3.5c0-0.2,0-0.3-0.1-0.5
		c0-0.1-0.1-0.2-0.2-0.4c-0.1,0.1-0.2,0.2-0.3,0.3c-0.5,1-0.9,2-1.1,3c-0.1,0.6-0.1,1.2-0.1,1.8c0,0.7-0.1,1.4-0.2,2.2
		c-0.2,1.1-0.4,2.1-0.6,3.2c-0.2,1.3-0.4,2.5-0.8,3.8c-0.5,1.7-1.3,3.3-2.5,4.6c-0.2,0.3-0.4,0.6-0.6,0.9c-0.7,1.3-1.3,2.5-2,3.8
		c-0.2,0.3-0.3,0.6-0.5,0.9c-0.3,0.5-0.4,1.1-0.5,1.7c0,0.4,0,0.8,0.1,1.2c0.2,0.8,0.2,1.7,0.1,2.5c-0.5,2.6-1,5.2-1.5,7.8
		c-0.1,0.5-0.2,1-0.3,1.5c0,0.2-0.1,0.4-0.2,0.6c-0.1,0.3-0.4,0.4-0.7,0.4h-0.7c-0.2,0.2-0.3,0.4-0.3,0.6c-0.4,1.1-1.3,1.6-2.4,1.8
		c-0.2,0-0.3,0-0.4-0.2c-0.3-0.5-0.7-0.8-1.2-1.2c-0.1-0.1-0.2-0.2-0.2-0.2c-0.3-0.3-0.5-0.7-0.5-1.2c0-0.6,0-1.2,0-1.8
		c-0.1-1.8-0.1-3.6-0.1-5.5c0-0.2,0-0.4-0.1-0.5c-0.1-0.1-0.3,0-0.4,0c-0.3,0.2-0.6,0.4-0.9,0.7c-0.3,0.3-0.6,0.5-1,0.7
		c-0.4,0.2-0.8,0.2-1.1,0c0,0,0-0.1-0.1-0.1c0-0.1,0-0.2,0.1-0.3c0.9-1.4,1.7-2.9,2.6-4.3c0.7-1,1.4-2,2.3-2.9
		c0.3-0.3,0.7-0.6,1-0.9c0.6-0.5,0.9-1,1.1-1.8c0.1-0.7,0.3-1.5,0.5-2.2c0.5-2.2,1.1-4.4,1.6-6.7c0.1-0.5,0.2-1,0.2-1.5
		c0-0.8,0-1.5,0-2.3c0-1,0.2-1.9,0.5-2.8c0.6-1.8,1.2-3.5,1.9-5.2c0.5-1.1,0.9-2.2,1.1-3.4c0.1-0.6,0.2-1.3,0.2-1.9
		c0-1.1,0-2.3,0-3.4c0-0.8,0.1-1.6,0.2-2.3c0.1-0.8,0.2-1.6,0.3-2.3c0-0.3,0.1-0.7,0.1-1c0-0.7-0.1-1.5-0.2-2.2
		c-0.2-1.1-0.3-2.1-0.3-3.2c0-0.4,0-0.9,0.1-1.3c0.4-1.4,0.8-2.8,1.2-4.2c0.2-0.6,0.4-1.1,0.6-1.6c0.4-1.1,1.2-1.9,2.1-2.5
		c0.9-0.6,1.8-0.9,2.8-1.2c1.9-0.5,3.6-1.3,5.1-2.4c0.8-0.5,1.6-1,2.4-1.4c0.4-0.2,0.8-0.4,1.1-0.7c0.3-0.2,0.5-0.5,0.6-0.8
		c0.4-0.6,0.4-1.3,0.3-1.9c-0.1-0.9-0.3-1.8-0.5-2.7c-0.2-0.7-0.4-1.5-0.9-2.1c-0.4-0.6-0.7-1.3-0.9-2c-0.2-0.6-0.4-1.3-0.5-1.9
		c-0.2-0.7-0.2-1.4,0-2.1c0.2-0.7,0.2-1.4,0.2-2.1c-0.1-0.9-0.1-1.8,0-2.6c0.1-1.1,0.5-2.1,1-3c1.3-2.1,3.1-3.5,5.5-4.1
		c0.7-0.2,1.4-0.2,2-0.2c0.9,0,1.7,0.2,2.5,0.4c0.8,0.3,1.6,0.7,2.3,1.3c1,0.8,1.7,1.9,2.1,3.1c0.4,1.1,0.5,2.2,0.5,3.4
		c0,0.7,0,1.3-0.1,2c-0.1,0.5,0,1,0.1,1.4c0.1,0.4,0.1,0.8,0,1.3c-0.1,1.1-0.4,2.1-0.7,3.1c-0.1,0.3-0.1,0.6-0.2,0.9
		c-0.1,0.6-0.4,1.1-1,1.3c-0.2,0.1-0.3,0.2-0.3,0.4c-0.2,1-0.6,2-0.6,3.1c0,0.5-0.1,1-0.2,1.4c0,0.5-0.1,1,0,1.4
		c0.1,0.4,0.3,0.7,0.7,0.9c0.2,0.1,0.4,0.2,0.6,0.3c3.2,1.4,6.4,2.9,9.6,4.1c1.9,0.7,3.3,1.9,4.2,3.7c0.3,0.6,0.6,1.3,0.8,2
		c0.3,0.8,0.5,1.6,0.6,2.4c0.3,1.6,0.3,3.2-0.1,4.8c-0.1,0.4-0.2,0.9-0.3,1.3c-0.2,0.9-0.1,1.7,0,2.6c0.2,1.1,0.3,2.1,0.5,3.2
		c0.2,1.1,0.3,2.1,0.4,3.2c0.1,0.8,0.1,1.5,0.1,2.3c0,0.7-0.1,1.3-0.2,1.9c-0.2,1.4,0,2.8,0.5,4.1c0.2,0.6,0.5,1.1,0.9,1.7
		c1,1.3,1.5,2.8,1.8,4.3c0.2,1,0.3,2,0.4,3c0,0.7,0.1,1.4,0.2,2.1c0,0.5,0.1,1,0.1,1.4c0.2,1.4,0.4,2.8,0.8,4.1
		c0.5,1.4,0.8,2.8,1.1,4.2c0.1,0.4,0.2,0.9,0.3,1.3c0.2,0.6,0.5,1.1,1.1,1.5c0.7,0.5,1.4,1.1,2,1.7c0.6,0.6,1.1,1.3,1.5,2.1
		c0.3,0.8,0.8,1.4,1.3,2.1C37.9,310.7,38.2,311.4,38.3,312.2z"/>
</g>
<image style="overflow:visible;" width="326" height="72" xlink:href="logo_2x.png"  transform="matrix(0.4444 0 0 0.4444 352 6)">
</image>
</svg>
