<?xml version="1.0" encoding="utf-8"?>
<!-- Generator: Adobe Illustrator 23.0.2, SVG Export Plug-In . SVG Version: 6.00 Build 0)  -->
<svg version="1.1" id="Layer_1" xmlns="http://www.w3.org/2000/svg" xmlns:xlink="http://www.w3.org/1999/xlink" x="0px" y="0px"
	 viewBox="0 0 60 60" style="enable-background:new 0 0 60 60;" xml:space="preserve">
<style type="text/css">
	.st0{fill:#0A72BA;}
</style>
<g>
	<path class="st0" d="M39.5,35.9c-0.7-1.3-1.3-2.7-1.8-4.1c-1.2-3.2-0.8-6.1,1.8-8.5c2.8-2.7,4.9-5.9,6.1-9.6
		c0.7-2.2,0.2-2.6-2.1-2.8c-2.3-0.2-3.4,0.5-4.5,2.6c-2.4,4.9-7.2,7.4-11.3,6.1c-3.6-1.1-5.9-3.7-7.4-7c-0.7-1.4-3.8-2.4-5.4-1.5
		c-1.6,0.9-0.6,2.4-0.3,3.6c1.2,3.4,3.2,6.2,5.8,8.7c2.5,2.4,2.9,5.2,1.8,8.3c-0.6,1.7-1.4,3.4-2.3,5c-2.1,4.4-4.2,8.7-5.4,13.4
		c-0.2,0.8-0.6,1.6,0.1,2.3c1.5,1.3,6.4,0.1,7-1.7c1.3-3.8,2.9-7.4,5.7-10.4c2-2.1,3.1-2.1,5,0.1c2.5,2.8,4.1,5.9,5.2,9.3
		c0.6,2.2,1.5,3.8,3.9,3c4.3,0,4.4-0.2,3.3-3.7C43.7,44.3,41.7,40.1,39.5,35.9z M42.1,50.1c-0.8,0.2-1.5,0.3-1.9-0.9
		c-1.1-3.3-2.6-6.4-4.8-9.2c-0.2-0.3-0.4-0.5-0.6-0.7c-3.3-4-5.7-4.1-9.2-0.5c-2.8,2.9-4.3,6.4-5.7,9.9c-0.4,1-0.8,1.9-2,1.5
		c-1.2-0.5-0.2-1.4,0-2.1c1.2-4.2,3.3-8,5.2-11.9c1.5-3.1,2.9-6.2,1.9-9.7c-0.5-1.8-1.2-3.2-2.5-4.5c-2.2-2.1-3.9-4.4-5.1-7.2
		c-0.2-0.5-0.9-1.1-0.1-1.4c0.6-0.3,0.9,0.3,1.2,0.9c1.7,3.3,4.1,6,7.9,7.3c1.9,0.9,3.9,0.7,5.9,0.5c5.1-1.2,7.8-5,10.5-8.8
		c-0.6,3.4-2.6,5.9-4.9,8.4c-1,1.1-2.1,2-2.5,3.4c-1.4,3.8-0.6,7.5,1.5,10.9c1.9,4.2,4.3,8.3,5.5,12.8
		C42.5,49.1,43.3,49.8,42.1,50.1z"/>
	<path class="st0" d="M53.9,31.9c-1.1-2-0.9-3.4,0.8-5c2.1-1.9,3.8-4.2,4.9-6.8c0.3-0.8,0.7-1.7-0.4-2.3c-1.4-0.7-4.3,0.1-5.3,1.5
		c-2.9,4-6.4,5.5-10.4,1.9c-1.7,1.3-1.5,2.2,0.4,3.2c2.7,1.5,5.4,1.5,8.1-0.1c1.9-1,3.1-2.7,4.5-4.1c-0.9,2.1-2.5,3.8-4.1,5.4
		c-2.3,2.3-2.5,3.8-1.1,6.6c1.7,3.6,3.4,7.3,5.1,10.9c0.2,0.4,1,1.2-0.1,1.5c-0.9,0.3-1-0.5-1.2-1.1c-1-2.5-2.1-4.8-4-6.8
		c-1.4-1.4-2.8-2.7-5.1-1.3c-2.7,1.8-3.3,3.2-2.3,5.9c1-0.2,0.9-0.9,1.2-1.3c2.7-3.6,3-3.6,5.7,0.2c1,1.5,1.8,3.3,2.3,5.1
		c0.5,1.6,3,2.3,5.3,1.6c1.9-0.6,1.1-2,0.8-3.1C58.1,39.8,56,35.8,53.9,31.9z"/>
	<path class="st0" d="M30,18.7c3.4,0,5.9-2.4,5.9-5.6c0-3.2-2.6-5.8-5.9-5.8c-3.2-0.1-6.2,2.8-6.1,5.8C24.1,16.2,26.7,18.7,30,18.7z
		 M29.9,9.6c2.1-0.1,3.7,1.4,3.7,3.4c0,1.9-1.4,3.2-3.4,3.3c-2.1,0.1-3.7-1.5-3.7-3.3C26.4,11.3,28.1,9.7,29.9,9.6z"/>
	<path class="st0" d="M48.8,18.7c-1.4,0.8-2.2-0.3-2.9-1.3c-1.7,2.2-1.7,2.5-0.1,3.4c1.8,0.9,4.3,0.4,5.6-1.1
		c1.4-1.7,1.4-3.5,0.1-5.3c-0.8-1.2-2.1-1.9-3.6-1.7c-1.4,0.2-0.6,1.7-1.2,2.5c1.7-0.6,2.7-0.1,3.2,1.3
		C50.4,17.5,49.7,18.2,48.8,18.7z"/>
	<path class="st0" d="M11.5,21.2c1.4,0.1,2.8,0,3.6-1.1c0.8-1.1-0.7-1.7-0.8-2.8c-1.4,1.6-1.9,1.9-3,1.5C10.5,18.5,10,18,10,17.1
		c0-1.3,0.9-1.9,2.2-2.1c1.1-0.1,0.8-0.8,0.7-1.4c-0.2-0.8-0.7-1-1.5-0.9c-2.1,0.3-3.9,2.2-3.9,4.2C7.4,19.1,9.2,21.1,11.5,21.2z"/>
	<path class="st0" d="M19.7,25.9c0.8-0.5,0.3-1.1-0.3-1.5c-0.3-0.3-0.4-0.9-1.1-0.5c-2.2,0.9-4.3,5.2-3.4,7.3c0.8,2,1.9,4,2.9,5.9
		c0.6-1.1,2.1-1.9,1.2-3.2C17,31,16.3,28.3,19.7,25.9z"/>
	<path class="st0" d="M42.1,37.2c0.9-1.7,1.8-3.4,2.6-5.1c1.4-2.8-0.1-6.7-2.9-8.2c-0.4-0.1-0.6-0.1-0.9,0.1
		c-1.3,0.9-1.2,1.8-0.1,2.6c2.3,1.7,2.6,3.7,0.9,6C40.6,34.2,40.6,35.7,42.1,37.2z"/>
	<path class="st0" d="M15.7,41.9c0.7-1.1,1.5-1.9,1-3.1c-1.6-4-5.5-4.6-8.4-1.4c-1.7,1.9-2.7,4.2-3.6,6.4c-0.2,0.6-0.4,1.4-1.3,1.1
		c-0.9-0.4-0.1-0.9,0-1.4c1.3-4,3.4-7.7,5.4-11.4c1.1-2.2,0.8-4-0.8-5.7c-1-1.2-2.1-2.3-3-3.4c0.2-0.1,0.3-0.3,0.4-0.4
		c4.3,3.6,8.1,4,11.8,1.3c0.5-0.4,1.2-0.7,0.4-1.5C17,21.9,17,21,15.7,21.7c-4.1,2.3-6.8,1.9-9.3-2c-1.2-2-2.8-2.1-4.7-2
		c-1.7,0.1-2,0.9-1.5,2.2c0.8,2,1.8,4,3.4,5.2C7.4,28,7,30.9,4.8,34.5c-2,3.3-3.6,6.9-4.5,10.7c-0.2,1.1,0,1.7,1.1,2
		c2.6,0.8,4.6-0.2,5.7-2.6c0.5-1.3,1.2-2.6,1.9-3.8c2.4-4,3.5-4,6-0.1C15.2,40.9,15.5,41.3,15.7,41.9z"/>
</g>
</svg>
