<?xml version="1.0" encoding="utf-8"?>
<!-- Generator: Adobe Illustrator 23.0.2, SVG Export Plug-In . SVG Version: 6.00 Build 0)  -->
<svg version="1.1" id="Layer_1" xmlns="http://www.w3.org/2000/svg" xmlns:xlink="http://www.w3.org/1999/xlink" x="0px" y="0px"
	 viewBox="0 0 60 60" style="enable-background:new 0 0 60 60;" xml:space="preserve">
<style type="text/css">
	.st0{fill:#0A72BA;}
</style>
<g>
	<path class="st0" d="M35.7,20.1c-2.6,4.2-6.1,7.7-10.2,10.5c-1.2,0.8-2.3,0.8-3.4,0c-4-2.7-7.4-6.1-10-10.2
		c-1.6-2.5-2.5-5.3-1.6-8.3c1.7-5.9,8.3-7.5,13.3-3.1c0.3-0.2,0.6-0.3,0.8-0.6c2.2-2.1,4.7-2.6,7.5-1.6c2.9,1.1,4.8,3.1,5.2,6.3
		C37.6,15.7,36.9,18,35.7,20.1z"/>
	<path class="st0" d="M50.5,37.9c-2.4,3.5-4.7,6.8-7,10.2c-1.2-0.4-2.2-1.1-3.3-1.1c-2.5,0-5.1,0.1-7.6,0.5c-3.6,0.6-7,1.2-10.4-0.5
		c-3.3-1.6-6.8-3-9.9-4.9c-4-2.5-7.8-5.4-11.5-8.3c-0.5-0.4-1-1.6-0.7-1.9c0.4-0.6,1.4-1.2,2.1-1.2c1,0,1.9,0.5,2.9,0.8
		c2.8,1.1,5.5,2.2,8.2,3.2c0.8,0.3,1.6,0.5,2.6,0.8c-0.5,0.4-0.8,0.6-1,0.8c-2.5,2.2-2.1,5,1.1,6.3c0.9,0.3,1.9,0.5,2.9,0.7
		c4.8,1.1,11.6,1.1,14.6,0c-1.5-0.2-3-0.2-4.5-0.2c-1.8,0-3.6,0.1-5.3-0.1c-2.2-0.3-4.4-0.8-6.6-1.3c-1.3-0.3-2.6-1-2.4-2.4
		c0.2-0.9,1.3-1.9,2.2-2.4c1.1-0.5,2.4-0.6,3.6-0.6c2.2-0.1,4.4,0.2,6.6,0c1.6-0.2,3.3-0.6,4.7-1.4c4.2-2.3,8.5-3.2,12.9-1
		C46.7,34.9,48.5,36.5,50.5,37.9z"/>
	<path class="st0" d="M52.6,37.2c-3.1,4.6-6.1,9-9.1,13.5c2.5,1.7,4.9,3.3,7.4,5c3-4.5,6-8.9,9.1-13.5
		C57.5,40.5,55.2,38.9,52.6,37.2z M47.5,51.4c-0.6,0.1-1.2-0.6-2.2-1.2c0.9-0.7,1.4-1.4,1.9-1.4c0.6,0.1,1.3,0.7,1.5,1.2
		C48.8,50.4,48,51.4,47.5,51.4z"/>
</g>
</svg>
