<?xml version="1.0" encoding="utf-8"?>
<!-- Generator: Adobe Illustrator 23.0.2, SVG Export Plug-In . SVG Version: 6.00 Build 0)  -->
<svg version="1.1" id="Layer_1" xmlns="http://www.w3.org/2000/svg" xmlns:xlink="http://www.w3.org/1999/xlink" x="0px" y="0px"
	 viewBox="0 0 60 60" style="enable-background:new 0 0 60 60;" xml:space="preserve">
<style type="text/css">
	.st0{fill:#FFFFFF;stroke:#FFFFFF;stroke-width:0.7657;stroke-miterlimit:10;}
</style>
<g>
	<path class="st0" d="M13.9,18.4c-0.5-0.2-0.7-0.4-0.9-0.8c-0.5-1.1-1.3-1.7-2.5-2.1v-0.3c-0.1-4.4-0.1-8.8-0.1-13.3
		c0-0.6-0.3-1-0.8-1c-0.5,0-0.8,0.4-0.8,1c0,1.8,0,3.5,0,5.3c0,2.7,0,5.5,0,8.3c0,0-0.1,0-0.1,0c-1.3,0.3-2.2,1.1-2.6,2.4
		c-0.1,0.3-0.3,0.3-0.5,0.4c-1.2,0.3-1.9,1.3-1.9,2.4v23.2c0,1.1,0.5,1.9,1.6,2.3c0.4,0.2,1,0.2,1.5,0.2c0.6,0,1.3,0,2,0v8.9
		c-0.3,0-0.5,0.1-0.7,0.1c-1.3,0.2-2.5,0.6-3.6,1.4c-0.5,0.4-0.8,0.9-0.8,1.6c-0.1,0.6,0.3,1,0.8,1h10.4c0.5,0,0.9-0.4,0.8-0.9
		c0-0.4-0.1-0.7-0.3-1.1c-0.4-0.8-1.1-1.2-2-1.5c-0.9-0.3-1.9-0.5-2.9-0.8v-8.8h0.4c0.7,0,1.3,0,2,0c0.4,0,0.8,0,1.1-0.1
		c1.1-0.4,1.7-1.3,1.7-2.7c0-6,0-12,0-18v-4.9C15.5,19.6,14.9,18.7,13.9,18.4z M9.2,17.1c1.1-0.1,2,0.3,2.2,1.1H7.8
		C7.8,17.7,8.5,17.1,9.2,17.1z M12.9,57.7v0.1H6.1v-0.1C8.4,56.8,10.6,56.8,12.9,57.7z M13.9,22.8c0,1,0,2,0,3c0,5.9,0,11.8,0,17.6
		c0,0.2,0,0.4,0,0.6c0,0.4-0.4,0.8-0.8,0.8H6.1c-0.4,0-0.8-0.4-0.8-0.8c0-0.7,0-1.4,0-2.1v-0.4c0.1,0,0.3,0,0.4,0h2.2
		c0.6,0,1-0.3,1-0.9c0-0.5-0.4-0.8-1-0.8H5.3v-2.8h0.8c0.7,0,1.3,0,2,0c0.5,0,0.8-0.4,0.8-0.8c0-0.5-0.4-0.8-0.8-0.8H5.3
		c0-0.9,0-1.8,0-2.7c0-0.1,0.2-0.2,0.3-0.2h2.5c0.3,0,0.6-0.2,0.7-0.5C9,31.6,8.9,31.2,8.7,31c-0.1-0.1-0.4-0.3-0.6-0.3
		c-0.8,0-1.5,0-2.3,0H5.3v-2.9H8c0.6,0,0.9-0.3,0.9-0.8c0-0.5-0.4-0.8-0.9-0.8H5.3v-2.8h2.8c0.5,0,0.8-0.4,0.8-0.8
		c0-0.5-0.4-0.8-0.8-0.8c-0.8,0-1.6,0-2.4,0H5.3c0-0.4,0-0.8,0-1.1c0.1-0.5,0.4-0.7,1-0.7h6.6c0.7,0,1.1,0.4,1,1.1
		C13.8,21.5,13.9,22.1,13.9,22.8z"/>
	<path class="st0" d="M55.4,42.4c-1.3-1.8-3.1-2.8-5.3-2.8c-6.2,0-12.5,0-18.8,0c-0.5,0-1,0.1-1.5,0.2c-3.9,0.9-6.1,5.3-4.4,8.9
		c1.2,2.6,3.4,3.9,6.2,3.9c3,0,6.1,0,9.1,0h9.2c1.9,0,3.5-0.6,4.9-2C56.9,48.5,57.2,45,55.4,42.4z M39.9,51c-0.1,0-0.3,0-0.4,0h-8.1
		c-2.3,0-4.3-1.7-4.7-3.9c-0.6-3,1.7-5.7,4.7-5.7h8.6V51z M50.8,50.9C50.5,51,50.3,51,50,51h-8.4v-9.6c0.1,0,0.2,0,0.3,0h8.2
		c2.4,0,4.7,1.9,4.8,4.7C55,48.5,53.2,50.6,50.8,50.9z"/>
	<path class="st0" d="M44.2,21.2c-4.7,0-8.6,3.9-8.6,8.7c0,4.7,3.9,8.6,8.6,8.6c4.8,0,8.6-3.8,8.6-8.6C53,25.3,49.3,21.2,44.2,21.2z
		 M44.3,36.8c-3.9,0-7-3.1-6.9-6.9c0-3.9,3.1-7,7.2-6.9c3.7,0.1,6.7,3.1,6.7,7C51.2,33.7,48,36.8,44.3,36.8z"/>
	<path class="st0" d="M26.7,13.4c-4.8,0-8.7,3.9-8.7,8.6c0,4.7,3.8,8.6,8.4,8.6c4.9,0.1,8.7-3.9,8.8-8.4
		C35.4,17.4,31.5,13.5,26.7,13.4z M26.9,29c-3.8,0.1-7-2.9-7.1-6.7c-0.1-3.8,2.9-7.1,6.7-7.2c3.8-0.1,7,2.9,7.2,6.8
		C33.7,25.7,30.7,28.9,26.9,29z"/>
	<path class="st0" d="M42.2,1.4c-4.6,0-8.6,3.7-8.6,8.7c0.1,4.6,3.8,8.5,8.6,8.5c5,0,8.7-4,8.6-8.8C50.8,5.2,46.9,1.4,42.2,1.4z
		 M42.5,17c-4.2,0.1-7.2-3.1-7.2-7c0-3.7,3.1-6.9,6.9-6.9c3.9,0,7,3,7,7C49.2,13.8,46.2,16.9,42.5,17z"/>
	<path class="st0" d="M12.9,57.8c-2.3,0-4.5,0-6.8,0c0,0,0-0.1,0-0.1c2.3-0.9,4.5-0.9,6.8,0C12.9,57.7,12.9,57.7,12.9,57.8z"/>
	<path class="st0" d="M11.4,18.2c-1.2,0-2.4,0-3.7,0c0.1-0.5,0.7-1,1.4-1.1C10.3,16.9,11.1,17.4,11.4,18.2z"/>
	<path class="st0" d="M50.3,29.8c0,0.5-0.4,0.8-1,0.8c-1.7,0-3.4,0-5.1,0v0h-5c-0.6,0-1-0.3-1-0.8c0-0.5,0.4-0.8,1-0.8h10.1
		C49.9,29,50.3,29.3,50.3,29.8z"/>
	<path class="st0" d="M32.4,22.1c0,0.5-0.4,0.8-1,0.8h-3.9v4c0,0.6-0.3,0.9-0.8,0.9c-0.5,0-0.8-0.3-0.8-0.9v-3.9c-0.1,0-0.3,0-0.4,0
		h-3.5c-0.6,0-1-0.3-1-0.9c0-0.5,0.4-0.8,1-0.8h3.9v-0.4c0-1.1,0-2.3,0-3.4c0-0.7,0.3-1,0.8-1c0.6,0,0.8,0.4,0.8,1v3.9h3.9
		C31.9,21.2,32.4,21.6,32.4,22.1z"/>
	<path class="st0" d="M46.1,12.7c0.4,0.5,0.5,1,0.1,1.3c-0.4,0.4-0.9,0.3-1.3-0.1c-0.8-0.8-1.6-1.7-2.5-2.5
		c-0.1-0.1-0.2-0.2-0.3-0.3c-0.6,0.6-1.2,1.3-1.8,1.9c-0.3,0.3-0.6,0.6-0.9,0.9c-0.4,0.4-0.9,0.4-1.3,0.1c-0.3-0.3-0.3-0.8,0.1-1.3
		c0.8-0.9,1.7-1.7,2.6-2.6c0.1-0.1,0.1-0.1,0.3-0.3c-0.6-0.5-1.1-1.1-1.6-1.6c-0.4-0.4-0.8-0.8-1.2-1.2c-0.4-0.4-0.4-0.9-0.1-1.3
		c0.3-0.4,0.9-0.4,1.3,0c0.9,0.8,1.7,1.7,2.6,2.6C42,8.6,42,8.7,42.2,8.8c0.7-0.8,1.5-1.5,2.2-2.2c0.2-0.2,0.4-0.4,0.6-0.6
		c0.4-0.4,0.9-0.4,1.2,0c0.3,0.3,0.3,0.8-0.1,1.2c-0.8,0.8-1.7,1.7-2.5,2.5c-0.1,0.1-0.2,0.2-0.3,0.3c0.4,0.4,0.9,0.9,1.3,1.3
		C45.1,11.8,45.6,12.2,46.1,12.7z"/>
</g>
</svg>
