<?xml version="1.0" encoding="utf-8"?>
<!-- Generator: Adobe Illustrator 23.0.2, SVG Export Plug-In . SVG Version: 6.00 Build 0)  -->
<svg version="1.1" id="Layer_1" xmlns="http://www.w3.org/2000/svg" xmlns:xlink="http://www.w3.org/1999/xlink" x="0px" y="0px"
	 viewBox="0 0 60 60" style="enable-background:new 0 0 60 60;" xml:space="preserve">
<style type="text/css">
	.st0{fill:#FFFFFF;}
	.st1{fill:#0A72BA;}
</style>
<g>
	<path class="st0" d="M48.5,41.9c0,0.8-0.7,1.4-1.7,1.4c-0.7,0-1.5,0-2.3,0c-0.4,0-0.5,0.1-0.5,0.5c0,0.8,0,1.6,0,2.3
		c0,0.9-0.6,1.6-1.4,1.6s-1.4-0.7-1.4-1.6c0-0.4,0-0.7,0-1.2c-0.1-0.5,0.2-1.2-0.1-1.5c-0.3-0.3-1-0.1-1.6-0.1
		c-0.5,0-1.1,0.1-1.6-0.1c-0.7-0.2-1.2-0.8-1.1-1.4c0.1-0.7,0.7-1.3,1.4-1.3c0.8,0,1.6,0,2.5,0c0.4,0,0.5-0.1,0.5-0.5
		c0-0.7,0-1.5,0-2.2c0-1,0.6-1.8,1.4-1.8c0.8,0,1.4,0.7,1.4,1.8c0,0.7,0,1.4,0,2.1c0,0.4,0.1,0.5,0.5,0.5c0.7,0,1.5,0,2.3,0
		C47.8,40.5,48.5,41.1,48.5,41.9z"/>
	<path class="st0" d="M58.8,31.3H26.6c-0.8,0-1.3,0.6-1.3,1.4c0,0.9,0.5,1.4,1.3,1.4c0.6,0,1.3,0,1.9,0c0.5,0,0.6,0.2,0.5,0.7
		c0,4.8,0,9.6,0,14.4c0,1.9,1,3.3,2.5,3.3c7.3,0,14.6,0,21.9,0c0.2,0,0.4,0,0.6-0.1c1.3-0.4,2-1.6,2-3.4c0-4.7,0-9.5,0-14.2
		c0-0.5,0.1-0.7,0.5-0.6c0.7,0,1.4,0,2.2,0c0.6,0,1.1-0.7,1.1-1.4C60,32,59.5,31.3,58.8,31.3z M54.1,48.9c0,0.8-0.1,0.9-0.7,0.9
		H31.9c-0.7,0-0.7-0.1-0.7-0.9c0-4.7,0-9.4,0-14c0-0.5,0.1-0.7,0.5-0.7c3.7,0,7.3,0,11,0c3.6,0,7.3,0,10.9,0c0.4,0,0.5,0.2,0.5,0.7
		C54.1,39.5,54.1,44.2,54.1,48.9z"/>
	<path class="st0" d="M48.5,41.9c0,0.8-0.7,1.4-1.7,1.4c-0.7,0-1.5,0-2.3,0c-0.4,0-0.5,0.1-0.5,0.5c0,0.8,0,1.6,0,2.3
		c0,0.9-0.6,1.6-1.4,1.6s-1.4-0.7-1.4-1.6c0-0.4,0-0.7,0-1.2c-0.1-0.5,0.2-1.2-0.1-1.5c-0.3-0.3-1-0.1-1.6-0.1
		c-0.5,0-1.1,0.1-1.6-0.1c-0.7-0.2-1.2-0.8-1.1-1.4c0.1-0.7,0.7-1.3,1.4-1.3c0.8,0,1.6,0,2.5,0c0.4,0,0.5-0.1,0.5-0.5
		c0-0.7,0-1.5,0-2.2c0-1,0.6-1.8,1.4-1.8c0.8,0,1.4,0.7,1.4,1.8c0,0.7,0,1.4,0,2.1c0,0.4,0.1,0.5,0.5,0.5c0.7,0,1.5,0,2.3,0
		C47.8,40.5,48.5,41.1,48.5,41.9z"/>
	<path class="st0" d="M18.5,33.3c-0.3,0.7-1.1,1-1.8,0.6c-1.6-0.8-3.1-1.6-4.6-2.4c-0.4-0.2-0.7-0.5-1.2-0.6
		c-1.8-0.7-2.5-2.1-2.7-3.9c-0.2-1.5-0.5-3-1.8-4c-0.8-0.6-1.6-0.9-2.5-0.5c-1,0.4-1.2,1.3-1.2,2.2c-0.1,2.8,0.4,5.4,1.1,8.1
		c0.5,1.9,0.9,3.7,1.5,5.5c0.9,2.6,2.5,3.7,5.2,3.8c1.1,0,2.2,0,3.3-0.1c0.6-0.1,0.8,0.2,0.8,0.7c0,0.4,0.1,0.9,0.1,1.3
		c0,0.4-0.1,0.7-0.5,0.7c-2.1,0.2-4.2,0.2-6.3-0.3c-2.6-0.7-4.2-2.4-4.9-4.8c-1.2-3.9-2.5-7.9-2.9-12c-0.1-0.6,0-1.1,0-1.7
		c0-0.7,0-1.4,0.1-2.1c0.4-3.1,3.4-4.6,6.2-3.7c2.5,0.8,3.8,2.8,4.4,5.2c0.2,0.6,0.3,1.3,0.3,2c0,0.6,0.3,1,0.9,1.3
		c2,1,4.1,2.1,6.1,3.2C18.6,31.9,18.8,32.6,18.5,33.3z"/>
	<path class="st0" d="M55.5,24.2c0,0.8,0,1.6,0,2.5c0,0.3,0,0.5-0.1,0.8c-0.2,0.7-0.9,1.2-1.4,1.1c-0.6-0.1-1.2-0.7-1.2-1.4
		c0-1-0.1-1.9,0-2.9c0.1-0.9-0.3-1.6-1-2.1c-1.1-0.7-2.1-1.5-3.3-1.9c-0.4-0.1-0.6-0.1-0.9,0.2c-1.3,1.2-2.6,2.4-3.9,3.7
		c-0.4,0.4-0.6,0.3-0.9,0c-1.3-1.3-2.6-2.5-3.9-3.7c-0.2-0.2-0.4-0.3-0.7-0.1c-1.3,0.7-2.6,1.4-3.8,2.3c-0.5,0.4-0.8,0.9-0.8,1.6
		c0,1.1,0,2.2,0,3.3c0,1.1-0.8,1.7-1.7,1.5c-0.6-0.2-1-0.6-1-1.3c0-0.3,0-0.7,0-1v-1c-0.5-2.8,0.8-4.5,3-5.9
		c1.3-0.8,2.4-1.7,3.8-2.2c0.9-0.4,1.6-0.2,2.3,0.4c0.9,0.9,1.9,1.8,2.8,2.7c0.3,0.3,0.5,0.3,0.8,0c0.9-0.9,1.8-1.7,2.7-2.6
		c0.7-0.7,1.5-0.9,2.4-0.5c1.6,0.9,3.3,1.6,4.8,2.7C54.8,21.2,55.5,22.5,55.5,24.2z"/>
	<path class="st0" d="M23.6,42.7c0.1,0.8-0.1,1.6-0.3,2.4c-0.8,3.3-1.7,6.6-2.5,9.9c-0.2,0.8-0.7,1.2-1.5,1.1c-0.7,0-1.1-0.4-1.2-1
		c-0.1-0.4,0-0.7,0.1-1c0.6-2.5,1.3-5.1,1.9-7.6c0.3-1.1,0.6-2.3,0.7-3.4c0-0.2,0.1-0.4,0-0.6c-0.2-1.5-0.3-1.6-1.7-1.7
		c-2.2-0.2-4.4-0.4-6.6-0.6c-0.6-0.1-1.3-0.1-1.9-0.2c-0.8-0.1-1.3-0.8-1.2-1.5c0.1-0.8,0.8-1.3,1.6-1.2c3,0.4,6,0.7,9,0.9
		c2.3,0.2,3.3,1.8,3.6,3.8C23.6,42.2,23.6,42.5,23.6,42.7z"/>
	<path class="st0" d="M13.7,12.1c0,3-2.4,5.4-5.4,5.4c-3.1,0-5.5-2.4-5.5-5.5c0-3,2.5-5.5,5.5-5.5C11.3,6.6,13.7,9.1,13.7,12.1z"/>
	<path class="st0" d="M49.4,9.5c0,3.4-2.8,6.3-6.2,6.3c-3.6,0-6.3-2.8-6.3-6.3c0-3.5,2.9-6.4,6.3-6.4C46.6,3.1,49.4,6,49.4,9.5z"/>
	<path class="st0" d="M48.5,41.9c0,0.8-0.7,1.4-1.7,1.4c-0.7,0-1.5,0-2.3,0c-0.4,0-0.5,0.1-0.5,0.5c0,0.8,0,1.6,0,2.3
		c0,0.9-0.6,1.6-1.4,1.6s-1.4-0.7-1.4-1.6c0-0.4,0-0.7,0-1.2c-0.1-0.5,0.2-1.2-0.1-1.5c-0.3-0.3-1-0.1-1.6-0.1
		c-0.5,0-1.1,0.1-1.6-0.1c-0.7-0.2-1.2-0.8-1.1-1.4c0.1-0.7,0.7-1.3,1.4-1.3c0.8,0,1.6,0,2.5,0c0.4,0,0.5-0.1,0.5-0.5
		c0-0.7,0-1.5,0-2.2c0-1,0.6-1.8,1.4-1.8c0.8,0,1.4,0.7,1.4,1.8c0,0.7,0,1.4,0,2.1c0,0.4,0.1,0.5,0.5,0.5c0.7,0,1.5,0,2.3,0
		C47.8,40.5,48.5,41.1,48.5,41.9z"/>
	<polygon class="st0" points="30,34.4 30,50.6 54.7,50.6 54.7,33.2 29.7,33.2 	"/>
	<path class="st1" d="M48.5,41.9c0,0.8-0.7,1.4-1.7,1.4c-0.7,0-1.5,0-2.3,0c-0.4,0-0.5,0.1-0.5,0.5c0,0.8,0,1.6,0,2.3
		c0,0.9-0.6,1.6-1.4,1.6s-1.4-0.7-1.4-1.6c0-0.4,0-0.7,0-1.2c-0.1-0.5,0.2-1.2-0.1-1.5c-0.3-0.3-1-0.1-1.6-0.1
		c-0.5,0-1.1,0.1-1.6-0.1c-0.7-0.2-1.2-0.8-1.1-1.4c0.1-0.7,0.7-1.3,1.4-1.3c0.8,0,1.6,0,2.5,0c0.4,0,0.5-0.1,0.5-0.5
		c0-0.7,0-1.5,0-2.2c0-1,0.6-1.8,1.4-1.8c0.8,0,1.4,0.7,1.4,1.8c0,0.7,0,1.4,0,2.1c0,0.4,0.1,0.5,0.5,0.5c0.7,0,1.5,0,2.3,0
		C47.8,40.5,48.5,41.1,48.5,41.9z"/>
</g>
</svg>
