<?xml version="1.0" encoding="utf-8"?>
<!-- Generator: Adobe Illustrator 23.0.2, SVG Export Plug-In . SVG Version: 6.00 Build 0)  -->
<svg version="1.1" id="Layer_1" xmlns="http://www.w3.org/2000/svg" xmlns:xlink="http://www.w3.org/1999/xlink" x="0px" y="0px"
	 viewBox="0 0 60 60" style="enable-background:new 0 0 60 60;" xml:space="preserve">
<style type="text/css">
	.st0{fill:#FFFFFF;stroke:#FFFFFF;stroke-width:1.0211;stroke-miterlimit:10;}
</style>
<g>
	<g>
		<path class="st0" d="M16.3,11.5c-0.2,0-0.4-0.1-0.6-0.2l-0.6-0.6c-0.7-0.7-1.2-1.7-1.2-2.8s0.4-2,1.2-2.8l1.9-1.9
			c1.5-1.5,4-1.5,5.6,0l0.6,0.6c0.3,0.3,0.3,0.9,0,1.2l-6.3,6.3C16.7,11.4,16.5,11.5,16.3,11.5z M19.7,3.7c-0.6,0-1.2,0.2-1.6,0.7
			l-1.9,1.9c-0.4,0.4-0.7,1-0.7,1.6c0,0.6,0.2,1.2,0.7,1.6l0,0l5.1-5.1l0,0C20.9,3.9,20.3,3.7,19.7,3.7z"/>
	</g>
	<g>
		<path class="st0" d="M42.8,36.4c-0.2,0-0.4-0.1-0.6-0.2l-3-3c-0.3-0.3-0.3-0.9,0-1.2l4.7-4.7c0.3-0.3,0.9-0.3,1.2,0l3,3
			c0.2,0.2,0.2,0.4,0.2,0.6s-0.1,0.4-0.2,0.6l-4.7,4.7C43.2,36.3,43,36.4,42.8,36.4z M41,32.6l1.8,1.8l3.5-3.5l-1.8-1.8L41,32.6z"/>
	</g>
	<g>
		<path class="st0" d="M18.8,51.9c-0.1,0-0.2,0-0.2,0c-0.6-0.2-1.1-0.3-1.5-0.5c-2.6-1-4.9-2.4-6.8-4.2c-3.4-3.2-5.7-7.4-6.4-11.9
			c-1.1-7.1,1.4-14.3,6.7-18.9c1.7-1.5,3.6-2.6,5.7-3.5c0.3-0.1,0.7-0.1,0.9,0.2l5,5c0.2,0.2,0.3,0.5,0.2,0.8
			c-0.1,0.3-0.3,0.5-0.6,0.6c-4.1,1-7.4,3.9-8.7,7.6c-1,3-1,5.9,0.2,8.8c1.3,3.3,4.3,5.9,7.8,6.8c0.3,0.1,0.5,0.3,0.6,0.6
			c0.1,0.3,0,0.6-0.2,0.8c-1.1,1.1-1.7,2.6-1.7,4.1v3c0,0.3-0.1,0.5-0.3,0.7C19.1,51.8,18.9,51.9,18.8,51.9z M16.3,14.5
			c-1.8,0.8-3.4,1.8-4.8,3c-4.8,4.2-7.2,10.9-6.1,17.4c0.7,4.1,2.8,8,5.9,10.9c1.8,1.6,3.9,3,6.3,3.9c0.1,0,0.2,0.1,0.3,0.1V48
			c0-1.6,0.5-3,1.3-4.3c-3.5-1.3-6.4-4.1-7.7-7.4c-1.3-3.3-1.3-6.6-0.2-10c1.3-3.8,4.5-6.8,8.5-8.2L16.3,14.5z"/>
	</g>
	<g>
		<path class="st0" d="M37.7,35.5c-0.2,0-0.4-0.1-0.6-0.2L14.3,12.6c-0.3-0.3-0.3-0.9,0-1.2l9-9c0.3-0.3,0.9-0.3,1.2,0l22.7,22.7
			c0.2,0.2,0.2,0.4,0.2,0.6c0,0.2-0.1,0.4-0.2,0.6l-9,9C38.1,35.5,37.9,35.5,37.7,35.5z M16.1,12l21.6,21.6l7.8-7.8L23.9,4.2
			L16.1,12z"/>
	</g>
	<g>
		<path class="st0" d="M18.8,58.7H1.9c-0.5,0-0.8-0.4-0.8-0.8v-5.6c0-0.5,0.4-0.8,0.8-0.8h16.9c0.5,0,0.8,0.4,0.8,0.8v5.6
			C19.6,58.4,19.2,58.7,18.8,58.7z M2.7,57.1h15.2v-4H2.7V57.1z"/>
	</g>
	<g>
		<path class="st0" d="M58.1,58.7H32.3c-0.5,0-0.8-0.4-0.8-0.8v-5.6c0-0.5,0.4-0.8,0.8-0.8h25.9c0.5,0,0.8,0.4,0.8,0.8v5.6
			C59,58.4,58.6,58.7,58.1,58.7z M33.1,57.1h24.2v-4H33.1V57.1z"/>
	</g>
	<g>
		<path class="st0" d="M32.3,58.7H18.8c-0.5,0-0.8-0.4-0.8-0.8V48c0-2,0.8-3.9,2.2-5.3c1.4-1.5,3.4-2.3,5.4-2.3
			c4.2,0,7.6,3.4,7.6,7.6v9.9C33.1,58.4,32.7,58.7,32.3,58.7z M19.6,57.1h11.8V48c0-3.3-2.7-5.9-5.9-5.9c-1.6,0-3.1,0.6-4.2,1.8
			c-1.1,1.1-1.7,2.6-1.7,4.1V57.1z"/>
	</g>
	<g>
		<path class="st0" d="M47.7,53.1h-6.4c-0.5,0-0.8-0.4-0.8-0.8v-9c0-0.4,0.2-0.7,0.6-0.8l6.4-2c0.3-0.1,0.5,0,0.7,0.1
			c0.2,0.2,0.3,0.4,0.3,0.7v11C48.5,52.7,48.2,53.1,47.7,53.1z M42.2,51.4h4.7v-9l-4.7,1.4V51.4z"/>
	</g>
	<g>
		<path class="st0" d="M34.1,46.3c-0.4,0-0.7-0.2-0.8-0.6l-0.9-3c-0.1-0.2,0-0.4,0.1-0.6c0.1-0.2,0.3-0.3,0.5-0.4l20.2-6.2
			c0.4-0.1,0.9,0.1,1,0.5l0.9,3c0.1,0.4-0.1,0.9-0.5,1l-20.2,6.2C34.2,46.3,34.2,46.3,34.1,46.3z M34.2,43l0.4,1.4l18.6-5.7
			l-0.4-1.4L34.2,43z"/>
	</g>
	<g>
		<path class="st0" d="M25.5,52.4c-1.9,0-3.4-1.5-3.4-3.4c0-0.5,0.4-0.8,0.8-0.8c0.5,0,0.8,0.4,0.8,0.8c0,1,0.8,1.7,1.7,1.7
			c1,0,1.7-0.8,1.7-1.7c0-1-0.8-1.7-1.7-1.7c-0.5,0-0.8-0.4-0.8-0.8c0-0.5,0.4-0.8,0.8-0.8c1.9,0,3.4,1.5,3.4,3.4
			C28.9,50.9,27.3,52.4,25.5,52.4z"/>
	</g>
</g>
</svg>
