<?xml version="1.0" encoding="utf-8"?>
<!-- Generator: Adobe Illustrator 23.0.2, SVG Export Plug-In . SVG Version: 6.00 Build 0)  -->
<svg version="1.1" id="Layer_1" xmlns="http://www.w3.org/2000/svg" xmlns:xlink="http://www.w3.org/1999/xlink" x="0px" y="0px"
	 viewBox="0 0 60 60" style="enable-background:new 0 0 60 60;" xml:space="preserve">
<style type="text/css">
	.st0{fill:#0A72BA;}
</style>
<g>
	<g>
		<path class="st0" d="M50,48.3l0-6.7v-6.3c0-1.2-0.6-2-1.6-2.5c-0.4-0.2-0.8-0.2-1.2-0.2v-6.8c0-0.8-0.5-1.4-1.4-1.4h-2.5
			c-4.3,0-8.5,0-12.8,0c-0.1,0-0.2,0-0.3-0.1c-0.5-0.4-1.1-0.8-1.7-1.3c-0.6-0.5-1.3-1-1.9-1.4c-0.3-0.3-0.7-0.4-1.1-0.4H14.2
			c-1,0-1.5,0.5-1.5,1.5v9.9l0,0c-1.6,0-2.8,1.2-2.8,2.8v21.4c0,0.2,0,0.4,0,0.6c0.3,1.4,1.4,2.3,2.8,2.3h26.5c2.6,0,5.2,0,7.8,0
			c0,0,0,0,0,0c0.8,0,1.5-0.3,2.1-0.8c0.5-0.5,0.8-1.3,0.8-2.1C50,53.8,50,51.1,50,48.3z M12.6,56.5v-21c0-0.1,0-0.2,0-0.3h34.6
			c0.1,0,0.1,0,0.1,0.1v21.4c0,0.1,0,0.1,0,0.1c0,0-0.1,0-0.2,0H12.8c0,0-0.1,0-0.2,0C12.6,56.7,12.6,56.6,12.6,56.5z M15.2,23.9
			l0-0.5L15.2,23.9C15.2,23.9,15.2,23.9,15.2,23.9z M15.4,32.6v-8.7h10c0,0,0,0,0.1,0.1l1.3,1c0.8,0.6,1.5,1.2,2.3,1.8
			c0.3,0.3,0.7,0.4,1.1,0.4h14.3v5.6H15.4z"/>
	</g>
	<g>
		<path class="st0" d="M47.2,15.5v6.1c0,0.3,0,0.6,0,0.9c0,0.6-0.5,1.2-1.2,1.2c-0.1,0-0.1,0-0.1,0c-0.6,0-1.2-0.4-1.3-1
			c0-0.2,0-0.3,0-0.5l0.5,0h-0.5v-5.4c0,0,0-0.1,0-0.1c-1.8,0-3.7,0-5.5,0h-3.3c-1.8,0-3.7,0-5.6,0h0c-0.4,0-0.8-0.1-1.1-0.4
			l-3.6-2.7c0,0,0,0-0.1,0h-10c0,2.1,0,3.2,0,5.2c0,0.5-0.2,0.9-0.5,1.1c-0.3,0.3-0.8,0.3-1.2,0.2c-0.6-0.2-1-0.7-1-1.3v-6.5
			c0-0.9,0.5-1.4,1.4-1.4h11.7c0.3,0,0.7,0.1,0.9,0.3l1.4,1.1c0.7,0.6,1.4,1.1,2.2,1.7c0.1,0.1,0.2,0.1,0.4,0.1h15.1
			C46.7,14.1,47.2,14.7,47.2,15.5z"/>
	</g>
	<g>
		<path class="st0" d="M47.2,5v7c0,0.7-0.5,1.2-1.2,1.3c-0.1,0-0.1,0-0.2,0c-0.6,0-1.1-0.4-1.3-0.9c0-0.2,0-0.4,0-0.5V6.3h-8.7
			c-1.9,0-3.8,0-5.7,0c0,0,0,0,0,0c-0.4,0-0.7-0.1-1-0.3c-0.6-0.4-1.1-0.9-1.7-1.3c-0.6-0.5-1.2-0.9-1.8-1.4
			c-0.1-0.1-0.2-0.1-0.4-0.1c-3.3,0-6.5,0-9.8,0c0,1.4,0,2.7,0,4v0c0,0.4,0,0.8,0,1.3c0,0.7-0.5,1.2-1.2,1.3h-0.1
			c-0.7,0-1.2-0.4-1.3-1.1c-0.1-0.3,0-0.6,0-0.8c0-0.1,0-0.2,0-0.3c0-1.7,0-2.4,0-4V2c0-1,0.5-1.5,1.5-1.5h11.5
			c0.4,0,0.8,0.1,1.2,0.4c0.7,0.5,1.3,1,2,1.5l1.5,1.2c0.1,0.1,0.1,0.1,0.3,0.1l15.1,0c0.2,0,1,0,1.4,0.8C47.2,4.5,47.2,4.8,47.2,5z
			"/>
	</g>
	<g>
		<path class="st0" d="M41.8,19.9c-0.2,0.3-0.5,0.6-0.9,0.6c-0.1,0-0.3,0-0.4,0H19.6c-0.4,0-0.8-0.1-1-0.4c-0.3-0.3-0.4-0.6-0.4-1
			c0-0.8,0.6-1.3,1.4-1.3c0.8,0,1.5,0,2.3,0l18.6,0c0.9,0,1.3,0.5,1.4,0.9C42,19.1,42,19.5,41.8,19.9z"/>
	</g>
	<g>
		<path class="st0" d="M19.6,9.5c4.5,0,8.9,0,13.4,0c2.5,0,4.9,0,7.4,0c0.1,0,0.3,0,0.4,0c0.5,0,0.9-0.6,0.7-1.1
			c-0.1-0.4-0.4-0.6-0.9-0.6c-3.5,0-7,0-10.5,0c-1.2,0-2.4,0-3.6,0c-2.3,0-4.6,0-6.9,0c-0.2,0-0.5,0-0.7,0.2
			c-0.3,0.2-0.3,0.6-0.2,0.9C18.9,9.3,19.2,9.5,19.6,9.5z"/>
		<path class="st0" d="M33.4,10c-3.9,0-7.7,0-11.6,0l-2.2,0c-0.6,0-1.1-0.3-1.3-0.8c-0.2-0.5-0.1-1.1,0.3-1.5c0.3-0.3,0.7-0.3,1-0.3
			l21,0c0.7,0,1.2,0.3,1.4,1c0.1,0.4,0,0.8-0.2,1.1c-0.2,0.3-0.6,0.5-1,0.6c-0.1,0-0.2,0-0.3,0l-2.4,0C36.5,10,34.9,10,33.4,10z
			 M19.6,9l2.2,0c3.9,0,7.7,0,11.6,0c1.6,0,3.1,0,4.7,0l2.4,0c0.1,0,0.2,0,0.3,0c0.1,0,0.2-0.1,0.2-0.1C41,8.8,41,8.7,41,8.6
			c0-0.1-0.1-0.2-0.4-0.2l-21,0c-0.2,0-0.3,0-0.3,0.1c-0.1,0.1-0.1,0.2-0.1,0.4C19.2,8.9,19.3,9,19.6,9L19.6,9z"/>
	</g>
	<g>
		<path class="st0" d="M28.6,40.2L28.6,40.2C28.6,40.2,28.6,40.2,28.6,40.2L28.6,40.2z"/>
		<g>
			<path class="st0" d="M36.3,43.4L36.3,43.4c-0.4,0-0.9,0-1.3,0h-2.3v-3.2c0-0.9-0.3-1.5-1-2c-0.8-0.7-1.7-0.8-2.7-0.5
				c-1,0.4-1.5,1.1-1.7,2.1c-0.1,0.3,0,0.7,0,1v0.3c0,0.1,0,0.2,0,0.3v2l-2-0.1c-0.4,0-0.8,0-1.2,0c-0.7,0-1.2,0.2-1.7,0.6
				c-0.7,0.6-1.1,1.3-1,2.2c0.1,1.1,0.5,1.8,1.6,2.4c0.4,0.2,0.8,0.3,1.4,0.2h0.8l2.1-0.2l0.1,2.5c0,0.5,0,0.9,0,1.3
				c0.1,0.7,0.5,1.4,1.1,1.8c0.5,0.3,1,0.5,1.6,0.5c0.1,0,0.3,0,0.4,0c1.4-0.2,2.3-1.4,2.3-2.7v-3.2h2.8c0.4,0,0.7,0,1-0.1
				c1.2-0.3,2.1-1.4,2.1-2.7C38.6,44.7,37.5,43.5,36.3,43.4z"/>
		</g>
	</g>
	<g>
		<path class="st0" d="M41.9,29.5c-0.1,0.6-0.6,1-1.2,1.1c-0.1,0-0.2,0-0.3,0H19.6c-0.7,0-1.2-0.3-1.4-0.9c-0.1-0.4-0.1-0.8,0.1-1.2
			c0.2-0.4,0.6-0.6,1-0.7c0.1,0,0.2,0,0.3,0l12.2,0l8.5,0c0.3,0,0.5,0,0.8,0.1C41.7,28.3,42,28.8,41.9,29.5z"/>
	</g>
</g>
</svg>
