<?xml version="1.0" encoding="utf-8"?>
<!-- Generator: Adobe Illustrator 23.0.2, SVG Export Plug-In . SVG Version: 6.00 Build 0)  -->
<svg version="1.1" id="Layer_1" xmlns="http://www.w3.org/2000/svg" xmlns:xlink="http://www.w3.org/1999/xlink" x="0px" y="0px"
	 viewBox="0 0 60 60" style="enable-background:new 0 0 60 60;" xml:space="preserve">
<style type="text/css">
	.st0{fill:#E6E7E8;}
	.st1{fill:#939598;}
	.st2{fill:#58595B;}
	.st3{fill:#27AAE1;}
	.st4{fill:url(#SVGID_1_);}
	.st5{fill:#FFFFFF;}
	.st6{fill:#E6E7E8;stroke:#BCBEC0;stroke-width:0.2729;stroke-miterlimit:10;}
	.st7{fill:#056675;}
	.st8{fill:#464657;}
	.st9{fill:#9ED9DC;}
	.st10{fill:#273C40;}
	.st11{fill:#BEE5E6;}
	.st12{fill:#0491A0;}
	.st13{fill:#DCF0F2;}
	.st14{fill:#AF1F23;}
	.st15{fill:#F8A37D;}
	.st16{fill:#713215;}
	.st17{fill:#54220E;}
	.st18{fill:#FCCAAB;}
	.st19{fill:#692B11;}
	.st20{fill:#7E3E1B;}
	.st21{fill:#E2A673;}
	.st22{fill:#FCBC7E;}
	.st23{fill:url(#SVGID_2_);}
	.st24{fill:#08BAB5;}
	.st25{fill:#DFF2F3;}
	.st26{fill:#61C6C7;}
	.st27{fill:url(#SVGID_3_);}
	.st28{fill:#371310;}
	.st29{fill:#EF966E;}
	.st30{fill:url(#SVGID_4_);}
	.st31{fill:#FBBF9A;}
	.st32{fill:#E6E7E8;stroke:#BCBEC0;stroke-width:0.3521;stroke-miterlimit:10;}
	.st33{fill:none;stroke:#E6E7E8;stroke-width:0.232;stroke-miterlimit:10;}
	.st34{fill:none;stroke:#E6E7E8;stroke-width:0.16;stroke-miterlimit:10;}
</style>
<g>
	<g>
		<g>
			<path class="st0" d="M55.9,49.7H38.7c-1.5,0-2.7-1.2-2.7-2.7V9.4c0-1.5,1.2-2.7,2.7-2.7h17.1c1.5,0,2.7,1.2,2.7,2.7V47
				C58.6,48.5,57.4,49.7,55.9,49.7z"/>
			<line class="st0" x1="36" y1="10.5" x2="58.6" y2="10.5"/>
			<line class="st0" x1="36" y1="45.9" x2="58.6" y2="45.9"/>
			<path class="st1" d="M51.7,9h-8.9c-0.2,0-0.3-0.1-0.3-0.3v0c0-0.2,0.1-0.3,0.3-0.3h8.9c0.2,0,0.3,0.1,0.3,0.3v0
				C52,8.9,51.9,9,51.7,9z"/>
			<circle class="st2" cx="53.5" cy="8.6" r="0.7"/>
			<circle cx="53.5" cy="8.6" r="0.4"/>
			<rect x="36" y="10.5" class="st3" width="22.6" height="2.8"/>
			<linearGradient id="SVGID_1_" gradientUnits="userSpaceOnUse" x1="37.001" y1="58.7753" x2="53.8972" y2="10.1824">
				<stop  offset="1.955307e-02" style="stop-color:#00A79D"/>
				<stop  offset="1" style="stop-color:#662D91"/>
			</linearGradient>
			<rect x="36" y="13.3" class="st4" width="22.6" height="31.7"/>
			<g>
				<path class="st5" d="M54,12.2c0.2-0.2,0.2-0.4,0.2-0.7c-0.1-0.3-0.3-0.5-0.6-0.5c-0.5-0.1-1,0.4-0.9,0.9c0,0.2,0.2,0.4,0.4,0.5
					c0.2,0.1,0.5,0.1,0.7,0l0.3,0.4c0,0.1,0.1,0.1,0.2,0l0,0c0.1,0,0.1-0.1,0-0.2L54,12.2z M53.6,12.2c-0.1,0-0.1,0-0.2,0
					c-0.3,0-0.5-0.2-0.5-0.5s0.2-0.5,0.5-0.5c0.3,0,0.5,0.2,0.5,0.5c0,0.1,0,0.2-0.1,0.3C53.8,12.1,53.7,12.1,53.6,12.2z"/>
			</g>
			<polygon class="st5" points="56.6,11.1 56.8,11.6 57.4,11.7 57,12.1 57.1,12.7 56.6,12.4 56.1,12.7 56.2,12.1 55.7,11.7 
				56.3,11.6 			"/>
			<g>
				<path class="st5" d="M39.1,35.9h-0.9v1h-0.6v-2.3h0.6v0.9h0.9v-0.9h0.6v2.3h-0.6V35.9z"/>
				<path class="st5" d="M41.2,35h-0.9v0.5h0.8v0.4h-0.8v0.5h0.9v0.5h-1.4v-2.3h1.4V35z"/>
				<path class="st5" d="M42.7,36.4h-0.9l-0.1,0.4h-0.6l0.8-2.3h0.7l0.8,2.3h-0.6L42.7,36.4z M42.3,35.2L42,36h0.6L42.3,35.2z"/>
				<path class="st5" d="M44,34.5v1.9h0.7v0.4h-1.3v-2.3H44z"/>
				<path class="st5" d="M44.5,34.5h1.8V35h-0.6v1.9h-0.6V35h-0.6V34.5z"/>
				<path class="st5" d="M47.8,35.9h-0.9v1h-0.6v-2.3h0.6v0.9h0.9v-0.9h0.6v2.3h-0.6V35.9z"/>
				<path class="st5" d="M49.5,34.5c0.5,0,1,0.3,1.1,0.8H50c-0.1-0.2-0.3-0.3-0.5-0.3c-0.3,0-0.6,0.3-0.6,0.7c0,0.4,0.2,0.7,0.6,0.7
					c0.2,0,0.4-0.1,0.5-0.3h0.6c-0.1,0.5-0.5,0.8-1.1,0.8c-0.7,0-1.2-0.5-1.2-1.2C48.3,35,48.8,34.5,49.5,34.5z"/>
				<path class="st5" d="M51.6,34.5c0.6,0,0.8,0.3,0.8,0.7c0,0.3-0.2,0.6-0.5,0.7l0.5,0.9h-0.6L51.3,36h-0.1v0.9h-0.6v-2.3H51.6z
					 M51.6,35h-0.3v0.6h0.3c0.2,0,0.3-0.1,0.3-0.3C51.9,35.1,51.8,35,51.6,35z"/>
				<path class="st5" d="M52.5,34.5H53v1.4c0,0.3,0.1,0.4,0.4,0.4c0.3,0,0.4-0.2,0.4-0.4v-1.4h0.6v1.4c0,0.6-0.4,1-1,1
					c-0.5,0-1-0.3-1-1V34.5z"/>
				<path class="st5" d="M54.5,34.5h0.7l0.6,1.6l0.6-1.6h0.7v2.3h-0.6v-1.4l-0.5,1.4h-0.5l-0.5-1.4v1.4h-0.6V34.5z"/>
			</g>
			<path class="st0" d="M36,22.3L36,22.3c-0.4,0-0.7-0.3-0.7-0.7v-4.9c0-0.4,0.3-0.7,0.7-0.7l0,0V22.3z"/>
			<path class="st0" d="M58.6,24.7L58.6,24.7c0.4,0,0.7-0.3,0.7-0.7v-5.9c0-0.4-0.3-0.7-0.7-0.7l0,0V24.7z"/>
			<path class="st0" d="M36,28.9L36,28.9c-0.4,0-0.7-0.3-0.7-0.7v-4.9c0-0.4,0.3-0.7,0.7-0.7l0,0V28.9z"/>
			<circle class="st6" cx="47.3" cy="47.4" r="1.5"/>
			<g>
				<path class="st5" d="M38.6,37.6L38.6,37.6l0.1,0.6h-0.1V37.6z"/>
				<path class="st5" d="M39.2,37.9c0-0.1-0.1-0.1-0.1-0.1c-0.1,0-0.1,0-0.1,0.2v0.3h-0.1v-0.5h0.1v0.1c0,0,0.1-0.1,0.2-0.1
					C39.1,37.7,39.2,37.7,39.2,37.9l0.1,0.3h-0.1V37.9z"/>
				<path class="st5" d="M39.6,37.7c0.1,0,0.1,0,0.2,0.1v-0.2h0.1v0.6h-0.1v-0.1c0,0.1-0.1,0.1-0.2,0.1c-0.1,0-0.2-0.1-0.2-0.2
					C39.3,37.8,39.4,37.7,39.6,37.7z M39.6,37.7c-0.1,0-0.2,0.1-0.2,0.2c0,0.1,0.1,0.2,0.2,0.2c0.1,0,0.2-0.1,0.2-0.2
					C39.7,37.8,39.7,37.7,39.6,37.7z"/>
				<path class="st5" d="M39.9,37.6C39.9,37.5,40,37.5,39.9,37.6c0.1-0.1,0.1,0,0.1,0C40,37.6,40,37.6,39.9,37.6
					C40,37.6,39.9,37.6,39.9,37.6z M39.9,37.7L39.9,37.7l0.1,0.5h-0.1V37.7z"/>
				<path class="st5" d="M40.3,37.7c0.1,0,0.1,0,0.2,0.1v-0.1h0.1v0.5h-0.1v-0.1c0,0.1-0.1,0.1-0.2,0.1c-0.1,0-0.2-0.1-0.2-0.2
					C40.1,37.8,40.2,37.7,40.3,37.7z M40.4,37.7c-0.1,0-0.2,0.1-0.2,0.2c0,0.1,0.1,0.2,0.2,0.2c0.1,0,0.2-0.1,0.2-0.2
					C40.5,37.8,40.4,37.7,40.4,37.7z"/>
				<path class="st5" d="M40.7,37.5L40.7,37.5l0.1,0.2h-0.1L40.7,37.5z"/>
				<path class="st5" d="M41,38.2c-0.1,0-0.2-0.1-0.2-0.1h0.1C40.9,38.1,41,38.1,41,38.2c0.1-0.1,0.1-0.1,0.1-0.1
					c0-0.1-0.3,0-0.3-0.2c0-0.1,0.1-0.1,0.2-0.1c0.1,0,0.2,0.1,0.2,0.1h-0.1c0,0,0-0.1-0.1-0.1c-0.1,0-0.1,0-0.1,0.1
					c0,0.1,0.3,0.1,0.3,0.2C41.2,38.1,41.1,38.2,41,38.2z"/>
				<path class="st5" d="M41.5,37.6h0.3v0.1L41.5,37.6l0.1,0.3h0.2v0.1h-0.2v0.3h-0.1V37.6z"/>
				<path class="st5" d="M42,37.6C42,37.5,42,37.5,42,37.6c0.1-0.1,0.1,0,0.1,0C42.1,37.6,42,37.6,42,37.6C42,37.6,42,37.6,42,37.6z
					 M42,37.7L42,37.7l0.1,0.5H42V37.7z"/>
				<path class="st5" d="M42.3,38.1L42.3,38.1l-0.1-0.5h0.1v0.1c0-0.1,0.1-0.1,0.2-0.1v0.1h0c-0.1,0-0.1,0-0.1,0.1V38.1z"/>
				<path class="st5" d="M42.7,38.2c-0.1,0-0.2-0.1-0.2-0.1h0.1C42.6,38.1,42.6,38.1,42.7,38.2c0.1-0.1,0.1-0.1,0.1-0.1
					c0-0.1-0.3,0-0.3-0.2c0-0.1,0.1-0.1,0.2-0.1c0.1,0,0.2,0.1,0.2,0.1h-0.1c0,0,0-0.1-0.1-0.1c-0.1,0-0.1,0-0.1,0.1
					c0,0.1,0.3,0.1,0.3,0.2C42.8,38.1,42.8,38.2,42.7,38.2z"/>
				<path class="st5" d="M43,37.7L43,37.7L43,37.7L43,37.7v-0.2h0.1L43,37.7l0.2-0.1v0.1H43l0.1,0.3c0,0,0,0.1,0.1,0.1h0.1v0.1h-0.1
					c-0.1,0-0.1,0-0.1-0.1V37.7z"/>
				<path class="st5" d="M43.8,38.2c-0.2,0-0.3-0.1-0.3-0.3c0-0.2,0.1-0.3,0.3-0.3c0.2,0,0.3,0.1,0.3,0.3
					C44.1,38,43.9,38.2,43.8,38.2z M43.8,38.1c0.1,0,0.2-0.1,0.2-0.2s-0.1-0.2-0.2-0.2c-0.1,0-0.2,0.1-0.2,0.2S43.6,38.1,43.8,38.1z
					"/>
				<path class="st5" d="M44.5,37.9c0-0.1-0.1-0.1-0.1-0.1c-0.1,0-0.1,0-0.1,0.2v0.3h-0.1v-0.5h0.1v0.1c0,0,0.1-0.1,0.2-0.1
					C44.5,37.7,44.6,37.7,44.5,37.9l0.1,0.3h-0.1V37.9z"/>
				<path class="st5" d="M44.7,37.5L44.7,37.5l0.1,0.6h-0.1V37.5z"/>
				<path class="st5" d="M44.9,37.6C44.9,37.5,44.9,37.5,44.9,37.6c0.1-0.1,0.1,0,0.1,0C45,37.6,45,37.6,44.9,37.6
					C44.9,37.6,44.9,37.6,44.9,37.6z M44.9,37.7L44.9,37.7l0.1,0.5h-0.1V37.7z"/>
				<path class="st5" d="M45.5,37.9c0-0.1-0.1-0.1-0.1-0.1c-0.1,0-0.1,0-0.1,0.2v0.3h-0.1v-0.5h0.1v0.1c0,0,0.1-0.1,0.2-0.1
					C45.5,37.7,45.6,37.7,45.5,37.9l0.1,0.3h-0.1V37.9z"/>
				<path class="st5" d="M45.9,38.2c-0.1,0-0.2-0.1-0.2-0.2c0-0.1,0.1-0.2,0.2-0.2c0.1,0,0.2,0.1,0.2,0.2c0,0,0,0,0,0h-0.4
					C45.8,38,45.8,38.1,45.9,38.2C46,38.1,46,38.1,46,38h0.1C46.1,38.1,46,38.2,45.9,38.2z M45.7,37.9H46c0-0.1-0.1-0.1-0.1-0.1
					C45.8,37.7,45.8,37.8,45.7,37.9z"/>
				<path class="st5" d="M46.6,38.2c-0.1,0-0.2-0.1-0.2-0.2h0.1C46.5,38,46.6,38.1,46.6,38.2c0.1-0.1,0.1-0.1,0.1-0.2
					c0-0.2-0.3-0.1-0.3-0.3c0-0.1,0.1-0.2,0.2-0.2c0.1,0,0.2,0.1,0.2,0.2h-0.1c0,0,0-0.1-0.1-0.1c-0.1,0-0.1,0-0.1,0.1
					c0,0.2,0.3,0.1,0.3,0.3C46.8,38.1,46.8,38.2,46.6,38.2z"/>
				<path class="st5" d="M47.4,38.1L47.4,38.1L47.4,38.1c-0.1,0-0.2,0-0.2,0C47,38.2,47,38.1,47,38v-0.3H47v0.3
					c0,0.1,0.1,0.1,0.1,0.1c0.1,0,0.1,0,0.1-0.2v-0.3h0.1V38.1z"/>
				<path class="st5" d="M47.8,37.7c0.1,0,0.2,0.1,0.2,0.2c0,0.1-0.1,0.2-0.2,0.2c-0.1,0-0.1,0-0.2-0.1v0.3h-0.1v-0.7h0.1v0.1
					C47.6,37.7,47.7,37.7,47.8,37.7z M47.7,37.7c-0.1,0-0.2,0.1-0.2,0.2c0,0.1,0.1,0.2,0.2,0.2c0.1,0,0.2-0.1,0.2-0.2
					C47.9,37.8,47.8,37.7,47.7,37.7z"/>
				<path class="st5" d="M48.3,38.2c-0.1,0-0.2-0.1-0.2-0.2c0-0.1,0.1-0.2,0.2-0.2c0.1,0,0.2,0.1,0.2,0.2c0,0,0,0,0,0h-0.4
					C48.1,38,48.2,38.1,48.3,38.2c0.1-0.1,0.1-0.1,0.1-0.2h0.1C48.5,38.1,48.4,38.2,48.3,38.2z M48.1,37.9h0.3
					c0-0.1-0.1-0.1-0.1-0.1C48.2,37.7,48.1,37.8,48.1,37.9z"/>
				<path class="st5" d="M48.7,38.1L48.7,38.1l-0.1-0.5h0.1v0.1c0-0.1,0.1-0.1,0.2-0.1v0.1h0c-0.1,0-0.1,0-0.1,0.1V38.1z"/>
				<path class="st5" d="M49.4,38.2c-0.1,0-0.2-0.1-0.2-0.2h0.1C49.2,38,49.3,38.1,49.4,38.2c0.1-0.1,0.1-0.1,0.1-0.2
					c0-0.2-0.3-0.1-0.3-0.3c0-0.1,0.1-0.2,0.2-0.2c0.1,0,0.2,0.1,0.2,0.2h-0.1c0,0,0-0.1-0.1-0.1c-0.1,0-0.1,0-0.1,0.1
					c0,0.2,0.3,0.1,0.3,0.3C49.6,38.1,49.5,38.2,49.4,38.2z"/>
				<path class="st5" d="M49.9,37.7c0.1,0,0.2,0.1,0.2,0.2c0,0.1-0.1,0.2-0.2,0.2c-0.1,0-0.1,0-0.2-0.1v0.3h-0.1v-0.7h0.1v0.1
					C49.8,37.7,49.8,37.7,49.9,37.7z M49.9,37.7c-0.1,0-0.2,0.1-0.2,0.2c0,0.1,0.1,0.2,0.2,0.2c0.1,0,0.2-0.1,0.2-0.2
					C50.1,37.8,50,37.7,49.9,37.7z"/>
				<path class="st5" d="M50.5,38.2c-0.1,0-0.2-0.1-0.2-0.2c0-0.1,0.1-0.2,0.2-0.2c0.1,0,0.2,0.1,0.2,0.2c0,0,0,0,0,0h-0.4
					C50.3,38,50.4,38.1,50.5,38.2c0.1-0.1,0.1-0.1,0.1-0.2h0.1C50.6,38.1,50.6,38.2,50.5,38.2z M50.3,37.9h0.3
					c0-0.1-0.1-0.1-0.1-0.1C50.4,37.7,50.3,37.8,50.3,37.9z"/>
				<path class="st5" d="M51,37.7c0.1,0,0.2,0.1,0.2,0.2h-0.1C51.1,37.8,51.1,37.7,51,37.7c-0.1,0.1-0.1,0.1-0.1,0.2
					c0,0.1,0.1,0.2,0.1,0.2c0.1,0,0.1,0,0.1-0.1h0.1c0,0.1-0.1,0.2-0.2,0.2c-0.1,0-0.2-0.1-0.2-0.2C50.8,37.8,50.9,37.7,51,37.7z"/>
				<path class="st5" d="M51.3,37.6C51.3,37.5,51.3,37.5,51.3,37.6c0.1-0.1,0.1,0,0.1,0C51.4,37.6,51.4,37.6,51.3,37.6
					C51.3,37.6,51.3,37.6,51.3,37.6z M51.3,37.7L51.3,37.7l0.1,0.5h-0.1V37.7z"/>
				<path class="st5" d="M51.7,37.7c0.1,0,0.1,0,0.2,0.1v-0.1H52v0.5h-0.1v-0.1c0,0.1-0.1,0.1-0.2,0.1c-0.1,0-0.2-0.1-0.2-0.2
					C51.5,37.8,51.6,37.7,51.7,37.7z M51.7,37.7c-0.1,0-0.2,0.1-0.2,0.2c0,0.1,0.1,0.2,0.2,0.2c0.1,0,0.2-0.1,0.2-0.2
					C51.9,37.8,51.8,37.7,51.7,37.7z"/>
				<path class="st5" d="M52.1,37.5L52.1,37.5l0.1,0.6h-0.1V37.5z"/>
				<path class="st5" d="M52.3,37.6C52.3,37.5,52.3,37.5,52.3,37.6c0.1-0.1,0.1,0,0.1,0C52.4,37.6,52.4,37.6,52.3,37.6
					C52.3,37.6,52.3,37.6,52.3,37.6z M52.3,37.7L52.3,37.7l0.1,0.5h-0.1V37.7z"/>
				<path class="st5" d="M52.5,37.7L52.5,37.7L52.5,37.7L52.5,37.7v-0.2h0.1L52.5,37.7l0.2-0.1v0.1H52.5l0.1,0.3c0,0,0,0.1,0.1,0.1
					h0.1v0.1h-0.1c-0.1,0-0.1,0-0.1-0.1V37.7z"/>
				<path class="st5" d="M53.2,37.7L53.2,37.7L53,38.4h-0.1l0.1-0.2l-0.2-0.5h0.1l0.1,0.4L53.2,37.7z"/>
				<path class="st5" d="M53.8,37.5c0.1,0,0.2,0.1,0.3,0.2H54C54,37.7,53.9,37.6,53.8,37.5c-0.1,0.1-0.2,0.2-0.2,0.3
					s0.1,0.2,0.2,0.2c0.1,0,0.2,0,0.2-0.1h0.1c0,0.1-0.1,0.2-0.3,0.2c-0.2,0-0.3-0.1-0.3-0.3C53.5,37.7,53.6,37.5,53.8,37.5z"/>
				<path class="st5" d="M54.2,37.5L54.2,37.5l0.1,0.6h-0.1V37.5z"/>
				<path class="st5" d="M54.4,37.6C54.4,37.5,54.4,37.5,54.4,37.6c0.1-0.1,0.1,0,0.1,0C54.5,37.6,54.5,37.6,54.4,37.6
					C54.4,37.6,54.4,37.6,54.4,37.6z M54.4,37.7L54.4,37.7l0.1,0.5h-0.1V37.7z"/>
				<path class="st5" d="M55,37.9c0-0.1-0.1-0.1-0.1-0.1c-0.1,0-0.1,0-0.1,0.2v0.3h-0.1v-0.5h0.1v0.1c0,0,0.1-0.1,0.2-0.1
					C55,37.7,55,37.7,55,37.9l0.1,0.3H55V37.9z"/>
				<path class="st5" d="M55.2,37.6C55.2,37.5,55.2,37.5,55.2,37.6c0.1-0.1,0.1,0,0.1,0C55.3,37.6,55.2,37.6,55.2,37.6
					C55.2,37.6,55.2,37.6,55.2,37.6z M55.2,37.7L55.2,37.7l0.1,0.5h-0.1V37.7z"/>
				<path class="st5" d="M55.6,37.7c0.1,0,0.2,0.1,0.2,0.2h-0.1C55.7,37.8,55.7,37.7,55.6,37.7c-0.1,0.1-0.1,0.1-0.1,0.2
					c0,0.1,0.1,0.2,0.1,0.2c0.1,0,0.1,0,0.1-0.1h0.1c0,0.1-0.1,0.2-0.2,0.2c-0.1,0-0.2-0.1-0.2-0.2C55.4,37.8,55.5,37.7,55.6,37.7z"
					/>
			</g>
			<g>
				<path class="st7" d="M51.8,32.3h-9.1c-0.3,0-0.6-0.3-0.6-0.6v-13c0-0.3,0.3-0.6,0.6-0.6h9.1c0.3,0,0.6,0.3,0.6,0.6v13
					C52.4,32,52.2,32.3,51.8,32.3z"/>
				<rect x="42.8" y="19.3" class="st8" width="8.8" height="12.4"/>
				<rect x="42.9" y="19.2" class="st9" width="8.8" height="12.4"/>
				<path class="st10" d="M48.5,18.5h-2.4c-0.5,0-1.1,0.2-1.5,0.6l0,0H50l0,0C49.6,18.8,49.1,18.5,48.5,18.5z"/>
				<g>
					<g>
						<polygon class="st11" points="51.7,19.2 42.9,19.2 42.9,31.6 47.9,31.6 51.7,27.7 						"/>
					</g>
				</g>
				<g>
					<rect x="42.8" y="19.1" class="st10" width="9.1" height="0.7"/>
					<rect x="42.8" y="19.1" class="st12" width="9.1" height="0.2"/>
				</g>
				<path class="st8" d="M47.5,29.1l3-0.2l-2.6,2.6h-3.2c0,0,2.3-0.1,2.9-0.7C48.1,30.2,47.5,29.1,47.5,29.1z"/>
				<g>
					<rect x="47.1" y="22.5" class="st10" width="2.2" height="0.1"/>
					<rect x="47.1" y="22.8" class="st10" width="1.6" height="0.1"/>
					<rect x="47.1" y="23.5" class="st10" width="0.8" height="0.1"/>
					<rect x="47.1" y="23.8" class="st10" width="2" height="0.1"/>
					<rect x="44.8" y="28" class="st10" width="0.9" height="0.2"/>
					<rect x="47.8" y="28" class="st10" width="0.9" height="0.2"/>
					<rect x="44.5" y="21.5" class="st13" width="1.9" height="2.7"/>
					<polygon class="st14" points="49.4,21.5 49.8,21.9 50.4,21.1 49.7,21.6 					"/>
					<polygon class="st14" points="49.4,22.5 49.8,22.9 50.4,22.1 49.7,22.6 					"/>
					<polygon class="st14" points="49.4,23.5 49.8,23.9 50.4,23.1 49.7,23.6 					"/>
					<rect x="47.1" y="21.5" class="st10" width="2.2" height="0.1"/>
					<rect x="47.1" y="21.8" class="st10" width="0.5" height="0.1"/>
					<rect x="44.4" y="25.6" class="st10" width="2.1" height="0.1"/>
					<rect x="44.4" y="25.9" class="st10" width="3.7" height="0.1"/>
					<rect x="44.4" y="26.6" class="st10" width="1.8" height="0.1"/>
					<rect x="44.4" y="26.9" class="st10" width="4.7" height="0.1"/>
					<polygon class="st14" points="49.4,24.6 49.8,25 50.4,24.2 49.7,24.7 					"/>
					<polygon class="st14" points="49.4,25.6 49.8,26 50.4,25.2 49.7,25.7 					"/>
					<polygon class="st14" points="49.4,26.6 49.8,27 50.4,26.3 49.7,26.7 					"/>
					<rect x="44.4" y="24.6" class="st10" width="4" height="0.1"/>
					<rect x="44.4" y="24.9" class="st10" width="1.1" height="0.1"/>
					<g>
						<path class="st15" d="M45.7,23c0-0.1-0.3-0.1-0.3,0c0,0.2-0.1,0.3-0.1,0.3s0,0.3,0.2,0.3c0.2,0,0.2-0.3,0.2-0.3
							S45.6,23.2,45.7,23z"/>
						<path class="st16" d="M45,22.9c0,0,0-0.1,0-0.2c0.1-0.1,0.2-0.1,0.2-0.2c0-0.1-0.2-0.2-0.3-0.1C44.6,22.6,44.9,22.9,45,22.9z"
							/>
						<path class="st17" d="M46,22.9c0,0,0-0.1,0-0.2c-0.1-0.1-0.2-0.1-0.2-0.2c0-0.1,0.2-0.2,0.3-0.1C46.4,22.6,46.1,22.9,46,22.9z
							"/>
						<path class="st18" d="M45.9,22.6c0,0.3-0.2,0.6-0.4,0.6c-0.2,0-0.4-0.3-0.4-0.6c0-0.3,0.2-0.5,0.4-0.5
							C45.7,22.1,45.9,22.3,45.9,22.6z"/>
						<path class="st19" d="M46,22.6c0,0.1-0.1-0.1-0.3-0.2c-0.2-0.1-0.2-0.3-0.2-0.4c0.1-0.1,0.3,0,0.4,0.1
							C46,22.4,46,22.6,46,22.6z"/>
						<path class="st20" d="M45,22.6c0,0.1,0.1-0.1,0.3-0.2c0.2-0.1,0.2-0.3,0.2-0.4c-0.1-0.1-0.3,0-0.4,0.1
							C45,22.4,45,22.6,45,22.6z"/>
						<path class="st14" d="M46.2,23.6c-0.1-0.2-0.1-0.3-0.2-0.3c0,0,0,0,0,0l-0.3-0.1c0,0.1-0.2,0.2-0.2,0.2s-0.1,0-0.2-0.2
							L45,23.3c0,0,0,0,0,0c-0.1,0-0.1,0.1-0.2,0.3c0,0,0,0.1,0,0.1H45h0.1h0.4H46H46L46.2,23.6C46.2,23.7,46.2,23.6,46.2,23.6z"/>
					</g>
				</g>
				<path class="st13" d="M47.9,31.6l3.8-3.8c0,0-0.7,0.2-0.8,0.2c-1.1,0.2-2.7,0.1-2.7,0.1s0.2,1.4,0,2.6
					C48.1,30.9,47.9,31.6,47.9,31.6z"/>
				<path class="st8" d="M51.7,19.9v0.3h-0.7v0.1l-8.2,3.6v-4C42.9,19.9,51.8,19.9,51.7,19.9z"/>
				<polygon class="st21" points="43.8,20.1 50.8,20.1 50.7,20 43.9,20 				"/>
				<g>
					<path class="st22" d="M50.3,19.5l-1.9-0.6c-0.2,0-0.3-0.2-0.3-0.3v-0.3c0-0.1-0.1-0.3-0.2-0.3l-0.1,0c-0.1,0-0.2-0.1-0.2-0.2
						l0-0.2c0-0.1-0.2-0.3-0.3-0.3l0,0c0,0-0.1,0-0.1,0l0,0c-0.1,0-0.3,0.1-0.3,0.3l0,0.2c0,0.1-0.1,0.2-0.2,0.2l-0.1,0
						c-0.1,0.1-0.2,0.2-0.2,0.3v0.3c0,0.2-0.1,0.3-0.3,0.3l-1.9,0.6c-0.1,0-0.2,0.1-0.2,0.2l-0.2,0.4h3.5h3.5l-0.2-0.4
						C50.5,19.6,50.4,19.5,50.3,19.5z"/>
					<path class="st21" d="M46.3,19c0.1,0,1.8-0.1,1.8-0.2c0-0.1-1.5,0-1.5,0c0,0,0-0.5,0.1-0.7c0.1-0.1,0.9-0.2,0.9-0.2
						c0,0-0.3,0-0.4,0c-0.1,0-0.1-0.2,0-0.4c0.1-0.2,0.2-0.2,0.2-0.2c0,0,0,0,0,0c-0.1,0-0.3,0.1-0.3,0.3l0,0.2
						c0,0.1-0.1,0.2-0.2,0.2l-0.1,0c-0.1,0.1-0.2,0.2-0.2,0.3v0.3C46.4,18.7,46.3,18.9,46.3,19l-2,0.5c0,0,0,0-0.1,0
						C44.2,19.5,46.2,19,46.3,19z"/>
					<path class="st7" d="M47.4,17.6c0,0.1-0.1,0.1-0.1,0.1s-0.1-0.1-0.1-0.1s0.1-0.1,0.1-0.1S47.4,17.5,47.4,17.6z"/>
				</g>
			</g>
		</g>
		<g>
			<path class="st0" d="M21.9,49.7H4.8C3.3,49.7,2,48.5,2,47V9.4c0-1.5,1.2-2.7,2.7-2.7h17.1c1.5,0,2.7,1.2,2.7,2.7V47
				C24.6,48.5,23.4,49.7,21.9,49.7z"/>
			<line class="st0" x1="2" y1="10.5" x2="24.6" y2="10.5"/>
			<line class="st0" x1="2" y1="45.9" x2="24.6" y2="45.9"/>
			<path class="st1" d="M17.7,9H8.9C8.7,9,8.6,8.9,8.6,8.7v0c0-0.2,0.1-0.3,0.3-0.3h8.9c0.2,0,0.3,0.1,0.3,0.3v0
				C18,8.9,17.9,9,17.7,9z"/>
			<circle class="st2" cx="19.5" cy="8.6" r="0.7"/>
			<circle cx="19.5" cy="8.6" r="0.4"/>
			<rect x="2" y="10.5" class="st3" width="22.6" height="2.8"/>
			<linearGradient id="SVGID_2_" gradientUnits="userSpaceOnUse" x1="3.0137" y1="58.7753" x2="19.9099" y2="10.1824">
				<stop  offset="1.955307e-02" style="stop-color:#F9ED32"/>
				<stop  offset="1" style="stop-color:#662D91"/>
			</linearGradient>
			<rect x="2" y="13.3" class="st23" width="22.6" height="31.7"/>
			<g>
				<path class="st5" d="M20,12.2c0.2-0.2,0.2-0.4,0.2-0.7c-0.1-0.3-0.3-0.5-0.6-0.5c-0.5-0.1-1,0.4-0.9,0.9c0,0.2,0.2,0.4,0.4,0.5
					c0.2,0.1,0.5,0.1,0.7,0l0.3,0.4c0,0.1,0.1,0.1,0.2,0l0,0c0.1,0,0.1-0.1,0-0.2L20,12.2z M19.6,12.2c-0.1,0-0.1,0-0.2,0
					c-0.3,0-0.5-0.2-0.5-0.5s0.2-0.5,0.5-0.5c0.3,0,0.5,0.2,0.5,0.5c0,0.1,0,0.2-0.1,0.3C19.8,12.1,19.7,12.1,19.6,12.2z"/>
			</g>
			<polygon class="st5" points="22.6,11.1 22.8,11.6 23.4,11.7 23,12.1 23.1,12.7 22.6,12.4 22.1,12.7 22.2,12.1 21.8,11.7 
				22.3,11.6 			"/>
			<g>
				<path class="st5" d="M5.1,35.9H4.3v1H3.7v-2.3h0.6v0.9h0.9v-0.9h0.6v2.3H5.1V35.9z"/>
				<path class="st5" d="M7.2,35H6.4v0.5h0.8v0.4H6.4v0.5h0.9v0.5H5.8v-2.3h1.4V35z"/>
				<path class="st5" d="M8.7,36.4H7.9l-0.1,0.4H7.1L8,34.5h0.7l0.8,2.3H8.9L8.7,36.4z M8.3,35.2L8,36h0.6L8.3,35.2z"/>
				<path class="st5" d="M10,34.5v1.9h0.7v0.4H9.4v-2.3H10z"/>
				<path class="st5" d="M10.6,34.5h1.8V35h-0.6v1.9h-0.6V35h-0.6V34.5z"/>
				<path class="st5" d="M13.8,35.9h-0.9v1h-0.6v-2.3h0.6v0.9h0.9v-0.9h0.6v2.3h-0.6V35.9z"/>
				<path class="st5" d="M15.5,34.5c0.5,0,1,0.3,1.1,0.8H16c-0.1-0.2-0.3-0.3-0.5-0.3c-0.3,0-0.6,0.3-0.6,0.7c0,0.4,0.2,0.7,0.6,0.7
					c0.2,0,0.4-0.1,0.5-0.3h0.6c-0.1,0.5-0.5,0.8-1.1,0.8c-0.7,0-1.2-0.5-1.2-1.2C14.4,35,14.8,34.5,15.5,34.5z"/>
				<path class="st5" d="M17.6,34.5c0.6,0,0.8,0.3,0.8,0.7c0,0.3-0.2,0.6-0.5,0.7l0.5,0.9h-0.6L17.4,36h-0.1v0.9h-0.6v-2.3H17.6z
					 M17.6,35h-0.3v0.6h0.3c0.2,0,0.3-0.1,0.3-0.3C17.9,35.1,17.8,35,17.6,35z"/>
				<path class="st5" d="M18.5,34.5h0.6v1.4c0,0.3,0.1,0.4,0.4,0.4s0.4-0.2,0.4-0.4v-1.4h0.6v1.4c0,0.6-0.4,1-1,1c-0.5,0-1-0.3-1-1
					V34.5z"/>
				<path class="st5" d="M20.5,34.5h0.7l0.6,1.6l0.6-1.6h0.7v2.3h-0.6v-1.4l-0.5,1.4h-0.5l-0.5-1.4v1.4h-0.6V34.5z"/>
			</g>
			<path class="st0" d="M2,22.3L2,22.3c-0.4,0-0.7-0.3-0.7-0.7v-4.9c0-0.4,0.3-0.7,0.7-0.7h0V22.3z"/>
			<path class="st0" d="M24.6,24.7L24.6,24.7c0.4,0,0.7-0.3,0.7-0.7v-5.9c0-0.4-0.3-0.7-0.7-0.7l0,0V24.7z"/>
			<path class="st0" d="M2,28.9L2,28.9c-0.4,0-0.7-0.3-0.7-0.7v-4.9c0-0.4,0.3-0.7,0.7-0.7h0V28.9z"/>
			<circle class="st6" cx="13.3" cy="47.4" r="1.5"/>
			<g>
				<path class="st5" d="M4.6,37.6L4.6,37.6l0.1,0.6H4.6V37.6z"/>
				<path class="st5" d="M5.2,37.9c0-0.1-0.1-0.1-0.1-0.1c-0.1,0-0.1,0-0.1,0.2v0.3H4.8v-0.5h0.1v0.1c0,0,0.1-0.1,0.1-0.1
					C5.2,37.7,5.2,37.7,5.2,37.9l0.1,0.3H5.2V37.9z"/>
				<path class="st5" d="M5.6,37.7c0.1,0,0.1,0,0.2,0.1v-0.2h0.1v0.6H5.7v-0.1c0,0.1-0.1,0.1-0.2,0.1c-0.1,0-0.2-0.1-0.2-0.2
					C5.3,37.8,5.4,37.7,5.6,37.7z M5.6,37.7c-0.1,0-0.2,0.1-0.2,0.2c0,0.1,0.1,0.2,0.2,0.2c0.1,0,0.2-0.1,0.2-0.2
					C5.7,37.8,5.7,37.7,5.6,37.7z"/>
				<path class="st5" d="M5.9,37.6C5.9,37.5,6,37.5,5.9,37.6c0.1-0.1,0.1,0,0.1,0C6,37.6,6,37.6,5.9,37.6C6,37.6,5.9,37.6,5.9,37.6z
					 M6,37.7L6,37.7L6,38.1H6V37.7z"/>
				<path class="st5" d="M6.4,37.7c0.1,0,0.1,0,0.2,0.1v-0.1h0.1v0.5H6.5v-0.1c0,0.1-0.1,0.1-0.2,0.1c-0.1,0-0.2-0.1-0.2-0.2
					C6.1,37.8,6.2,37.7,6.4,37.7z M6.4,37.7c-0.1,0-0.2,0.1-0.2,0.2c0,0.1,0.1,0.2,0.2,0.2c0.1,0,0.2-0.1,0.2-0.2
					C6.5,37.8,6.5,37.7,6.4,37.7z"/>
				<path class="st5" d="M6.7,37.5L6.7,37.5l0.1,0.2H6.7L6.7,37.5z"/>
				<path class="st5" d="M7,38.2c-0.1,0-0.2-0.1-0.2-0.1h0.1C6.9,38.1,7,38.1,7,38.2c0.1-0.1,0.1-0.1,0.1-0.1c0-0.1-0.3,0-0.3-0.2
					c0-0.1,0.1-0.1,0.2-0.1c0.1,0,0.2,0.1,0.2,0.1H7.1c0,0,0-0.1-0.1-0.1c-0.1,0-0.1,0-0.1,0.1c0,0.1,0.3,0.1,0.3,0.2
					C7.2,38.1,7.2,38.2,7,38.2z"/>
				<path class="st5" d="M7.6,37.6h0.3v0.1L7.6,37.6l0.1,0.3h0.2v0.1H7.6v0.3H7.6V37.6z"/>
				<path class="st5" d="M8,37.6C8,37.5,8,37.5,8,37.6c0.1-0.1,0.1,0,0.1,0C8.1,37.6,8.1,37.6,8,37.6C8,37.6,8,37.6,8,37.6z M8,37.7
					L8,37.7l0.1,0.5H8V37.7z"/>
				<path class="st5" d="M8.3,38.1L8.3,38.1l-0.1-0.5h0.1v0.1c0-0.1,0.1-0.1,0.2-0.1v0.1h0c-0.1,0-0.1,0-0.1,0.1V38.1z"/>
				<path class="st5" d="M8.7,38.2c-0.1,0-0.2-0.1-0.2-0.1h0.1C8.6,38.1,8.6,38.1,8.7,38.2c0.1-0.1,0.1-0.1,0.1-0.1
					c0-0.1-0.3,0-0.3-0.2c0-0.1,0.1-0.1,0.2-0.1c0.1,0,0.2,0.1,0.2,0.1H8.8c0,0,0-0.1-0.1-0.1c-0.1,0-0.1,0-0.1,0.1
					c0,0.1,0.3,0.1,0.3,0.2C8.9,38.1,8.8,38.2,8.7,38.2z"/>
				<path class="st5" d="M9,37.7L9,37.7L9,37.7L9,37.7v-0.2h0.1L9,37.7l0.2-0.1v0.1H9L9.1,38c0,0,0,0.1,0.1,0.1h0.1v0.1H9.1
					C9,38.1,9,38.1,9,38V37.7z"/>
				<path class="st5" d="M9.8,38.2c-0.2,0-0.3-0.1-0.3-0.3c0-0.2,0.1-0.3,0.3-0.3c0.2,0,0.3,0.1,0.3,0.3C10.1,38,10,38.2,9.8,38.2z
					 M9.8,38.1c0.1,0,0.2-0.1,0.2-0.2s-0.1-0.2-0.2-0.2s-0.2,0.1-0.2,0.2S9.7,38.1,9.8,38.1z"/>
				<path class="st5" d="M10.5,37.9c0-0.1-0.1-0.1-0.1-0.1c-0.1,0-0.1,0-0.1,0.2v0.3h-0.1v-0.5h0.1v0.1c0,0,0.1-0.1,0.1-0.1
					C10.5,37.7,10.6,37.7,10.5,37.9l0.1,0.3h-0.1V37.9z"/>
				<path class="st5" d="M10.7,37.5L10.7,37.5l0.1,0.6h-0.1V37.5z"/>
				<path class="st5" d="M10.9,37.6C10.9,37.5,11,37.5,10.9,37.6c0.1-0.1,0.1,0,0.1,0C11,37.6,11,37.6,10.9,37.6
					C11,37.6,10.9,37.6,10.9,37.6z M10.9,37.7L10.9,37.7l0.1,0.5h-0.1V37.7z"/>
				<path class="st5" d="M11.5,37.9c0-0.1-0.1-0.1-0.1-0.1c-0.1,0-0.1,0-0.1,0.2v0.3h-0.1v-0.5h0.1v0.1c0,0,0.1-0.1,0.1-0.1
					C11.5,37.7,11.6,37.7,11.5,37.9l0.1,0.3h-0.1V37.9z"/>
				<path class="st5" d="M11.9,38.2c-0.1,0-0.2-0.1-0.2-0.2c0-0.1,0.1-0.2,0.2-0.2c0.1,0,0.2,0.1,0.2,0.2c0,0,0,0,0,0h-0.4
					C11.8,38,11.8,38.1,11.9,38.2C12,38.1,12,38.1,12,38h0.1C12.1,38.1,12,38.2,11.9,38.2z M11.8,37.9h0.3c0-0.1-0.1-0.1-0.1-0.1
					C11.8,37.7,11.8,37.8,11.8,37.9z"/>
				<path class="st5" d="M12.7,38.2c-0.1,0-0.2-0.1-0.2-0.2h0.1C12.5,38,12.6,38.1,12.7,38.2c0.1-0.1,0.1-0.1,0.1-0.2
					c0-0.2-0.3-0.1-0.3-0.3c0-0.1,0.1-0.2,0.2-0.2c0.1,0,0.2,0.1,0.2,0.2h-0.1c0,0,0-0.1-0.1-0.1c-0.1,0-0.1,0-0.1,0.1
					c0,0.2,0.3,0.1,0.3,0.3C12.9,38.1,12.8,38.2,12.7,38.2z"/>
				<path class="st5" d="M13.4,38.1L13.4,38.1L13.4,38.1c-0.1,0-0.2,0-0.2,0c-0.1,0-0.2-0.1-0.2-0.2v-0.3H13v0.3
					c0,0.1,0.1,0.1,0.1,0.1c0.1,0,0.1,0,0.1-0.2v-0.3h0.1V38.1z"/>
				<path class="st5" d="M13.8,37.7c0.1,0,0.2,0.1,0.2,0.2c0,0.1-0.1,0.2-0.2,0.2c-0.1,0-0.1,0-0.2-0.1v0.3h-0.1v-0.7h0.1v0.1
					C13.6,37.7,13.7,37.7,13.8,37.7z M13.8,37.7c-0.1,0-0.2,0.1-0.2,0.2c0,0.1,0.1,0.2,0.2,0.2c0.1,0,0.2-0.1,0.2-0.2
					C13.9,37.8,13.8,37.7,13.8,37.7z"/>
				<path class="st5" d="M14.3,38.2c-0.1,0-0.2-0.1-0.2-0.2c0-0.1,0.1-0.2,0.2-0.2c0.1,0,0.2,0.1,0.2,0.2c0,0,0,0,0,0h-0.4
					C14.2,38,14.2,38.1,14.3,38.2c0.1-0.1,0.1-0.1,0.1-0.2h0.1C14.5,38.1,14.4,38.2,14.3,38.2z M14.2,37.9h0.3
					c0-0.1-0.1-0.1-0.1-0.1C14.2,37.7,14.2,37.8,14.2,37.9z"/>
				<path class="st5" d="M14.7,38.1L14.7,38.1l-0.1-0.5h0.1v0.1c0-0.1,0.1-0.1,0.2-0.1v0.1h0c-0.1,0-0.1,0-0.1,0.1V38.1z"/>
				<path class="st5" d="M15.4,38.2c-0.1,0-0.2-0.1-0.2-0.2h0.1C15.3,38,15.3,38.1,15.4,38.2c0.1-0.1,0.1-0.1,0.1-0.2
					c0-0.2-0.3-0.1-0.3-0.3c0-0.1,0.1-0.2,0.2-0.2c0.1,0,0.2,0.1,0.2,0.2h-0.1c0,0,0-0.1-0.1-0.1c-0.1,0-0.1,0-0.1,0.1
					c0,0.2,0.3,0.1,0.3,0.3C15.6,38.1,15.5,38.2,15.4,38.2z"/>
				<path class="st5" d="M15.9,37.7c0.1,0,0.2,0.1,0.2,0.2c0,0.1-0.1,0.2-0.2,0.2c-0.1,0-0.1,0-0.2-0.1v0.3h-0.1v-0.7h0.1v0.1
					C15.8,37.7,15.9,37.7,15.9,37.7z M15.9,37.7c-0.1,0-0.2,0.1-0.2,0.2c0,0.1,0.1,0.2,0.2,0.2c0.1,0,0.2-0.1,0.2-0.2
					C16.1,37.8,16,37.7,15.9,37.7z"/>
				<path class="st5" d="M16.5,38.2c-0.1,0-0.2-0.1-0.2-0.2c0-0.1,0.1-0.2,0.2-0.2c0.1,0,0.2,0.1,0.2,0.2c0,0,0,0,0,0h-0.4
					C16.3,38,16.4,38.1,16.5,38.2c0.1-0.1,0.1-0.1,0.1-0.2h0.1C16.7,38.1,16.6,38.2,16.5,38.2z M16.3,37.9h0.3
					c0-0.1-0.1-0.1-0.1-0.1C16.4,37.7,16.3,37.8,16.3,37.9z"/>
				<path class="st5" d="M17,37.7c0.1,0,0.2,0.1,0.2,0.2h-0.1C17.1,37.8,17.1,37.7,17,37.7c-0.1,0.1-0.1,0.1-0.1,0.2
					c0,0.1,0.1,0.2,0.1,0.2c0.1,0,0.1,0,0.1-0.1h0.1c0,0.1-0.1,0.2-0.2,0.2c-0.1,0-0.2-0.1-0.2-0.2C16.8,37.8,16.9,37.7,17,37.7z"/>
				<path class="st5" d="M17.3,37.6C17.3,37.5,17.3,37.5,17.3,37.6c0.1-0.1,0.1,0,0.1,0C17.4,37.6,17.4,37.6,17.3,37.6
					C17.3,37.6,17.3,37.6,17.3,37.6z M17.3,37.7L17.3,37.7l0.1,0.5h-0.1V37.7z"/>
				<path class="st5" d="M17.7,37.7c0.1,0,0.1,0,0.2,0.1v-0.1H18v0.5h-0.1v-0.1c0,0.1-0.1,0.1-0.2,0.1c-0.1,0-0.2-0.1-0.2-0.2
					C17.5,37.8,17.6,37.7,17.7,37.7z M17.7,37.7c-0.1,0-0.2,0.1-0.2,0.2c0,0.1,0.1,0.2,0.2,0.2c0.1,0,0.2-0.1,0.2-0.2
					C17.9,37.8,17.8,37.7,17.7,37.7z"/>
				<path class="st5" d="M18.1,37.5L18.1,37.5l0.1,0.6h-0.1V37.5z"/>
				<path class="st5" d="M18.3,37.6C18.3,37.5,18.3,37.5,18.3,37.6c0.1-0.1,0.1,0,0.1,0C18.4,37.6,18.4,37.6,18.3,37.6
					C18.3,37.6,18.3,37.6,18.3,37.6z M18.3,37.7L18.3,37.7l0.1,0.5h-0.1V37.7z"/>
				<path class="st5" d="M18.5,37.7L18.5,37.7L18.5,37.7L18.5,37.7v-0.2h0.1L18.5,37.7l0.2-0.1v0.1H18.5l0.1,0.3c0,0,0,0.1,0.1,0.1
					h0.1v0.1h-0.1c-0.1,0-0.1,0-0.1-0.1V37.7z"/>
				<path class="st5" d="M19.2,37.7L19.2,37.7L19,38.4h-0.1l0.1-0.2l-0.2-0.5h0.1l0.1,0.4L19.2,37.7z"/>
				<path class="st5" d="M19.8,37.5c0.1,0,0.2,0.1,0.3,0.2H20C20,37.7,19.9,37.6,19.8,37.5c-0.1,0.1-0.2,0.2-0.2,0.3
					s0.1,0.2,0.2,0.2c0.1,0,0.2,0,0.2-0.1h0.1c0,0.1-0.1,0.2-0.3,0.2c-0.2,0-0.3-0.1-0.3-0.3C19.5,37.7,19.7,37.5,19.8,37.5z"/>
				<path class="st5" d="M20.2,37.5L20.2,37.5l0.1,0.6h-0.1V37.5z"/>
				<path class="st5" d="M20.4,37.6C20.4,37.5,20.4,37.5,20.4,37.6c0.1-0.1,0.1,0,0.1,0C20.5,37.6,20.5,37.6,20.4,37.6
					C20.4,37.6,20.4,37.6,20.4,37.6z M20.4,37.7L20.4,37.7l0.1,0.5h-0.1V37.7z"/>
				<path class="st5" d="M21,37.9c0-0.1-0.1-0.1-0.1-0.1c-0.1,0-0.1,0-0.1,0.2v0.3h-0.1v-0.5h0.1v0.1c0,0,0.1-0.1,0.2-0.1
					C21,37.7,21.1,37.7,21,37.9l0.1,0.3H21V37.9z"/>
				<path class="st5" d="M21.2,37.6C21.2,37.5,21.2,37.5,21.2,37.6c0.1-0.1,0.1,0,0.1,0C21.3,37.6,21.3,37.6,21.2,37.6
					C21.2,37.6,21.2,37.6,21.2,37.6z M21.2,37.7L21.2,37.7l0.1,0.5h-0.1V37.7z"/>
				<path class="st5" d="M21.6,37.7c0.1,0,0.2,0.1,0.2,0.2h-0.1C21.7,37.8,21.7,37.7,21.6,37.7c-0.1,0.1-0.1,0.1-0.1,0.2
					c0,0.1,0.1,0.2,0.1,0.2c0.1,0,0.1,0,0.1-0.1h0.1c0,0.1-0.1,0.2-0.2,0.2c-0.1,0-0.2-0.1-0.2-0.2C21.4,37.8,21.5,37.7,21.6,37.7z"
					/>
			</g>
			<g>
				<g>
					<g>
						<polygon class="st9" points="20.7,31 7.4,31 7.4,20.8 19.4,20.8 						"/>
						<polygon class="st24" points="19.4,20.8 19.3,31 20,31 						"/>
						<rect x="6" y="20.8" class="st11" width="13.4" height="10.2"/>
						<path class="st5" d="M6,20.8v8.5c0.5,0.1,1,0.1,1.6,0.1c5.1,0,9.3-3.8,10-8.7H6z"/>
						<g>
							<rect x="7.3" y="22.7" class="st7" width="0.8" height="0.9"/>
							<rect x="8.9" y="22.7" class="st7" width="0.8" height="0.9"/>
							<rect x="10.6" y="22.7" class="st7" width="0.8" height="0.9"/>
							<rect x="12.2" y="22.7" class="st7" width="0.8" height="0.9"/>
							<rect x="13.9" y="22.7" class="st7" width="0.8" height="0.9"/>
							<rect x="15.5" y="22.7" class="st7" width="0.8" height="0.9"/>
							<rect x="17.1" y="22.7" class="st14" width="0.8" height="0.9"/>
						</g>
						<g>
							<rect x="7.3" y="24.7" class="st7" width="0.8" height="0.9"/>
							<rect x="8.9" y="24.7" class="st7" width="0.8" height="0.9"/>
							<rect x="10.6" y="24.7" class="st7" width="0.8" height="0.9"/>
							<rect x="12.2" y="24.7" class="st7" width="0.8" height="0.9"/>
							<rect x="13.9" y="24.7" class="st7" width="0.8" height="0.9"/>
							<rect x="15.5" y="24.7" class="st7" width="0.8" height="0.9"/>
							<rect x="17.1" y="24.7" class="st14" width="0.8" height="0.9"/>
						</g>
						<g>
							<rect x="7.3" y="26.8" class="st7" width="0.8" height="0.9"/>
							<rect x="8.9" y="26.8" class="st7" width="0.8" height="0.9"/>
							<rect x="10.6" y="26.8" class="st7" width="0.8" height="0.9"/>
							<rect x="12.2" y="26.8" class="st7" width="0.8" height="0.9"/>
							<rect x="13.9" y="26.8" class="st7" width="0.8" height="0.9"/>
							<rect x="15.5" y="26.8" class="st7" width="0.8" height="0.9"/>
							<rect x="17.1" y="26.8" class="st14" width="0.8" height="0.9"/>
						</g>
						<g>
							<rect x="7.3" y="28.8" class="st7" width="0.8" height="0.9"/>
							<rect x="8.9" y="28.8" class="st7" width="0.8" height="0.9"/>
							<rect x="10.6" y="28.8" class="st7" width="0.8" height="0.9"/>
							<rect x="12.2" y="28.8" class="st7" width="0.8" height="0.9"/>
							<rect x="13.9" y="28.8" class="st7" width="0.8" height="0.9"/>
							<rect x="15.5" y="28.8" class="st7" width="0.8" height="0.9"/>
							<rect x="17.1" y="28.8" class="st14" width="0.8" height="0.9"/>
						</g>
						<g>
							<path class="st10" d="M6.5,21.4L6.5,21.4c-0.1,0-0.1-0.1-0.1-0.1v-0.9c0-0.1,0.1-0.1,0.1-0.1l0,0c0.1,0,0.1,0.1,0.1,0.1v0.9
								C6.7,21.4,6.6,21.4,6.5,21.4z"/>
							<path class="st10" d="M7.4,21.4L7.4,21.4c-0.1,0-0.1-0.1-0.1-0.1v-0.9c0-0.1,0.1-0.1,0.1-0.1l0,0c0.1,0,0.1,0.1,0.1,0.1v0.9
								C7.5,21.4,7.4,21.4,7.4,21.4z"/>
							<path class="st10" d="M8.2,21.4L8.2,21.4c-0.1,0-0.1-0.1-0.1-0.1v-0.9c0-0.1,0.1-0.1,0.1-0.1l0,0c0.1,0,0.1,0.1,0.1,0.1v0.9
								C8.3,21.4,8.3,21.4,8.2,21.4z"/>
							<path class="st10" d="M9,21.4L9,21.4c-0.1,0-0.1-0.1-0.1-0.1v-0.9c0-0.1,0.1-0.1,0.1-0.1l0,0c0.1,0,0.1,0.1,0.1,0.1v0.9
								C9.1,21.4,9.1,21.4,9,21.4z"/>
							<path class="st10" d="M9.8,21.4L9.8,21.4c-0.1,0-0.1-0.1-0.1-0.1v-0.9c0-0.1,0.1-0.1,0.1-0.1l0,0c0.1,0,0.1,0.1,0.1,0.1v0.9
								C10,21.4,9.9,21.4,9.8,21.4z"/>
							<path class="st10" d="M10.7,21.4L10.7,21.4c-0.1,0-0.1-0.1-0.1-0.1v-0.9c0-0.1,0.1-0.1,0.1-0.1l0,0c0.1,0,0.1,0.1,0.1,0.1
								v0.9C10.8,21.4,10.7,21.4,10.7,21.4z"/>
							<path class="st10" d="M11.5,21.4L11.5,21.4c-0.1,0-0.1-0.1-0.1-0.1v-0.9c0-0.1,0.1-0.1,0.1-0.1l0,0c0.1,0,0.1,0.1,0.1,0.1
								v0.9C11.6,21.4,11.6,21.4,11.5,21.4z"/>
							<path class="st10" d="M12.3,21.4L12.3,21.4c-0.1,0-0.1-0.1-0.1-0.1v-0.9c0-0.1,0.1-0.1,0.1-0.1l0,0c0.1,0,0.1,0.1,0.1,0.1
								v0.9C12.5,21.4,12.4,21.4,12.3,21.4z"/>
							<path class="st10" d="M13.2,21.4L13.2,21.4c-0.1,0-0.1-0.1-0.1-0.1v-0.9c0-0.1,0.1-0.1,0.1-0.1l0,0c0.1,0,0.1,0.1,0.1,0.1
								v0.9C13.3,21.4,13.2,21.4,13.2,21.4z"/>
							<path class="st10" d="M14,21.4L14,21.4c-0.1,0-0.1-0.1-0.1-0.1v-0.9c0-0.1,0.1-0.1,0.1-0.1l0,0c0.1,0,0.1,0.1,0.1,0.1v0.9
								C14.1,21.4,14.1,21.4,14,21.4z"/>
							<path class="st10" d="M14.8,21.4L14.8,21.4c-0.1,0-0.1-0.1-0.1-0.1v-0.9c0-0.1,0.1-0.1,0.1-0.1l0,0c0.1,0,0.1,0.1,0.1,0.1
								v0.9C15,21.4,14.9,21.4,14.8,21.4z"/>
							<path class="st10" d="M15.7,21.4L15.7,21.4c-0.1,0-0.1-0.1-0.1-0.1v-0.9c0-0.1,0.1-0.1,0.1-0.1l0,0c0.1,0,0.1,0.1,0.1,0.1
								v0.9C15.8,21.4,15.7,21.4,15.7,21.4z"/>
							<path class="st10" d="M16.5,21.4L16.5,21.4c-0.1,0-0.1-0.1-0.1-0.1v-0.9c0-0.1,0.1-0.1,0.1-0.1l0,0c0.1,0,0.1,0.1,0.1,0.1
								v0.9C16.6,21.4,16.6,21.4,16.5,21.4z"/>
							<path class="st10" d="M17.3,21.4L17.3,21.4c-0.1,0-0.1-0.1-0.1-0.1v-0.9c0-0.1,0.1-0.1,0.1-0.1l0,0c0.1,0,0.1,0.1,0.1,0.1
								v0.9C17.4,21.4,17.4,21.4,17.3,21.4z"/>
							<path class="st10" d="M18.1,21.4L18.1,21.4c-0.1,0-0.1-0.1-0.1-0.1v-0.9c0-0.1,0.1-0.1,0.1-0.1l0,0c0.1,0,0.1,0.1,0.1,0.1
								v0.9C18.3,21.4,18.2,21.4,18.1,21.4z"/>
							<path class="st10" d="M19,21.4L19,21.4c-0.1,0-0.1-0.1-0.1-0.1v-0.9c0-0.1,0.1-0.1,0.1-0.1l0,0c0.1,0,0.1,0.1,0.1,0.1v0.9
								C19.1,21.4,19,21.4,19,21.4z"/>
						</g>
					</g>
					<path class="st14" d="M10.4,24.8c-0.1-0.3-0.3-0.5-0.5-0.6c0.1,0,0.2-0.1,0-0.1c0,0-0.1,0-0.1,0C9.6,24,9.2,23.9,8.9,24
						c-0.2,0-0.1,0.1,0,0.1c0.2-0.1,0.4,0,0.6,0c-0.5,0.1-1.1,0.3-1.2,0.9c-0.2,0.7,0.6,1.1,1.1,1.1C10,26,10.6,25.4,10.4,24.8z
						 M9.3,26c-0.5,0-0.8-0.6-0.8-1c0.1-0.6,0.6-0.7,1.1-0.8c0.2,0.1,0.3,0.3,0.4,0.5C10.4,25.3,10,26,9.3,26z"/>
				</g>
				<g>
					<g>
						<path class="st25" d="M20,30c0,0-0.1-0.1-0.1-0.1c-0.1,0-0.1,0-0.1,0.1l0.1,2.5c0,0,0.1,0.1,0.1,0.1c0.1,0,0.1,0,0.1-0.1
							L20,30z"/>
						
							<rect x="20" y="30.7" transform="matrix(0.9998 -2.195141e-02 2.195141e-02 0.9998 -0.6802 0.467)" class="st26" width="1.9" height="1.1"/>
						<path class="st25" d="M12.2,30.9l0,1.1c0,0.1,0.1,0.2,0.2,0.2l7.4-0.1l0-1.5l-7.4,0.1C12.3,30.7,12.2,30.7,12.2,30.9z"/>
						
							<rect x="11.6" y="31.2" transform="matrix(0.9998 -2.163887e-02 2.163887e-02 0.9998 -0.6769 0.2651)" class="st25" width="0.7" height="0.5"/>
						
							<rect x="10.7" y="31.1" transform="matrix(0.9998 -2.210559e-02 2.210559e-02 0.9998 -0.6919 0.256)" class="st7" width="1.1" height="0.7"/>
						<polygon class="st10" points="5.7,31.5 6.1,31.6 10.7,31.5 10.7,31.4 						"/>
						
							<rect x="11.7" y="31" transform="matrix(0.9997 -2.242618e-02 2.242618e-02 0.9997 -0.7012 0.2717)" class="st7" width="0.1" height="0.8"/>
						<polygon class="st9" points="14.8,30.8 14.8,31.9 19.8,31.8 19.7,30.7 						"/>
						<polygon class="st25" points="14.8,31.3 14.8,31.4 21.8,31.3 21.8,31.1 						"/>
						
							<rect x="12.6" y="30.8" transform="matrix(0.9998 -2.151248e-02 2.151248e-02 0.9998 -0.6715 0.2995)" class="st14" width="2" height="1.1"/>
						
							<rect x="14.6" y="30.8" transform="matrix(0.9998 -2.148925e-02 2.148925e-02 0.9998 -0.67 0.3229)" class="st10" width="0.2" height="1.1"/>
						<path class="st9" d="M22,30.5c0,0-0.1,0-0.1,0c-0.1,0-0.1,0-0.1,0l0,1.4c0,0,0.1,0,0.1,0c0.1,0,0.1,0,0.1,0L22,30.5z"/>
					</g>
					<path class="st24" d="M20,31.8l0-0.5l1.7,0l0,0.5c0,0-0.1-0.3-0.2-0.3c0,0-1.4,0-1.4,0L20,31.8z"/>
					<path class="st5" d="M14.6,30.8l-1.9,0c-0.1,0-0.1,0.1-0.1,0.1l0,0.1c0,0.1,0.1,0.1,0.1,0.1l1.9,0c0.1,0,0.1-0.1,0.1-0.1l0-0.1
						C14.7,30.9,14.7,30.8,14.6,30.8z"/>
					<path class="st8" d="M19.8,31.3l-0.3,0.2l-6.7,0.1l-0.2-0.4l-0.3,0l0,0.7c0,0.1,0.1,0.2,0.2,0.2l7.3-0.1L19.8,31.3z"/>
				</g>
			</g>
		</g>
	</g>
	<g>
		<path class="st0" d="M41.4,57.7H19.3c-1.9,0-3.5-1.6-3.5-3.5V5.8c0-1.9,1.6-3.5,3.5-3.5h22.1c1.9,0,3.5,1.6,3.5,3.5v48.5
			C44.9,56.2,43.3,57.7,41.4,57.7z"/>
		<line class="st0" x1="15.7" y1="7.2" x2="44.9" y2="7.2"/>
		<line class="st0" x1="15.7" y1="52.8" x2="44.9" y2="52.8"/>
		<path class="st1" d="M36,5.3H24.6c-0.2,0-0.4-0.2-0.4-0.4V4.8c0-0.2,0.2-0.4,0.4-0.4H36c0.2,0,0.4,0.2,0.4,0.4v0.1
			C36.4,5.1,36.2,5.3,36,5.3z"/>
		<circle class="st2" cx="38.3" cy="4.7" r="0.9"/>
		<circle cx="38.3" cy="4.7" r="0.5"/>
		<rect x="15.7" y="7.2" class="st3" width="29.1" height="3.6"/>
		<linearGradient id="SVGID_3_" gradientUnits="userSpaceOnUse" x1="17.0172" y1="69.4649" x2="38.8168" y2="6.7699">
			<stop  offset="0" style="stop-color:#262262"/>
			<stop  offset="1" style="stop-color:#27AAE1"/>
		</linearGradient>
		<rect x="15.7" y="10.8" class="st27" width="29.1" height="40.9"/>
		<g>
			<path class="st5" d="M39,9.4c0.2-0.2,0.3-0.6,0.2-0.9c-0.1-0.4-0.4-0.6-0.8-0.7c-0.7-0.1-1.3,0.5-1.1,1.2
				c0.1,0.3,0.3,0.5,0.5,0.7c0.3,0.1,0.6,0.1,0.9,0l0.4,0.5c0.1,0.1,0.2,0.1,0.3,0l0,0c0.1-0.1,0.1-0.2,0-0.3L39,9.4z M38.5,9.3
				c-0.1,0-0.1,0-0.2,0c-0.3,0-0.6-0.3-0.6-0.6s0.3-0.6,0.6-0.6c0.3,0,0.6,0.3,0.6,0.6c0,0.1,0,0.3-0.1,0.4
				C38.7,9.2,38.6,9.3,38.5,9.3z"/>
		</g>
		<polygon class="st5" points="42.3,8 42.6,8.6 43.3,8.8 42.8,9.3 42.9,10 42.3,9.6 41.6,10 41.7,9.3 41.2,8.8 41.9,8.6 		"/>
		<g>
			<path class="st5" d="M19.7,39.9h-1.1v1.2h-0.7v-3h0.7v1.2h1.1v-1.2h0.7v3h-0.7V39.9z"/>
			<path class="st5" d="M22.4,38.8h-1.1v0.6h1v0.6h-1v0.7h1.1v0.6h-1.8v-3h1.8V38.8z"/>
			<path class="st5" d="M24.4,40.6h-1.1l-0.2,0.5h-0.8l1.1-3h0.8l1.1,3h-0.8L24.4,40.6z M23.8,39l-0.4,1.1h0.7L23.8,39z"/>
			<path class="st5" d="M26,38.2v2.4h1v0.6h-1.7v-3H26z"/>
			<path class="st5" d="M26.8,38.2h2.3v0.6h-0.8v2.4h-0.7v-2.4h-0.8V38.2z"/>
			<path class="st5" d="M30.9,39.9h-1.1v1.2H29v-3h0.7v1.2h1.1v-1.2h0.7v3h-0.7V39.9z"/>
			<path class="st5" d="M33.1,38.2c0.7,0,1.2,0.4,1.4,1h-0.8c-0.1-0.3-0.3-0.4-0.6-0.4c-0.4,0-0.8,0.3-0.8,0.9
				c0,0.5,0.3,0.9,0.8,0.9c0.3,0,0.5-0.1,0.6-0.4h0.8c-0.2,0.6-0.7,1-1.4,1c-0.9,0-1.5-0.6-1.5-1.5C31.6,38.8,32.3,38.2,33.1,38.2z"
				/>
			<path class="st5" d="M35.8,38.2c0.7,0,1.1,0.4,1.1,0.9c0,0.4-0.2,0.7-0.7,0.9l0.7,1.2h-0.8L35.5,40h-0.2v1.1h-0.7v-3H35.8z
				 M35.8,38.8h-0.4v0.7h0.4c0.3,0,0.4-0.1,0.4-0.4C36.2,38.9,36.1,38.8,35.8,38.8z"/>
			<path class="st5" d="M37,38.2h0.7V40c0,0.4,0.2,0.6,0.5,0.6c0.3,0,0.5-0.2,0.5-0.6v-1.8h0.7V40c0,0.8-0.6,1.2-1.3,1.2
				c-0.7,0-1.2-0.4-1.2-1.2V38.2z"/>
			<path class="st5" d="M39.6,38.2h0.9l0.8,2.1l0.8-2.1H43v3h-0.7v-1.8l-0.7,1.8H41l-0.7-1.8v1.8h-0.7V38.2z"/>
		</g>
		<g>
			<g>
				<polygon class="st28" points="26.5,28 33.3,28.1 33.3,19.9 26.6,19.9 				"/>
				<path class="st15" d="M31.5,27.2c0-0.8-3.2-0.9-3.3-0.1c0,2.9-1.2,3.5-1.2,3.5s0,3.1,2.8,3.2c2.6,0.1,2.7-3.2,2.7-3.2
					S31.4,30.2,31.5,27.2z"/>
				<path class="st29" d="M31.5,27.5l0.1,1.3l-3.1,3.4l-1.2-1.9c0,0,0.3-0.4,0.5-1c0.3-0.8,0.3-1.7,0.3-1.7L31.5,27.5z"/>
				<path class="st18" d="M29.8,18.3c-2.1,0-4.1,2.2-3.8,5c0.3,2.9,2.4,5.2,3.8,5.2c1.4,0,3.5-2.3,3.8-5.2
					C33.9,20.6,31.9,18.3,29.8,18.3z"/>
				<linearGradient id="SVGID_4_" gradientUnits="userSpaceOnUse" x1="32.4588" y1="26.5143" x2="32.4504" y2="26.538">
					<stop  offset="0" style="stop-color:#E9C2C6"/>
					<stop  offset="0.2204" style="stop-color:#F1D9DC"/>
					<stop  offset="0.4882" style="stop-color:#F9EEEF"/>
					<stop  offset="0.7507" style="stop-color:#FDFBFB"/>
					<stop  offset="1" style="stop-color:#FFFFFF"/>
				</linearGradient>
				<path class="st30" d="M32.5,26.5C32.5,26.5,32.5,26.5,32.5,26.5C32.4,26.5,32.4,26.5,32.5,26.5z"/>
				<rect x="27.2" y="32.6" class="st11" width="5.3" height="2"/>
				<path class="st24" d="M37.9,34c-0.7-1.6-1.5-2.8-2.1-2.8c0,0-0.1,0-0.1,0l-3.4-0.9c-1,1.7-2.3,4-2.3,4s-1.7-2.6-2.6-4l-3.2,1
					c0,0-0.1,0-0.1,0c-0.6,0-1.4,1.2-2.1,2.7c-0.1,0.3,0.1,0.7,0.4,0.7h1.7h0.7h5h5.3h0.6h1.8C37.9,34.6,38.1,34.3,37.9,34z"/>
				<path class="st31" d="M27.4,24.3c-0.3-2.5,1.6-4.6,3.7-4.6c0.2,0,0.4,0,0.6,0.1c-0.6-0.4-1.2-0.6-1.9-0.6c-2,0-3.9,2.1-3.7,4.6
					c0.3,2.6,2.2,4.6,3.5,4.8C28.6,27.7,27.6,26.1,27.4,24.3z"/>
				<path class="st19" d="M29.4,18.3c0,0-1.6-0.9-2.9,0.9c-2.7,3.6-0.3,9-0.3,9l1.5,0.2c0,0-1.3-4.1-0.9-5.6c0.5-1.8,2-2.5,2-2.5
					s0.6,0.8,1.8,1.5c1.2,0.7,1.4,0.1,2.1,1.1c0.7,1-0.3,5.4-0.3,5.4h1.4c0,0,1.2-7.4-0.5-9.4C31.4,17,29.4,18.3,29.4,18.3z"/>
				<g>
					<path class="st11" d="M33.6,19.5l-3.8,0.8l-3.6-0.7l1-3.1c0.1-0.2,0.3-0.4,0.5-0.4h4c0.2,0,0.4,0.1,0.5,0.3L33.6,19.5z"/>
					<path class="st9" d="M28,16.5l1.2,0.7c0.4,0.2,0.6,0.6,0.6,1.1l0.1,2.1l-3.6-0.7l1-2.8C27.3,16.5,27.7,16.3,28,16.5z"/>
				</g>
				<path class="st8" d="M24.1,31.3c-0.6,0-1.4,1.2-2.1,2.7c-0.1,0.3,0.1,0.7,0.4,0.7h0.9l0.6-1c0.4-0.7,1.2-1.2,2.1-1.2l2.5-0.1
					l0,0c-0.4-0.7-0.9-1.4-1.2-1.9l-3.2,1C24.1,31.3,24.1,31.3,24.1,31.3z"/>
			</g>
			<polygon class="st8" points="36.3,31.4 36.1,31.2 34.9,34.6 36.9,34.6 			"/>
			<g>
				<path class="st15" d="M36,26.3c0,0-1.1,0.1-1.1,0.1s0.1,0.3,0.3,0.4c0.2,0.1,0.8-0.2,0.8-0.2L36,26.3z"/>
				<path class="st15" d="M36.8,28.1c0,0,0.1,0.4,0.1,0.6c0,0.2-0.7,0.7-0.7,0.7l1.9,0.8l-0.9-3L36.8,28.1z"/>
				<path class="st15" d="M36.3,31.5c0,0-0.5-0.5-0.6-0.7s-0.2-0.9-0.2-1c0-0.1,0-0.8-0.1-0.9c-0.1-0.1-0.3-0.5-0.3-0.6
					c0.1-0.2,0.4-0.2,0.6-0.1c0.2,0.1,0.3,0.5,0.5,0.8c0.1,0.3,1.2,1.2,1.2,1.2L36.3,31.5z"/>
				<g>
					<g>
						<path class="st25" d="M36.3,27.1C36.3,27.1,36.3,27.1,36.3,27.1c0-0.1,0-0.1,0-0.1L35,27c0,0,0,0,0,0.1c0,0,0,0.1,0,0.1
							L36.3,27.1z"/>
						
							<rect x="35.3" y="27.2" transform="matrix(0.9998 -2.194315e-02 2.194315e-02 0.9998 -0.5978 0.7884)" class="st26" width="0.6" height="1"/>
						<path class="st25" d="M35.8,23.2l-0.5,0c-0.1,0-0.1,0-0.1,0.1l0.1,3.8l0.8,0l-0.1-3.8C35.9,23.2,35.9,23.2,35.8,23.2z"/>
						
							<rect x="35.4" y="22.8" transform="matrix(0.9998 -2.164422e-02 2.164422e-02 0.9998 -0.4898 0.7744)" class="st25" width="0.3" height="0.3"/>
						
							<rect x="35.4" y="22.4" transform="matrix(0.9998 -2.211359e-02 2.211359e-02 0.9998 -0.4926 0.7911)" class="st7" width="0.3" height="0.6"/>
						<polygon class="st10" points="35.5,19.9 35.4,20 35.5,22.4 35.6,22.4 						"/>
						
							<rect x="35.3" y="22.9" transform="matrix(0.9997 -2.247161e-02 2.247161e-02 0.9997 -0.5065 0.8043)" class="st7" width="0.4" height="0.1"/>
						<polygon class="st9" points="35.8,24.5 35.3,24.5 35.3,27 35.9,27 						"/>
						
							<rect x="35.6" y="24.5" transform="matrix(0.9997 -2.410325e-02 2.410325e-02 0.9997 -0.6234 0.8658)" class="st25" width="0.1" height="3.6"/>
						
							<rect x="35.3" y="23.4" transform="matrix(0.9998 -2.153571e-02 2.153571e-02 0.9998 -0.5059 0.7712)" class="st14" width="0.6" height="1"/>
						
							<rect x="35.3" y="24.4" transform="matrix(0.9998 -2.152884e-02 2.152884e-02 0.9998 -0.5179 0.7714)" class="st10" width="0.6" height="0.1"/>
						<path class="st9" d="M36,28.2C36,28.2,36,28.1,36,28.2c0-0.1,0-0.1,0-0.1l-0.7,0c0,0,0,0,0,0.1c0,0,0,0.1,0,0.1L36,28.2z"/>
					</g>
					<path class="st24" d="M35.3,27.2l0.3,0l0,0.9l-0.2,0c0,0,0.2-0.1,0.2-0.1c0,0,0-0.7,0-0.7L35.3,27.2z"/>
					<path class="st5" d="M35.8,24.4l0-1c0,0,0-0.1-0.1-0.1l0,0c0,0-0.1,0-0.1,0.1l0,1C35.7,24.4,35.7,24.5,35.8,24.4L35.8,24.4
						C35.8,24.5,35.8,24.4,35.8,24.4z"/>
					<path class="st8" d="M35.6,27l-0.1-0.1l0-3.4l0.2-0.1l0-0.2l-0.4,0c-0.1,0-0.1,0-0.1,0.1l0.1,3.8L35.6,27z"/>
				</g>
				<rect x="36.3" y="30.7" class="st18" width="2" height="4"/>
				<path class="st18" d="M34.9,26.6c0.4-0.1,1-0.4,1.1-0.4c0.1,0,0.9,0,1,0.1c0.1,0,0.8,0.4,0.9,0.6s0.8,1.1,0.8,1.4
					c-0.1,0.3-0.4,3.1-0.4,3.1l-2,0.3c0,0-0.3-0.7-0.1-1.2c0.3-0.7,1.2-1.1,1.2-1.8c0-0.3-0.5-0.5-0.7-0.4c-0.2,0.2-0.4,0.4-0.5,0.4
					c-0.1,0.1-0.5,0.1-0.4-0.1c0-0.2,0.2-0.6,0.2-0.6s-0.8,0.4-0.9,0C35,27.6,36,27,36,27s-0.8,0.1-0.9,0
					C34.9,26.9,34.8,26.7,34.9,26.6z"/>
				<rect x="35.9" y="32.6" class="st24" width="2.7" height="2.1"/>
			</g>
		</g>
		<path class="st0" d="M15.7,22.4L15.7,22.4c-0.5,0-0.8-0.4-0.8-0.8v-6.3c0-0.5,0.4-0.8,0.8-0.8h0V22.4z"/>
		<path class="st0" d="M44.9,25.4L44.9,25.4c0.5,0,0.8-0.4,0.8-0.8V17c0-0.5-0.4-0.8-0.8-0.8l0,0V25.4z"/>
		<path class="st0" d="M15.7,31L15.7,31c-0.5,0-0.8-0.4-0.8-0.8v-6.3c0-0.5,0.4-0.8,0.8-0.8h0V31z"/>
		<circle class="st32" cx="30.3" cy="54.8" r="2"/>
		<g>
			<path class="st5" d="M19.1,42.1h0.1v0.8h-0.1V42.1z"/>
			<path class="st5" d="M19.8,42.5c0-0.1-0.1-0.2-0.2-0.2c-0.1,0-0.2,0.1-0.2,0.2v0.3h-0.1v-0.6h0.1v0.1c0-0.1,0.1-0.1,0.2-0.1
				C19.8,42.2,19.9,42.3,19.8,42.5l0.1,0.3h-0.1V42.5z"/>
			<path class="st5" d="M20.3,42.2c0.1,0,0.2,0,0.2,0.1V42h0.1v0.8h-0.1v-0.1c0,0.1-0.1,0.1-0.2,0.1c-0.2,0-0.3-0.1-0.3-0.3
				C20,42.4,20.2,42.2,20.3,42.2z M20.3,42.3c-0.1,0-0.2,0.1-0.2,0.2s0.1,0.2,0.2,0.2c0.1,0,0.2-0.1,0.2-0.2
				C20.5,42.4,20.4,42.3,20.3,42.3z"/>
			<path class="st5" d="M20.8,42.1C20.8,42,20.8,42,20.8,42.1c0.1-0.1,0.1,0,0.1,0C20.9,42.1,20.9,42.1,20.8,42.1
				C20.8,42.1,20.8,42.1,20.8,42.1z M20.8,42.2h0.1v0.6h-0.1V42.2z"/>
			<path class="st5" d="M21.3,42.2c0.1,0,0.2,0.1,0.2,0.1v-0.1h0.1v0.6h-0.1v-0.1c0,0.1-0.1,0.1-0.2,0.1c-0.2,0-0.3-0.1-0.3-0.3
				C21,42.4,21.2,42.2,21.3,42.2z M21.4,42.3c-0.1,0-0.2,0.1-0.2,0.2s0.1,0.2,0.2,0.2c0.1,0,0.2-0.1,0.2-0.2
				C21.6,42.4,21.5,42.3,21.4,42.3z"/>
			<path class="st5" d="M21.8,42L21.8,42l0.1,0.2h-0.1L21.8,42z"/>
			<path class="st5" d="M22.2,42.9c-0.1,0-0.2-0.1-0.2-0.2h0.1C22.1,42.7,22.1,42.8,22.2,42.9c0.1-0.1,0.1-0.1,0.1-0.2
				c0-0.1-0.4-0.1-0.4-0.3c0-0.1,0.1-0.2,0.2-0.2c0.1,0,0.2,0.1,0.2,0.2h-0.1c0-0.1-0.1-0.1-0.1-0.1c-0.1,0-0.1,0-0.1,0.1
				c0,0.1,0.4,0.1,0.4,0.3C22.4,42.8,22.4,42.9,22.2,42.9z"/>
			<path class="st5" d="M22.9,42.1h0.4v0.1H23v0.3h0.3v0.1H23v0.3h-0.1V42.1z"/>
			<path class="st5" d="M23.4,42.1C23.4,42,23.5,42,23.4,42.1c0.1-0.1,0.1,0,0.1,0C23.6,42.1,23.5,42.1,23.4,42.1
				C23.5,42.1,23.4,42.1,23.4,42.1z M23.4,42.2h0.1v0.6h-0.1V42.2z"/>
			<path class="st5" d="M23.8,42.9h-0.1v-0.6h0.1v0.1c0-0.1,0.1-0.1,0.2-0.1v0.1h0c-0.1,0-0.2,0-0.2,0.2V42.9z"/>
			<path class="st5" d="M24.3,42.9c-0.1,0-0.2-0.1-0.2-0.2h0.1C24.2,42.7,24.3,42.8,24.3,42.9c0.1-0.1,0.1-0.1,0.1-0.2
				c0-0.1-0.4-0.1-0.4-0.3c0-0.1,0.1-0.2,0.2-0.2c0.1,0,0.2,0.1,0.2,0.2h-0.1c0-0.1-0.1-0.1-0.1-0.1c-0.1,0-0.1,0-0.1,0.1
				c0,0.1,0.4,0.1,0.4,0.3C24.6,42.8,24.5,42.9,24.3,42.9z"/>
			<path class="st5" d="M24.7,42.3L24.7,42.3L24.7,42.3L24.7,42.3v-0.2h0.1v0.2H25v0.1h-0.2v0.4c0,0.1,0,0.1,0.1,0.1H25v0.1h-0.1
				c-0.1,0-0.2,0-0.2-0.2V42.3z"/>
			<path class="st5" d="M25.8,42.9c-0.2,0-0.4-0.2-0.4-0.4c0-0.2,0.2-0.4,0.4-0.4c0.2,0,0.4,0.2,0.4,0.4
				C26.1,42.7,26,42.9,25.8,42.9z M25.8,42.8c0.2,0,0.3-0.1,0.3-0.3c0-0.2-0.1-0.3-0.3-0.3s-0.3,0.1-0.3,0.3
				C25.5,42.7,25.6,42.8,25.8,42.8z"/>
			<path class="st5" d="M26.7,42.5c0-0.1-0.1-0.2-0.2-0.2c-0.1,0-0.2,0.1-0.2,0.2v0.3h-0.1v-0.6h0.1v0.1c0-0.1,0.1-0.1,0.2-0.1
				C26.7,42.2,26.8,42.3,26.7,42.5l0.1,0.3h-0.1V42.5z"/>
			<path class="st5" d="M27,42h0.1v0.8H27V42z"/>
			<path class="st5" d="M27.2,42.1C27.2,42,27.3,42,27.2,42.1c0.1-0.1,0.1,0,0.1,0C27.4,42.1,27.3,42.1,27.2,42.1
				C27.3,42.1,27.2,42.1,27.2,42.1z M27.3,42.2h0.1v0.6h-0.1V42.2z"/>
			<path class="st5" d="M28,42.5c0-0.1-0.1-0.2-0.2-0.2c-0.1,0-0.2,0.1-0.2,0.2v0.3h-0.1v-0.6h0.1v0.1c0-0.1,0.1-0.1,0.2-0.1
				C28,42.2,28.1,42.3,28,42.5l0.1,0.3H28V42.5z"/>
			<path class="st5" d="M28.5,42.9c-0.2,0-0.3-0.1-0.3-0.3s0.1-0.3,0.3-0.3c0.2,0,0.3,0.1,0.3,0.3c0,0,0,0,0,0.1h-0.5
				C28.3,42.7,28.4,42.8,28.5,42.9c0.1-0.1,0.1-0.1,0.2-0.2h0.1C28.7,42.8,28.6,42.9,28.5,42.9z M28.3,42.5h0.4
				c0-0.1-0.1-0.2-0.2-0.2C28.4,42.3,28.3,42.4,28.3,42.5z"/>
			<path class="st5" d="M29.5,42.9c-0.2,0-0.3-0.1-0.3-0.2h0.1C29.3,42.7,29.4,42.8,29.5,42.9c0.1-0.1,0.2-0.1,0.2-0.2
				c0-0.2-0.4-0.1-0.4-0.4c0-0.1,0.1-0.2,0.3-0.2c0.1,0,0.2,0.1,0.3,0.2h-0.1c0-0.1-0.1-0.1-0.1-0.1c-0.1,0-0.1,0-0.1,0.1
				c0,0.2,0.4,0.1,0.4,0.4C29.7,42.8,29.6,42.9,29.5,42.9z"/>
			<path class="st5" d="M30.4,42.9h-0.1v-0.1c0,0.1-0.1,0.1-0.2,0.1c-0.1,0-0.2-0.1-0.2-0.3v-0.4H30v0.3c0,0.1,0.1,0.2,0.2,0.2
				c0.1,0,0.2-0.1,0.2-0.2v-0.3h0.1V42.9z"/>
			<path class="st5" d="M30.9,42.2c0.2,0,0.3,0.1,0.3,0.3c0,0.2-0.1,0.3-0.3,0.3c-0.1,0-0.2-0.1-0.2-0.1v0.4h-0.1v-0.9h0.1v0.1
				C30.7,42.3,30.8,42.2,30.9,42.2z M30.9,42.3c-0.1,0-0.2,0.1-0.2,0.2c0,0.1,0.1,0.2,0.2,0.2c0.1,0,0.2-0.1,0.2-0.2
				S31,42.3,30.9,42.3z"/>
			<path class="st5" d="M31.6,42.9c-0.2,0-0.3-0.1-0.3-0.3s0.1-0.3,0.3-0.3c0.2,0,0.3,0.1,0.3,0.3c0,0,0,0,0,0.1h-0.5
				C31.4,42.7,31.5,42.8,31.6,42.9c0.1-0.1,0.1-0.1,0.2-0.2h0.1C31.8,42.8,31.7,42.9,31.6,42.9z M31.4,42.5h0.4
				c0-0.1-0.1-0.2-0.2-0.2C31.5,42.3,31.4,42.4,31.4,42.5z"/>
			<path class="st5" d="M32.1,42.9H32v-0.6h0.1v0.1c0-0.1,0.1-0.1,0.2-0.1v0.1h0c-0.1,0-0.2,0-0.2,0.2V42.9z"/>
			<path class="st5" d="M33,42.9c-0.2,0-0.3-0.1-0.3-0.2h0.1C32.8,42.7,32.9,42.8,33,42.9c0.1-0.1,0.2-0.1,0.2-0.2
				c0-0.2-0.4-0.1-0.4-0.4c0-0.1,0.1-0.2,0.3-0.2c0.1,0,0.2,0.1,0.3,0.2h-0.1c0-0.1-0.1-0.1-0.1-0.1c-0.1,0-0.1,0-0.1,0.1
				c0,0.2,0.4,0.1,0.4,0.4C33.2,42.8,33.1,42.9,33,42.9z"/>
			<path class="st5" d="M33.7,42.2c0.2,0,0.3,0.1,0.3,0.3c0,0.2-0.1,0.3-0.3,0.3c-0.1,0-0.2-0.1-0.2-0.1v0.4h-0.1v-0.9h0.1v0.1
				C33.5,42.3,33.6,42.2,33.7,42.2z M33.7,42.3c-0.1,0-0.2,0.1-0.2,0.2c0,0.1,0.1,0.2,0.2,0.2c0.1,0,0.2-0.1,0.2-0.2
				S33.8,42.3,33.7,42.3z"/>
			<path class="st5" d="M34.4,42.9c-0.2,0-0.3-0.1-0.3-0.3s0.1-0.3,0.3-0.3c0.2,0,0.3,0.1,0.3,0.3c0,0,0,0,0,0.1h-0.5
				C34.2,42.7,34.3,42.8,34.4,42.9c0.1-0.1,0.1-0.1,0.2-0.2h0.1C34.6,42.8,34.5,42.9,34.4,42.9z M34.2,42.5h0.4
				c0-0.1-0.1-0.2-0.2-0.2C34.3,42.3,34.2,42.4,34.2,42.5z"/>
			<path class="st5" d="M35.1,42.2c0.2,0,0.2,0.1,0.3,0.2h-0.1C35.2,42.4,35.2,42.3,35.1,42.2c-0.1,0.1-0.2,0.2-0.2,0.3
				c0,0.2,0.1,0.2,0.2,0.2c0.1,0,0.1,0,0.2-0.1h0.1c0,0.1-0.1,0.2-0.3,0.2c-0.2,0-0.3-0.1-0.3-0.3C34.8,42.4,34.9,42.2,35.1,42.2z"
				/>
			<path class="st5" d="M35.5,42.1C35.5,42,35.5,42,35.5,42.1c0.1-0.1,0.1,0,0.1,0C35.6,42.1,35.6,42.1,35.5,42.1
				C35.5,42.1,35.5,42.1,35.5,42.1z M35.5,42.2h0.1v0.6h-0.1V42.2z"/>
			<path class="st5" d="M36,42.2c0.1,0,0.2,0.1,0.2,0.1v-0.1h0.1v0.6h-0.1v-0.1c0,0.1-0.1,0.1-0.2,0.1c-0.2,0-0.3-0.1-0.3-0.3
				C35.7,42.4,35.8,42.2,36,42.2z M36,42.3c-0.1,0-0.2,0.1-0.2,0.2s0.1,0.2,0.2,0.2s0.2-0.1,0.2-0.2C36.2,42.4,36.1,42.3,36,42.3z"
				/>
			<path class="st5" d="M36.5,42h0.1v0.8h-0.1V42z"/>
			<path class="st5" d="M36.8,42.1C36.8,42,36.8,42,36.8,42.1c0.1-0.1,0.1,0,0.1,0C36.9,42.1,36.9,42.1,36.8,42.1
				C36.8,42.1,36.8,42.1,36.8,42.1z M36.8,42.2h0.1v0.6h-0.1V42.2z"/>
			<path class="st5" d="M37.1,42.3L37.1,42.3L37.1,42.3L37.1,42.3v-0.2h0.1v0.2h0.2v0.1h-0.2v0.4c0,0.1,0,0.1,0.1,0.1h0.1v0.1h-0.1
				c-0.1,0-0.2,0-0.2-0.2V42.3z"/>
			<path class="st5" d="M37.9,42.2H38l-0.4,0.9h-0.1l0.1-0.3l-0.2-0.6h0.1l0.2,0.5L37.9,42.2z"/>
			<path class="st5" d="M38.7,42.1c0.2,0,0.3,0.1,0.4,0.2h-0.1C38.9,42.2,38.8,42.2,38.7,42.1c-0.2,0.1-0.3,0.2-0.3,0.4
				c0,0.2,0.1,0.3,0.3,0.3c0.1,0,0.2-0.1,0.2-0.1h0.1c-0.1,0.1-0.2,0.2-0.4,0.2c-0.2,0-0.4-0.2-0.4-0.4
				C38.3,42.2,38.5,42.1,38.7,42.1z"/>
			<path class="st5" d="M39.2,42h0.1v0.8h-0.1V42z"/>
			<path class="st5" d="M39.5,42.1C39.5,42,39.5,42,39.5,42.1c0.1-0.1,0.1,0,0.1,0C39.6,42.1,39.6,42.1,39.5,42.1
				C39.5,42.1,39.5,42.1,39.5,42.1z M39.5,42.2h0.1v0.6h-0.1V42.2z"/>
			<path class="st5" d="M40.2,42.5c0-0.1-0.1-0.2-0.2-0.2c-0.1,0-0.2,0.1-0.2,0.2v0.3h-0.1v-0.6h0.1v0.1c0-0.1,0.1-0.1,0.2-0.1
				C40.2,42.2,40.3,42.3,40.2,42.5l0.1,0.3h-0.1V42.5z"/>
			<path class="st5" d="M40.5,42.1C40.5,42,40.5,42,40.5,42.1c0.1-0.1,0.1,0,0.1,0C40.6,42.1,40.6,42.1,40.5,42.1
				C40.5,42.1,40.5,42.1,40.5,42.1z M40.5,42.2h0.1v0.6h-0.1V42.2z"/>
			<path class="st5" d="M41,42.2c0.2,0,0.2,0.1,0.3,0.2h-0.1C41.2,42.4,41.1,42.3,41,42.2c-0.1,0.1-0.2,0.2-0.2,0.3
				c0,0.2,0.1,0.2,0.2,0.2c0.1,0,0.1,0,0.2-0.1h0.1c0,0.1-0.1,0.2-0.3,0.2c-0.2,0-0.3-0.1-0.3-0.3C40.7,42.4,40.8,42.2,41,42.2z"/>
		</g>
	</g>
	<g>
		<g>
			<rect x="1" y="1.5" class="st0" width="2.2" height="0.4"/>
			<rect x="0.8" y="1.3" class="st0" width="2.6" height="0.7"/>
		</g>
		<g>
			<rect x="1" y="1.5" transform="matrix(4.545348e-11 -1 1 4.545348e-11 0.4013 3.6608)" class="st0" width="2.2" height="0.4"/>
			<rect x="1.7" y="0.4" class="st0" width="0.7" height="2.6"/>
		</g>
	</g>
	
		<rect x="4.5" y="56.6" transform="matrix(0.7071 -0.7071 0.7071 0.7071 -39.0444 20.5862)" class="st33" width="1.7" height="1.7"/>
	
		<rect x="7.9" y="58.2" transform="matrix(0.7071 -0.7071 0.7071 0.7071 -39.0459 23.2371)" class="st34" width="1.2" height="1.2"/>
</g>
</svg>
